<?xml version="1.0" encoding="utf-8" standalone="no"?>
<!DOCTYPE svg PUBLIC "-//W3C//DTD SVG 1.1//EN"
  "http://www.w3.org/Graphics/SVG/1.1/DTD/svg11.dtd">
<!-- Created with matplotlib (https://matplotlib.org/) -->
<svg height="248.518125pt" version="1.1" viewBox="0 0 601.665625 248.518125" width="601.665625pt" xmlns="http://www.w3.org/2000/svg" xmlns:xlink="http://www.w3.org/1999/xlink">
 <metadata>
  <rdf:RDF xmlns:cc="http://creativecommons.org/ns#" xmlns:dc="http://purl.org/dc/elements/1.1/" xmlns:rdf="http://www.w3.org/1999/02/22-rdf-syntax-ns#">
   <cc:Work>
    <dc:type rdf:resource="http://purl.org/dc/dcmitype/StillImage"/>
    <dc:date>2021-07-05T22:52:49.148083</dc:date>
    <dc:format>image/svg+xml</dc:format>
    <dc:creator>
     <cc:Agent>
      <dc:title>Matplotlib v3.3.4, https://matplotlib.org/</dc:title>
     </cc:Agent>
    </dc:creator>
   </cc:Work>
  </rdf:RDF>
 </metadata>
 <defs>
  <style type="text/css">*{stroke-linecap:butt;stroke-linejoin:round;}</style>
 </defs>
 <g id="figure_1">
  <g id="patch_1">
   <path d="M 0 248.518125 
L 601.665625 248.518125 
L 601.665625 0 
L 0 0 
z
" style="fill:none;"/>
  </g>
  <g id="axes_1">
   <g id="patch_2">
    <path d="M 36.465625 224.64 
L 594.465625 224.64 
L 594.465625 7.2 
L 36.465625 7.2 
z
" style="fill:#ffffff;"/>
   </g>
   <g id="matplotlib.axis_1">
    <g id="xtick_1">
     <g id="line2d_1">
      <defs>
       <path d="M 0 0 
L 0 3.5 
" id="mfeba85a100" style="stroke:#000000;stroke-width:0.8;"/>
      </defs>
      <g>
       <use style="stroke:#000000;stroke-width:0.8;" x="59.267278" xlink:href="#mfeba85a100" y="224.64"/>
      </g>
     </g>
     <g id="text_1">
      <!-- 0 -->
      <g transform="translate(56.086028 239.238438)scale(0.1 -0.1)">
       <defs>
        <path d="M 31.78125 66.40625 
Q 24.171875 66.40625 20.328125 58.90625 
Q 16.5 51.421875 16.5 36.375 
Q 16.5 21.390625 20.328125 13.890625 
Q 24.171875 6.390625 31.78125 6.390625 
Q 39.453125 6.390625 43.28125 13.890625 
Q 47.125 21.390625 47.125 36.375 
Q 47.125 51.421875 43.28125 58.90625 
Q 39.453125 66.40625 31.78125 66.40625 
z
M 31.78125 74.21875 
Q 44.046875 74.21875 50.515625 64.515625 
Q 56.984375 54.828125 56.984375 36.375 
Q 56.984375 17.96875 50.515625 8.265625 
Q 44.046875 -1.421875 31.78125 -1.421875 
Q 19.53125 -1.421875 13.0625 8.265625 
Q 6.59375 17.96875 6.59375 36.375 
Q 6.59375 54.828125 13.0625 64.515625 
Q 19.53125 74.21875 31.78125 74.21875 
z
" id="DejaVuSans-48"/>
       </defs>
       <use xlink:href="#DejaVuSans-48"/>
      </g>
     </g>
    </g>
    <g id="xtick_2">
     <g id="line2d_2">
      <g>
       <use style="stroke:#000000;stroke-width:0.8;" x="140.817745" xlink:href="#mfeba85a100" y="224.64"/>
      </g>
     </g>
     <g id="text_2">
      <!-- 1 -->
      <g transform="translate(137.636495 239.238438)scale(0.1 -0.1)">
       <defs>
        <path d="M 12.40625 8.296875 
L 28.515625 8.296875 
L 28.515625 63.921875 
L 10.984375 60.40625 
L 10.984375 69.390625 
L 28.421875 72.90625 
L 38.28125 72.90625 
L 38.28125 8.296875 
L 54.390625 8.296875 
L 54.390625 0 
L 12.40625 0 
z
" id="DejaVuSans-49"/>
       </defs>
       <use xlink:href="#DejaVuSans-49"/>
      </g>
     </g>
    </g>
    <g id="xtick_3">
     <g id="line2d_3">
      <g>
       <use style="stroke:#000000;stroke-width:0.8;" x="222.368211" xlink:href="#mfeba85a100" y="224.64"/>
      </g>
     </g>
     <g id="text_3">
      <!-- 2 -->
      <g transform="translate(219.186961 239.238438)scale(0.1 -0.1)">
       <defs>
        <path d="M 19.1875 8.296875 
L 53.609375 8.296875 
L 53.609375 0 
L 7.328125 0 
L 7.328125 8.296875 
Q 12.9375 14.109375 22.625 23.890625 
Q 32.328125 33.6875 34.8125 36.53125 
Q 39.546875 41.84375 41.421875 45.53125 
Q 43.3125 49.21875 43.3125 52.78125 
Q 43.3125 58.59375 39.234375 62.25 
Q 35.15625 65.921875 28.609375 65.921875 
Q 23.96875 65.921875 18.8125 64.3125 
Q 13.671875 62.703125 7.8125 59.421875 
L 7.8125 69.390625 
Q 13.765625 71.78125 18.9375 73 
Q 24.125 74.21875 28.421875 74.21875 
Q 39.75 74.21875 46.484375 68.546875 
Q 53.21875 62.890625 53.21875 53.421875 
Q 53.21875 48.921875 51.53125 44.890625 
Q 49.859375 40.875 45.40625 35.40625 
Q 44.1875 33.984375 37.640625 27.21875 
Q 31.109375 20.453125 19.1875 8.296875 
z
" id="DejaVuSans-50"/>
       </defs>
       <use xlink:href="#DejaVuSans-50"/>
      </g>
     </g>
    </g>
    <g id="xtick_4">
     <g id="line2d_4">
      <g>
       <use style="stroke:#000000;stroke-width:0.8;" x="303.918678" xlink:href="#mfeba85a100" y="224.64"/>
      </g>
     </g>
     <g id="text_4">
      <!-- 3 -->
      <g transform="translate(300.737428 239.238438)scale(0.1 -0.1)">
       <defs>
        <path d="M 40.578125 39.3125 
Q 47.65625 37.796875 51.625 33 
Q 55.609375 28.21875 55.609375 21.1875 
Q 55.609375 10.40625 48.1875 4.484375 
Q 40.765625 -1.421875 27.09375 -1.421875 
Q 22.515625 -1.421875 17.65625 -0.515625 
Q 12.796875 0.390625 7.625 2.203125 
L 7.625 11.71875 
Q 11.71875 9.328125 16.59375 8.109375 
Q 21.484375 6.890625 26.8125 6.890625 
Q 36.078125 6.890625 40.9375 10.546875 
Q 45.796875 14.203125 45.796875 21.1875 
Q 45.796875 27.640625 41.28125 31.265625 
Q 36.765625 34.90625 28.71875 34.90625 
L 20.21875 34.90625 
L 20.21875 43.015625 
L 29.109375 43.015625 
Q 36.375 43.015625 40.234375 45.921875 
Q 44.09375 48.828125 44.09375 54.296875 
Q 44.09375 59.90625 40.109375 62.90625 
Q 36.140625 65.921875 28.71875 65.921875 
Q 24.65625 65.921875 20.015625 65.03125 
Q 15.375 64.15625 9.8125 62.3125 
L 9.8125 71.09375 
Q 15.4375 72.65625 20.34375 73.4375 
Q 25.25 74.21875 29.59375 74.21875 
Q 40.828125 74.21875 47.359375 69.109375 
Q 53.90625 64.015625 53.90625 55.328125 
Q 53.90625 49.265625 50.4375 45.09375 
Q 46.96875 40.921875 40.578125 39.3125 
z
" id="DejaVuSans-51"/>
       </defs>
       <use xlink:href="#DejaVuSans-51"/>
      </g>
     </g>
    </g>
    <g id="xtick_5">
     <g id="line2d_5">
      <g>
       <use style="stroke:#000000;stroke-width:0.8;" x="385.469145" xlink:href="#mfeba85a100" y="224.64"/>
      </g>
     </g>
     <g id="text_5">
      <!-- 4 -->
      <g transform="translate(382.287895 239.238438)scale(0.1 -0.1)">
       <defs>
        <path d="M 37.796875 64.3125 
L 12.890625 25.390625 
L 37.796875 25.390625 
z
M 35.203125 72.90625 
L 47.609375 72.90625 
L 47.609375 25.390625 
L 58.015625 25.390625 
L 58.015625 17.1875 
L 47.609375 17.1875 
L 47.609375 0 
L 37.796875 0 
L 37.796875 17.1875 
L 4.890625 17.1875 
L 4.890625 26.703125 
z
" id="DejaVuSans-52"/>
       </defs>
       <use xlink:href="#DejaVuSans-52"/>
      </g>
     </g>
    </g>
    <g id="xtick_6">
     <g id="line2d_6">
      <g>
       <use style="stroke:#000000;stroke-width:0.8;" x="467.019611" xlink:href="#mfeba85a100" y="224.64"/>
      </g>
     </g>
     <g id="text_6">
      <!-- 5 -->
      <g transform="translate(463.838361 239.238438)scale(0.1 -0.1)">
       <defs>
        <path d="M 10.796875 72.90625 
L 49.515625 72.90625 
L 49.515625 64.59375 
L 19.828125 64.59375 
L 19.828125 46.734375 
Q 21.96875 47.46875 24.109375 47.828125 
Q 26.265625 48.1875 28.421875 48.1875 
Q 40.625 48.1875 47.75 41.5 
Q 54.890625 34.8125 54.890625 23.390625 
Q 54.890625 11.625 47.5625 5.09375 
Q 40.234375 -1.421875 26.90625 -1.421875 
Q 22.3125 -1.421875 17.546875 -0.640625 
Q 12.796875 0.140625 7.71875 1.703125 
L 7.71875 11.625 
Q 12.109375 9.234375 16.796875 8.0625 
Q 21.484375 6.890625 26.703125 6.890625 
Q 35.15625 6.890625 40.078125 11.328125 
Q 45.015625 15.765625 45.015625 23.390625 
Q 45.015625 31 40.078125 35.4375 
Q 35.15625 39.890625 26.703125 39.890625 
Q 22.75 39.890625 18.8125 39.015625 
Q 14.890625 38.140625 10.796875 36.28125 
z
" id="DejaVuSans-53"/>
       </defs>
       <use xlink:href="#DejaVuSans-53"/>
      </g>
     </g>
    </g>
    <g id="xtick_7">
     <g id="line2d_7">
      <g>
       <use style="stroke:#000000;stroke-width:0.8;" x="548.570078" xlink:href="#mfeba85a100" y="224.64"/>
      </g>
     </g>
     <g id="text_7">
      <!-- 6 -->
      <g transform="translate(545.388828 239.238438)scale(0.1 -0.1)">
       <defs>
        <path d="M 33.015625 40.375 
Q 26.375 40.375 22.484375 35.828125 
Q 18.609375 31.296875 18.609375 23.390625 
Q 18.609375 15.53125 22.484375 10.953125 
Q 26.375 6.390625 33.015625 6.390625 
Q 39.65625 6.390625 43.53125 10.953125 
Q 47.40625 15.53125 47.40625 23.390625 
Q 47.40625 31.296875 43.53125 35.828125 
Q 39.65625 40.375 33.015625 40.375 
z
M 52.59375 71.296875 
L 52.59375 62.3125 
Q 48.875 64.0625 45.09375 64.984375 
Q 41.3125 65.921875 37.59375 65.921875 
Q 27.828125 65.921875 22.671875 59.328125 
Q 17.53125 52.734375 16.796875 39.40625 
Q 19.671875 43.65625 24.015625 45.921875 
Q 28.375 48.1875 33.59375 48.1875 
Q 44.578125 48.1875 50.953125 41.515625 
Q 57.328125 34.859375 57.328125 23.390625 
Q 57.328125 12.15625 50.6875 5.359375 
Q 44.046875 -1.421875 33.015625 -1.421875 
Q 20.359375 -1.421875 13.671875 8.265625 
Q 6.984375 17.96875 6.984375 36.375 
Q 6.984375 53.65625 15.1875 63.9375 
Q 23.390625 74.21875 37.203125 74.21875 
Q 40.921875 74.21875 44.703125 73.484375 
Q 48.484375 72.75 52.59375 71.296875 
z
" id="DejaVuSans-54"/>
       </defs>
       <use xlink:href="#DejaVuSans-54"/>
      </g>
     </g>
    </g>
   </g>
   <g id="matplotlib.axis_2">
    <g id="ytick_1">
     <g id="line2d_8">
      <defs>
       <path d="M 0 0 
L -3.5 0 
" id="m5af1c7c362" style="stroke:#000000;stroke-width:0.8;"/>
      </defs>
      <g>
       <use style="stroke:#000000;stroke-width:0.8;" x="36.465625" xlink:href="#m5af1c7c362" y="214.785033"/>
      </g>
     </g>
     <g id="text_8">
      <!-- 0.00 -->
      <g transform="translate(7.2 218.584252)scale(0.1 -0.1)">
       <defs>
        <path d="M 10.6875 12.40625 
L 21 12.40625 
L 21 0 
L 10.6875 0 
z
" id="DejaVuSans-46"/>
       </defs>
       <use xlink:href="#DejaVuSans-48"/>
       <use x="63.623047" xlink:href="#DejaVuSans-46"/>
       <use x="95.410156" xlink:href="#DejaVuSans-48"/>
       <use x="159.033203" xlink:href="#DejaVuSans-48"/>
      </g>
     </g>
    </g>
    <g id="ytick_2">
     <g id="line2d_9">
      <g>
       <use style="stroke:#000000;stroke-width:0.8;" x="36.465625" xlink:href="#m5af1c7c362" y="181.021711"/>
      </g>
     </g>
     <g id="text_9">
      <!-- 0.05 -->
      <g transform="translate(7.2 184.82093)scale(0.1 -0.1)">
       <use xlink:href="#DejaVuSans-48"/>
       <use x="63.623047" xlink:href="#DejaVuSans-46"/>
       <use x="95.410156" xlink:href="#DejaVuSans-48"/>
       <use x="159.033203" xlink:href="#DejaVuSans-53"/>
      </g>
     </g>
    </g>
    <g id="ytick_3">
     <g id="line2d_10">
      <g>
       <use style="stroke:#000000;stroke-width:0.8;" x="36.465625" xlink:href="#m5af1c7c362" y="147.25839"/>
      </g>
     </g>
     <g id="text_10">
      <!-- 0.10 -->
      <g transform="translate(7.2 151.057609)scale(0.1 -0.1)">
       <use xlink:href="#DejaVuSans-48"/>
       <use x="63.623047" xlink:href="#DejaVuSans-46"/>
       <use x="95.410156" xlink:href="#DejaVuSans-49"/>
       <use x="159.033203" xlink:href="#DejaVuSans-48"/>
      </g>
     </g>
    </g>
    <g id="ytick_4">
     <g id="line2d_11">
      <g>
       <use style="stroke:#000000;stroke-width:0.8;" x="36.465625" xlink:href="#m5af1c7c362" y="113.495068"/>
      </g>
     </g>
     <g id="text_11">
      <!-- 0.15 -->
      <g transform="translate(7.2 117.294287)scale(0.1 -0.1)">
       <use xlink:href="#DejaVuSans-48"/>
       <use x="63.623047" xlink:href="#DejaVuSans-46"/>
       <use x="95.410156" xlink:href="#DejaVuSans-49"/>
       <use x="159.033203" xlink:href="#DejaVuSans-53"/>
      </g>
     </g>
    </g>
    <g id="ytick_5">
     <g id="line2d_12">
      <g>
       <use style="stroke:#000000;stroke-width:0.8;" x="36.465625" xlink:href="#m5af1c7c362" y="79.731747"/>
      </g>
     </g>
     <g id="text_12">
      <!-- 0.20 -->
      <g transform="translate(7.2 83.530966)scale(0.1 -0.1)">
       <use xlink:href="#DejaVuSans-48"/>
       <use x="63.623047" xlink:href="#DejaVuSans-46"/>
       <use x="95.410156" xlink:href="#DejaVuSans-50"/>
       <use x="159.033203" xlink:href="#DejaVuSans-48"/>
      </g>
     </g>
    </g>
    <g id="ytick_6">
     <g id="line2d_13">
      <g>
       <use style="stroke:#000000;stroke-width:0.8;" x="36.465625" xlink:href="#m5af1c7c362" y="45.968425"/>
      </g>
     </g>
     <g id="text_13">
      <!-- 0.25 -->
      <g transform="translate(7.2 49.767644)scale(0.1 -0.1)">
       <use xlink:href="#DejaVuSans-48"/>
       <use x="63.623047" xlink:href="#DejaVuSans-46"/>
       <use x="95.410156" xlink:href="#DejaVuSans-50"/>
       <use x="159.033203" xlink:href="#DejaVuSans-53"/>
      </g>
     </g>
    </g>
    <g id="ytick_7">
     <g id="line2d_14">
      <g>
       <use style="stroke:#000000;stroke-width:0.8;" x="36.465625" xlink:href="#m5af1c7c362" y="12.205104"/>
      </g>
     </g>
     <g id="text_14">
      <!-- 0.30 -->
      <g transform="translate(7.2 16.004323)scale(0.1 -0.1)">
       <use xlink:href="#DejaVuSans-48"/>
       <use x="63.623047" xlink:href="#DejaVuSans-46"/>
       <use x="95.410156" xlink:href="#DejaVuSans-51"/>
       <use x="159.033203" xlink:href="#DejaVuSans-48"/>
      </g>
     </g>
    </g>
   </g>
   <g id="line2d_15">
    <defs>
     <path d="M 0 -2.5 
L -0.561285 -0.772542 
L -2.377641 -0.772542 
L -0.908178 0.295085 
L -1.469463 2.022542 
L -0 0.954915 
L 1.469463 2.022542 
L 0.908178 0.295085 
L 2.377641 -0.772542 
L 0.561285 -0.772542 
z
" id="me9d46cb1c6" style="stroke:#008000;stroke-linejoin:bevel;"/>
    </defs>
    <g clip-path="url(#p85e8aecc9f)">
     <use style="fill:#008000;stroke:#008000;stroke-linejoin:bevel;" x="61.829261" xlink:href="#me9d46cb1c6" y="209.594951"/>
     <use style="fill:#008000;stroke:#008000;stroke-linejoin:bevel;" x="64.391245" xlink:href="#me9d46cb1c6" y="211.809443"/>
     <use style="fill:#008000;stroke:#008000;stroke-linejoin:bevel;" x="66.953228" xlink:href="#me9d46cb1c6" y="212.034341"/>
     <use style="fill:#008000;stroke:#008000;stroke-linejoin:bevel;" x="69.515212" xlink:href="#me9d46cb1c6" y="212.909915"/>
     <use style="fill:#008000;stroke:#008000;stroke-linejoin:bevel;" x="72.077195" xlink:href="#me9d46cb1c6" y="212.802135"/>
     <use style="fill:#008000;stroke:#008000;stroke-linejoin:bevel;" x="74.639179" xlink:href="#me9d46cb1c6" y="212.691137"/>
     <use style="fill:#008000;stroke:#008000;stroke-linejoin:bevel;" x="77.201162" xlink:href="#me9d46cb1c6" y="212.885538"/>
     <use style="fill:#008000;stroke:#008000;stroke-linejoin:bevel;" x="79.763146" xlink:href="#me9d46cb1c6" y="213.701073"/>
     <use style="fill:#008000;stroke:#008000;stroke-linejoin:bevel;" x="82.325129" xlink:href="#me9d46cb1c6" y="210.819922"/>
     <use style="fill:#008000;stroke:#008000;stroke-linejoin:bevel;" x="84.887113" xlink:href="#me9d46cb1c6" y="213.547545"/>
     <use style="fill:#008000;stroke:#008000;stroke-linejoin:bevel;" x="87.449096" xlink:href="#me9d46cb1c6" y="213.666478"/>
     <use style="fill:#008000;stroke:#008000;stroke-linejoin:bevel;" x="90.01108" xlink:href="#me9d46cb1c6" y="213.400964"/>
     <use style="fill:#008000;stroke:#008000;stroke-linejoin:bevel;" x="92.573063" xlink:href="#me9d46cb1c6" y="214.283041"/>
     <use style="fill:#008000;stroke:#008000;stroke-linejoin:bevel;" x="95.135046" xlink:href="#me9d46cb1c6" y="213.988466"/>
     <use style="fill:#008000;stroke:#008000;stroke-linejoin:bevel;" x="97.69703" xlink:href="#me9d46cb1c6" y="213.694477"/>
     <use style="fill:#008000;stroke:#008000;stroke-linejoin:bevel;" x="100.259013" xlink:href="#me9d46cb1c6" y="214.128628"/>
     <use style="fill:#008000;stroke:#008000;stroke-linejoin:bevel;" x="102.820997" xlink:href="#me9d46cb1c6" y="214.706794"/>
     <use style="fill:#008000;stroke:#008000;stroke-linejoin:bevel;" x="105.38298" xlink:href="#me9d46cb1c6" y="210.011448"/>
     <use style="fill:#008000;stroke:#008000;stroke-linejoin:bevel;" x="107.944964" xlink:href="#me9d46cb1c6" y="210.017513"/>
     <use style="fill:#008000;stroke:#008000;stroke-linejoin:bevel;" x="110.506947" xlink:href="#me9d46cb1c6" y="212.353314"/>
     <use style="fill:#008000;stroke:#008000;stroke-linejoin:bevel;" x="113.068931" xlink:href="#me9d46cb1c6" y="212.912933"/>
     <use style="fill:#008000;stroke:#008000;stroke-linejoin:bevel;" x="115.630914" xlink:href="#me9d46cb1c6" y="213.368785"/>
     <use style="fill:#008000;stroke:#008000;stroke-linejoin:bevel;" x="118.192898" xlink:href="#me9d46cb1c6" y="213.611847"/>
     <use style="fill:#008000;stroke:#008000;stroke-linejoin:bevel;" x="120.754881" xlink:href="#me9d46cb1c6" y="213.562577"/>
     <use style="fill:#008000;stroke:#008000;stroke-linejoin:bevel;" x="123.316865" xlink:href="#me9d46cb1c6" y="213.96769"/>
     <use style="fill:#008000;stroke:#008000;stroke-linejoin:bevel;" x="125.878848" xlink:href="#me9d46cb1c6" y="213.528983"/>
     <use style="fill:#008000;stroke:#008000;stroke-linejoin:bevel;" x="128.440832" xlink:href="#me9d46cb1c6" y="213.283199"/>
     <use style="fill:#008000;stroke:#008000;stroke-linejoin:bevel;" x="131.002815" xlink:href="#me9d46cb1c6" y="208.194602"/>
     <use style="fill:#008000;stroke:#008000;stroke-linejoin:bevel;" x="133.564799" xlink:href="#me9d46cb1c6" y="212.269912"/>
     <use style="fill:#008000;stroke:#008000;stroke-linejoin:bevel;" x="136.126782" xlink:href="#me9d46cb1c6" y="213.087938"/>
     <use style="fill:#008000;stroke:#008000;stroke-linejoin:bevel;" x="138.688765" xlink:href="#me9d46cb1c6" y="213.171895"/>
     <use style="fill:#008000;stroke:#008000;stroke-linejoin:bevel;" x="141.250749" xlink:href="#me9d46cb1c6" y="213.109456"/>
     <use style="fill:#008000;stroke:#008000;stroke-linejoin:bevel;" x="143.812732" xlink:href="#me9d46cb1c6" y="213.59432"/>
     <use style="fill:#008000;stroke:#008000;stroke-linejoin:bevel;" x="146.374716" xlink:href="#me9d46cb1c6" y="213.493302"/>
     <use style="fill:#008000;stroke:#008000;stroke-linejoin:bevel;" x="148.936699" xlink:href="#me9d46cb1c6" y="213.276639"/>
     <use style="fill:#008000;stroke:#008000;stroke-linejoin:bevel;" x="151.498683" xlink:href="#me9d46cb1c6" y="213.679849"/>
     <use style="fill:#008000;stroke:#008000;stroke-linejoin:bevel;" x="154.060666" xlink:href="#me9d46cb1c6" y="211.015611"/>
     <use style="fill:#008000;stroke:#008000;stroke-linejoin:bevel;" x="156.62265" xlink:href="#me9d46cb1c6" y="212.529696"/>
     <use style="fill:#008000;stroke:#008000;stroke-linejoin:bevel;" x="159.184633" xlink:href="#me9d46cb1c6" y="213.148735"/>
     <use style="fill:#008000;stroke:#008000;stroke-linejoin:bevel;" x="161.746617" xlink:href="#me9d46cb1c6" y="213.04353"/>
     <use style="fill:#008000;stroke:#008000;stroke-linejoin:bevel;" x="164.3086" xlink:href="#me9d46cb1c6" y="212.893746"/>
     <use style="fill:#008000;stroke:#008000;stroke-linejoin:bevel;" x="166.870584" xlink:href="#me9d46cb1c6" y="213.51019"/>
     <use style="fill:#008000;stroke:#008000;stroke-linejoin:bevel;" x="169.432567" xlink:href="#me9d46cb1c6" y="213.399119"/>
     <use style="fill:#008000;stroke:#008000;stroke-linejoin:bevel;" x="171.994551" xlink:href="#me9d46cb1c6" y="212.951389"/>
     <use style="fill:#008000;stroke:#008000;stroke-linejoin:bevel;" x="174.556534" xlink:href="#me9d46cb1c6" y="213.545876"/>
     <use style="fill:#008000;stroke:#008000;stroke-linejoin:bevel;" x="177.118518" xlink:href="#me9d46cb1c6" y="213.647886"/>
     <use style="fill:#008000;stroke:#008000;stroke-linejoin:bevel;" x="179.680501" xlink:href="#me9d46cb1c6" y="212.217223"/>
     <use style="fill:#008000;stroke:#008000;stroke-linejoin:bevel;" x="182.242485" xlink:href="#me9d46cb1c6" y="212.844137"/>
     <use style="fill:#008000;stroke:#008000;stroke-linejoin:bevel;" x="184.804468" xlink:href="#me9d46cb1c6" y="213.033374"/>
     <use style="fill:#008000;stroke:#008000;stroke-linejoin:bevel;" x="187.366451" xlink:href="#me9d46cb1c6" y="212.595821"/>
     <use style="fill:#008000;stroke:#008000;stroke-linejoin:bevel;" x="189.928435" xlink:href="#me9d46cb1c6" y="213.331624"/>
     <use style="fill:#008000;stroke:#008000;stroke-linejoin:bevel;" x="192.490418" xlink:href="#me9d46cb1c6" y="212.852518"/>
     <use style="fill:#008000;stroke:#008000;stroke-linejoin:bevel;" x="195.052402" xlink:href="#me9d46cb1c6" y="213.364081"/>
     <use style="fill:#008000;stroke:#008000;stroke-linejoin:bevel;" x="197.614385" xlink:href="#me9d46cb1c6" y="213.884623"/>
     <use style="fill:#008000;stroke:#008000;stroke-linejoin:bevel;" x="200.176369" xlink:href="#me9d46cb1c6" y="212.938926"/>
     <use style="fill:#008000;stroke:#008000;stroke-linejoin:bevel;" x="202.738352" xlink:href="#me9d46cb1c6" y="211.804064"/>
     <use style="fill:#008000;stroke:#008000;stroke-linejoin:bevel;" x="205.300336" xlink:href="#me9d46cb1c6" y="212.468841"/>
     <use style="fill:#008000;stroke:#008000;stroke-linejoin:bevel;" x="207.862319" xlink:href="#me9d46cb1c6" y="212.492253"/>
     <use style="fill:#008000;stroke:#008000;stroke-linejoin:bevel;" x="210.424303" xlink:href="#me9d46cb1c6" y="212.170324"/>
     <use style="fill:#008000;stroke:#008000;stroke-linejoin:bevel;" x="212.986286" xlink:href="#me9d46cb1c6" y="212.607519"/>
     <use style="fill:#008000;stroke:#008000;stroke-linejoin:bevel;" x="215.54827" xlink:href="#me9d46cb1c6" y="212.587389"/>
     <use style="fill:#008000;stroke:#008000;stroke-linejoin:bevel;" x="218.110253" xlink:href="#me9d46cb1c6" y="212.000015"/>
     <use style="fill:#008000;stroke:#008000;stroke-linejoin:bevel;" x="220.672237" xlink:href="#me9d46cb1c6" y="212.461491"/>
     <use style="fill:#008000;stroke:#008000;stroke-linejoin:bevel;" x="223.23422" xlink:href="#me9d46cb1c6" y="211.398865"/>
     <use style="fill:#008000;stroke:#008000;stroke-linejoin:bevel;" x="225.796204" xlink:href="#me9d46cb1c6" y="211.64434"/>
     <use style="fill:#008000;stroke:#008000;stroke-linejoin:bevel;" x="228.358187" xlink:href="#me9d46cb1c6" y="212.353433"/>
     <use style="fill:#008000;stroke:#008000;stroke-linejoin:bevel;" x="230.92017" xlink:href="#me9d46cb1c6" y="211.825033"/>
     <use style="fill:#008000;stroke:#008000;stroke-linejoin:bevel;" x="233.482154" xlink:href="#me9d46cb1c6" y="211.57939"/>
     <use style="fill:#008000;stroke:#008000;stroke-linejoin:bevel;" x="236.044137" xlink:href="#me9d46cb1c6" y="211.824532"/>
     <use style="fill:#008000;stroke:#008000;stroke-linejoin:bevel;" x="238.606121" xlink:href="#me9d46cb1c6" y="211.33947"/>
     <use style="fill:#008000;stroke:#008000;stroke-linejoin:bevel;" x="241.168104" xlink:href="#me9d46cb1c6" y="211.125535"/>
     <use style="fill:#008000;stroke:#008000;stroke-linejoin:bevel;" x="243.730088" xlink:href="#me9d46cb1c6" y="211.499138"/>
     <use style="fill:#008000;stroke:#008000;stroke-linejoin:bevel;" x="246.292071" xlink:href="#me9d46cb1c6" y="210.74365"/>
     <use style="fill:#008000;stroke:#008000;stroke-linejoin:bevel;" x="248.854055" xlink:href="#me9d46cb1c6" y="210.55484"/>
     <use style="fill:#008000;stroke:#008000;stroke-linejoin:bevel;" x="251.416038" xlink:href="#me9d46cb1c6" y="211.298647"/>
     <use style="fill:#008000;stroke:#008000;stroke-linejoin:bevel;" x="253.978022" xlink:href="#me9d46cb1c6" y="210.816425"/>
     <use style="fill:#008000;stroke:#008000;stroke-linejoin:bevel;" x="256.540005" xlink:href="#me9d46cb1c6" y="210.20421"/>
     <use style="fill:#008000;stroke:#008000;stroke-linejoin:bevel;" x="259.101989" xlink:href="#me9d46cb1c6" y="210.557956"/>
     <use style="fill:#008000;stroke:#008000;stroke-linejoin:bevel;" x="261.663972" xlink:href="#me9d46cb1c6" y="209.867221"/>
     <use style="fill:#008000;stroke:#008000;stroke-linejoin:bevel;" x="264.225956" xlink:href="#me9d46cb1c6" y="209.92764"/>
     <use style="fill:#008000;stroke:#008000;stroke-linejoin:bevel;" x="266.787939" xlink:href="#me9d46cb1c6" y="209.622844"/>
     <use style="fill:#008000;stroke:#008000;stroke-linejoin:bevel;" x="269.349923" xlink:href="#me9d46cb1c6" y="211.983545"/>
     <use style="fill:#008000;stroke:#008000;stroke-linejoin:bevel;" x="271.911906" xlink:href="#me9d46cb1c6" y="206.333595"/>
     <use style="fill:#008000;stroke:#008000;stroke-linejoin:bevel;" x="274.473889" xlink:href="#me9d46cb1c6" y="206.445785"/>
     <use style="fill:#008000;stroke:#008000;stroke-linejoin:bevel;" x="277.035873" xlink:href="#me9d46cb1c6" y="204.625342"/>
     <use style="fill:#008000;stroke:#008000;stroke-linejoin:bevel;" x="279.597856" xlink:href="#me9d46cb1c6" y="202.856689"/>
     <use style="fill:#008000;stroke:#008000;stroke-linejoin:bevel;" x="282.15984" xlink:href="#me9d46cb1c6" y="200.508055"/>
     <use style="fill:#008000;stroke:#008000;stroke-linejoin:bevel;" x="284.721823" xlink:href="#me9d46cb1c6" y="195.611951"/>
     <use style="fill:#008000;stroke:#008000;stroke-linejoin:bevel;" x="287.283807" xlink:href="#me9d46cb1c6" y="186.408175"/>
     <use style="fill:#008000;stroke:#008000;stroke-linejoin:bevel;" x="289.84579" xlink:href="#me9d46cb1c6" y="165.181061"/>
     <use style="fill:#008000;stroke:#008000;stroke-linejoin:bevel;" x="292.407774" xlink:href="#me9d46cb1c6" y="17.083636"/>
     <use style="fill:#008000;stroke:#008000;stroke-linejoin:bevel;" x="294.969757" xlink:href="#me9d46cb1c6" y="99.869219"/>
     <use style="fill:#008000;stroke:#008000;stroke-linejoin:bevel;" x="297.531741" xlink:href="#me9d46cb1c6" y="166.648984"/>
     <use style="fill:#008000;stroke:#008000;stroke-linejoin:bevel;" x="300.093724" xlink:href="#me9d46cb1c6" y="181.828898"/>
     <use style="fill:#008000;stroke:#008000;stroke-linejoin:bevel;" x="302.655708" xlink:href="#me9d46cb1c6" y="187.832866"/>
     <use style="fill:#008000;stroke:#008000;stroke-linejoin:bevel;" x="305.217691" xlink:href="#me9d46cb1c6" y="188.735855"/>
     <use style="fill:#008000;stroke:#008000;stroke-linejoin:bevel;" x="307.779675" xlink:href="#me9d46cb1c6" y="187.967129"/>
     <use style="fill:#008000;stroke:#008000;stroke-linejoin:bevel;" x="310.341658" xlink:href="#me9d46cb1c6" y="182.593992"/>
     <use style="fill:#008000;stroke:#008000;stroke-linejoin:bevel;" x="312.903642" xlink:href="#me9d46cb1c6" y="168.075838"/>
     <use style="fill:#008000;stroke:#008000;stroke-linejoin:bevel;" x="315.465625" xlink:href="#me9d46cb1c6" y="101.628483"/>
     <use style="fill:#008000;stroke:#008000;stroke-linejoin:bevel;" x="318.027608" xlink:href="#me9d46cb1c6" y="68.761162"/>
     <use style="fill:#008000;stroke:#008000;stroke-linejoin:bevel;" x="320.589592" xlink:href="#me9d46cb1c6" y="174.69088"/>
     <use style="fill:#008000;stroke:#008000;stroke-linejoin:bevel;" x="323.151575" xlink:href="#me9d46cb1c6" y="192.004776"/>
     <use style="fill:#008000;stroke:#008000;stroke-linejoin:bevel;" x="325.713559" xlink:href="#me9d46cb1c6" y="199.135741"/>
     <use style="fill:#008000;stroke:#008000;stroke-linejoin:bevel;" x="328.275542" xlink:href="#me9d46cb1c6" y="203.069424"/>
     <use style="fill:#008000;stroke:#008000;stroke-linejoin:bevel;" x="330.837526" xlink:href="#me9d46cb1c6" y="205.607876"/>
     <use style="fill:#008000;stroke:#008000;stroke-linejoin:bevel;" x="333.399509" xlink:href="#me9d46cb1c6" y="206.707789"/>
     <use style="fill:#008000;stroke:#008000;stroke-linejoin:bevel;" x="335.961493" xlink:href="#me9d46cb1c6" y="208.301654"/>
     <use style="fill:#008000;stroke:#008000;stroke-linejoin:bevel;" x="338.523476" xlink:href="#me9d46cb1c6" y="207.512361"/>
     <use style="fill:#008000;stroke:#008000;stroke-linejoin:bevel;" x="341.08546" xlink:href="#me9d46cb1c6" y="210.356461"/>
     <use style="fill:#008000;stroke:#008000;stroke-linejoin:bevel;" x="343.647443" xlink:href="#me9d46cb1c6" y="209.763314"/>
     <use style="fill:#008000;stroke:#008000;stroke-linejoin:bevel;" x="346.209427" xlink:href="#me9d46cb1c6" y="210.5666"/>
     <use style="fill:#008000;stroke:#008000;stroke-linejoin:bevel;" x="348.77141" xlink:href="#me9d46cb1c6" y="210.57276"/>
     <use style="fill:#008000;stroke:#008000;stroke-linejoin:bevel;" x="351.333394" xlink:href="#me9d46cb1c6" y="211.5024"/>
     <use style="fill:#008000;stroke:#008000;stroke-linejoin:bevel;" x="353.895377" xlink:href="#me9d46cb1c6" y="211.511266"/>
     <use style="fill:#008000;stroke:#008000;stroke-linejoin:bevel;" x="356.457361" xlink:href="#me9d46cb1c6" y="211.303555"/>
     <use style="fill:#008000;stroke:#008000;stroke-linejoin:bevel;" x="359.019344" xlink:href="#me9d46cb1c6" y="211.405258"/>
     <use style="fill:#008000;stroke:#008000;stroke-linejoin:bevel;" x="361.581327" xlink:href="#me9d46cb1c6" y="210.911642"/>
     <use style="fill:#008000;stroke:#008000;stroke-linejoin:bevel;" x="364.143311" xlink:href="#me9d46cb1c6" y="211.02001"/>
     <use style="fill:#008000;stroke:#008000;stroke-linejoin:bevel;" x="366.705294" xlink:href="#me9d46cb1c6" y="212.326195"/>
     <use style="fill:#008000;stroke:#008000;stroke-linejoin:bevel;" x="369.267278" xlink:href="#me9d46cb1c6" y="212.405732"/>
     <use style="fill:#008000;stroke:#008000;stroke-linejoin:bevel;" x="371.829261" xlink:href="#me9d46cb1c6" y="212.072271"/>
     <use style="fill:#008000;stroke:#008000;stroke-linejoin:bevel;" x="374.391245" xlink:href="#me9d46cb1c6" y="213.030549"/>
     <use style="fill:#008000;stroke:#008000;stroke-linejoin:bevel;" x="376.953228" xlink:href="#me9d46cb1c6" y="212.785114"/>
     <use style="fill:#008000;stroke:#008000;stroke-linejoin:bevel;" x="379.515212" xlink:href="#me9d46cb1c6" y="212.464948"/>
     <use style="fill:#008000;stroke:#008000;stroke-linejoin:bevel;" x="382.077195" xlink:href="#me9d46cb1c6" y="213.213248"/>
     <use style="fill:#008000;stroke:#008000;stroke-linejoin:bevel;" x="384.639179" xlink:href="#me9d46cb1c6" y="213.357172"/>
     <use style="fill:#008000;stroke:#008000;stroke-linejoin:bevel;" x="387.201162" xlink:href="#me9d46cb1c6" y="211.127746"/>
     <use style="fill:#008000;stroke:#008000;stroke-linejoin:bevel;" x="389.763146" xlink:href="#me9d46cb1c6" y="213.678714"/>
     <use style="fill:#008000;stroke:#008000;stroke-linejoin:bevel;" x="392.325129" xlink:href="#me9d46cb1c6" y="212.958136"/>
     <use style="fill:#008000;stroke:#008000;stroke-linejoin:bevel;" x="394.887113" xlink:href="#me9d46cb1c6" y="212.844469"/>
     <use style="fill:#008000;stroke:#008000;stroke-linejoin:bevel;" x="397.449096" xlink:href="#me9d46cb1c6" y="213.474049"/>
     <use style="fill:#008000;stroke:#008000;stroke-linejoin:bevel;" x="400.01108" xlink:href="#me9d46cb1c6" y="213.352382"/>
     <use style="fill:#008000;stroke:#008000;stroke-linejoin:bevel;" x="402.573063" xlink:href="#me9d46cb1c6" y="213.147538"/>
     <use style="fill:#008000;stroke:#008000;stroke-linejoin:bevel;" x="405.135046" xlink:href="#me9d46cb1c6" y="213.973001"/>
     <use style="fill:#008000;stroke:#008000;stroke-linejoin:bevel;" x="407.69703" xlink:href="#me9d46cb1c6" y="213.331797"/>
     <use style="fill:#008000;stroke:#008000;stroke-linejoin:bevel;" x="410.259013" xlink:href="#me9d46cb1c6" y="211.604204"/>
     <use style="fill:#008000;stroke:#008000;stroke-linejoin:bevel;" x="412.820997" xlink:href="#me9d46cb1c6" y="214.189499"/>
     <use style="fill:#008000;stroke:#008000;stroke-linejoin:bevel;" x="415.38298" xlink:href="#me9d46cb1c6" y="213.486797"/>
     <use style="fill:#008000;stroke:#008000;stroke-linejoin:bevel;" x="417.944964" xlink:href="#me9d46cb1c6" y="213.277792"/>
     <use style="fill:#008000;stroke:#008000;stroke-linejoin:bevel;" x="420.506947" xlink:href="#me9d46cb1c6" y="213.791636"/>
     <use style="fill:#008000;stroke:#008000;stroke-linejoin:bevel;" x="423.068931" xlink:href="#me9d46cb1c6" y="213.638362"/>
     <use style="fill:#008000;stroke:#008000;stroke-linejoin:bevel;" x="425.630914" xlink:href="#me9d46cb1c6" y="213.402663"/>
     <use style="fill:#008000;stroke:#008000;stroke-linejoin:bevel;" x="428.192898" xlink:href="#me9d46cb1c6" y="213.5866"/>
     <use style="fill:#008000;stroke:#008000;stroke-linejoin:bevel;" x="430.754881" xlink:href="#me9d46cb1c6" y="212.851329"/>
     <use style="fill:#008000;stroke:#008000;stroke-linejoin:bevel;" x="433.316865" xlink:href="#me9d46cb1c6" y="212.146192"/>
     <use style="fill:#008000;stroke:#008000;stroke-linejoin:bevel;" x="435.878848" xlink:href="#me9d46cb1c6" y="213.496586"/>
     <use style="fill:#008000;stroke:#008000;stroke-linejoin:bevel;" x="438.440832" xlink:href="#me9d46cb1c6" y="213.367693"/>
     <use style="fill:#008000;stroke:#008000;stroke-linejoin:bevel;" x="441.002815" xlink:href="#me9d46cb1c6" y="213.676429"/>
     <use style="fill:#008000;stroke:#008000;stroke-linejoin:bevel;" x="443.564799" xlink:href="#me9d46cb1c6" y="213.835721"/>
     <use style="fill:#008000;stroke:#008000;stroke-linejoin:bevel;" x="446.126782" xlink:href="#me9d46cb1c6" y="213.541234"/>
     <use style="fill:#008000;stroke:#008000;stroke-linejoin:bevel;" x="448.688765" xlink:href="#me9d46cb1c6" y="213.514241"/>
     <use style="fill:#008000;stroke:#008000;stroke-linejoin:bevel;" x="451.250749" xlink:href="#me9d46cb1c6" y="213.72671"/>
     <use style="fill:#008000;stroke:#008000;stroke-linejoin:bevel;" x="453.812732" xlink:href="#me9d46cb1c6" y="213.42323"/>
     <use style="fill:#008000;stroke:#008000;stroke-linejoin:bevel;" x="456.374716" xlink:href="#me9d46cb1c6" y="214.163792"/>
     <use style="fill:#008000;stroke:#008000;stroke-linejoin:bevel;" x="458.936699" xlink:href="#me9d46cb1c6" y="213.335569"/>
     <use style="fill:#008000;stroke:#008000;stroke-linejoin:bevel;" x="461.498683" xlink:href="#me9d46cb1c6" y="214.069516"/>
     <use style="fill:#008000;stroke:#008000;stroke-linejoin:bevel;" x="464.060666" xlink:href="#me9d46cb1c6" y="213.825496"/>
     <use style="fill:#008000;stroke:#008000;stroke-linejoin:bevel;" x="466.62265" xlink:href="#me9d46cb1c6" y="214.470881"/>
     <use style="fill:#008000;stroke:#008000;stroke-linejoin:bevel;" x="469.184633" xlink:href="#me9d46cb1c6" y="213.956649"/>
     <use style="fill:#008000;stroke:#008000;stroke-linejoin:bevel;" x="471.746617" xlink:href="#me9d46cb1c6" y="213.849516"/>
     <use style="fill:#008000;stroke:#008000;stroke-linejoin:bevel;" x="474.3086" xlink:href="#me9d46cb1c6" y="214.130848"/>
     <use style="fill:#008000;stroke:#008000;stroke-linejoin:bevel;" x="476.870584" xlink:href="#me9d46cb1c6" y="214.00017"/>
     <use style="fill:#008000;stroke:#008000;stroke-linejoin:bevel;" x="479.432567" xlink:href="#me9d46cb1c6" y="212.113246"/>
     <use style="fill:#008000;stroke:#008000;stroke-linejoin:bevel;" x="481.994551" xlink:href="#me9d46cb1c6" y="214.365673"/>
     <use style="fill:#008000;stroke:#008000;stroke-linejoin:bevel;" x="484.556534" xlink:href="#me9d46cb1c6" y="214.038629"/>
     <use style="fill:#008000;stroke:#008000;stroke-linejoin:bevel;" x="487.118518" xlink:href="#me9d46cb1c6" y="214.238636"/>
     <use style="fill:#008000;stroke:#008000;stroke-linejoin:bevel;" x="489.680501" xlink:href="#me9d46cb1c6" y="214.073953"/>
     <use style="fill:#008000;stroke:#008000;stroke-linejoin:bevel;" x="492.242485" xlink:href="#me9d46cb1c6" y="214.283785"/>
     <use style="fill:#008000;stroke:#008000;stroke-linejoin:bevel;" x="494.804468" xlink:href="#me9d46cb1c6" y="213.962982"/>
     <use style="fill:#008000;stroke:#008000;stroke-linejoin:bevel;" x="497.366451" xlink:href="#me9d46cb1c6" y="213.845735"/>
     <use style="fill:#008000;stroke:#008000;stroke-linejoin:bevel;" x="499.928435" xlink:href="#me9d46cb1c6" y="213.421615"/>
     <use style="fill:#008000;stroke:#008000;stroke-linejoin:bevel;" x="502.490418" xlink:href="#me9d46cb1c6" y="213.383926"/>
     <use style="fill:#008000;stroke:#008000;stroke-linejoin:bevel;" x="505.052402" xlink:href="#me9d46cb1c6" y="214.454698"/>
     <use style="fill:#008000;stroke:#008000;stroke-linejoin:bevel;" x="507.614385" xlink:href="#me9d46cb1c6" y="214.31845"/>
     <use style="fill:#008000;stroke:#008000;stroke-linejoin:bevel;" x="510.176369" xlink:href="#me9d46cb1c6" y="214.353214"/>
     <use style="fill:#008000;stroke:#008000;stroke-linejoin:bevel;" x="512.738352" xlink:href="#me9d46cb1c6" y="213.850326"/>
     <use style="fill:#008000;stroke:#008000;stroke-linejoin:bevel;" x="515.300336" xlink:href="#me9d46cb1c6" y="213.758045"/>
     <use style="fill:#008000;stroke:#008000;stroke-linejoin:bevel;" x="517.862319" xlink:href="#me9d46cb1c6" y="214.239019"/>
     <use style="fill:#008000;stroke:#008000;stroke-linejoin:bevel;" x="520.424303" xlink:href="#me9d46cb1c6" y="213.344742"/>
     <use style="fill:#008000;stroke:#008000;stroke-linejoin:bevel;" x="522.986286" xlink:href="#me9d46cb1c6" y="212.671166"/>
     <use style="fill:#008000;stroke:#008000;stroke-linejoin:bevel;" x="525.54827" xlink:href="#me9d46cb1c6" y="213.17197"/>
     <use style="fill:#008000;stroke:#008000;stroke-linejoin:bevel;" x="528.110253" xlink:href="#me9d46cb1c6" y="210.307418"/>
     <use style="fill:#008000;stroke:#008000;stroke-linejoin:bevel;" x="530.672237" xlink:href="#me9d46cb1c6" y="213.732516"/>
     <use style="fill:#008000;stroke:#008000;stroke-linejoin:bevel;" x="533.23422" xlink:href="#me9d46cb1c6" y="214.44404"/>
     <use style="fill:#008000;stroke:#008000;stroke-linejoin:bevel;" x="535.796204" xlink:href="#me9d46cb1c6" y="214.556532"/>
     <use style="fill:#008000;stroke:#008000;stroke-linejoin:bevel;" x="538.358187" xlink:href="#me9d46cb1c6" y="214.412503"/>
     <use style="fill:#008000;stroke:#008000;stroke-linejoin:bevel;" x="540.92017" xlink:href="#me9d46cb1c6" y="214.320089"/>
     <use style="fill:#008000;stroke:#008000;stroke-linejoin:bevel;" x="543.482154" xlink:href="#me9d46cb1c6" y="214.475703"/>
     <use style="fill:#008000;stroke:#008000;stroke-linejoin:bevel;" x="546.044137" xlink:href="#me9d46cb1c6" y="214.338901"/>
     <use style="fill:#008000;stroke:#008000;stroke-linejoin:bevel;" x="548.606121" xlink:href="#me9d46cb1c6" y="212.082494"/>
     <use style="fill:#008000;stroke:#008000;stroke-linejoin:bevel;" x="551.168104" xlink:href="#me9d46cb1c6" y="205.68817"/>
     <use style="fill:#008000;stroke:#008000;stroke-linejoin:bevel;" x="553.730088" xlink:href="#me9d46cb1c6" y="214.075196"/>
     <use style="fill:#008000;stroke:#008000;stroke-linejoin:bevel;" x="556.292071" xlink:href="#me9d46cb1c6" y="214.57202"/>
     <use style="fill:#008000;stroke:#008000;stroke-linejoin:bevel;" x="558.854055" xlink:href="#me9d46cb1c6" y="214.200836"/>
     <use style="fill:#008000;stroke:#008000;stroke-linejoin:bevel;" x="561.416038" xlink:href="#me9d46cb1c6" y="214.235208"/>
     <use style="fill:#008000;stroke:#008000;stroke-linejoin:bevel;" x="563.978022" xlink:href="#me9d46cb1c6" y="214.549803"/>
     <use style="fill:#008000;stroke:#008000;stroke-linejoin:bevel;" x="566.540005" xlink:href="#me9d46cb1c6" y="214.365521"/>
     <use style="fill:#008000;stroke:#008000;stroke-linejoin:bevel;" x="569.101989" xlink:href="#me9d46cb1c6" y="214.276771"/>
    </g>
   </g>
   <g id="line2d_16">
    <path clip-path="url(#p85e8aecc9f)" d="M 61.829261 209.594951 
L 64.391245 211.809443 
L 66.953228 212.034341 
L 69.515212 212.909915 
L 74.639179 212.691137 
L 77.201162 212.885538 
L 79.763146 213.701073 
L 82.325129 210.819922 
L 84.887113 213.547545 
L 87.449096 213.666478 
L 90.01108 213.400964 
L 92.573063 214.283041 
L 97.69703 213.694477 
L 100.259013 214.128628 
L 102.820997 214.706794 
L 105.38298 210.011448 
L 107.944964 210.017513 
L 110.506947 212.353314 
L 115.630914 213.368785 
L 118.192898 213.611847 
L 120.754881 213.562577 
L 123.316865 213.96769 
L 125.878848 213.528983 
L 128.440832 213.283199 
L 131.002815 208.194602 
L 133.564799 212.269912 
L 136.126782 213.087938 
L 138.688765 213.171895 
L 141.250749 213.109456 
L 143.812732 213.59432 
L 146.374716 213.493302 
L 148.936699 213.276639 
L 151.498683 213.679849 
L 154.060666 211.015611 
L 156.62265 212.529696 
L 159.184633 213.148735 
L 164.3086 212.893746 
L 166.870584 213.51019 
L 169.432567 213.399119 
L 171.994551 212.951389 
L 174.556534 213.545876 
L 177.118518 213.647886 
L 179.680501 212.217223 
L 182.242485 212.844137 
L 184.804468 213.033374 
L 187.366451 212.595821 
L 189.928435 213.331624 
L 192.490418 212.852518 
L 197.614385 213.884623 
L 200.176369 212.938926 
L 202.738352 211.804064 
L 205.300336 212.468841 
L 207.862319 212.492253 
L 210.424303 212.170324 
L 212.986286 212.607519 
L 215.54827 212.587389 
L 218.110253 212.000015 
L 220.672237 212.461491 
L 223.23422 211.398865 
L 225.796204 211.64434 
L 228.358187 212.353433 
L 230.92017 211.825033 
L 233.482154 211.57939 
L 236.044137 211.824532 
L 238.606121 211.33947 
L 241.168104 211.125535 
L 243.730088 211.499138 
L 246.292071 210.74365 
L 248.854055 210.55484 
L 251.416038 211.298647 
L 253.978022 210.816425 
L 256.540005 210.20421 
L 259.101989 210.557956 
L 261.663972 209.867221 
L 264.225956 209.92764 
L 266.787939 209.622844 
L 269.349923 211.983545 
L 271.911906 206.333595 
L 274.473889 206.445785 
L 279.597856 202.856689 
L 282.15984 200.508055 
L 284.721823 195.611951 
L 287.283807 186.408175 
L 289.84579 165.181061 
L 292.407774 17.083636 
L 294.969757 99.869219 
L 297.531741 166.648984 
L 300.093724 181.828898 
L 302.655708 187.832866 
L 305.217691 188.735855 
L 307.779675 187.967129 
L 310.341658 182.593992 
L 312.903642 168.075838 
L 315.465625 101.628483 
L 318.027608 68.761162 
L 320.589592 174.69088 
L 323.151575 192.004776 
L 325.713559 199.135741 
L 328.275542 203.069424 
L 330.837526 205.607876 
L 333.399509 206.707789 
L 335.961493 208.301654 
L 338.523476 207.512361 
L 341.08546 210.356461 
L 343.647443 209.763314 
L 346.209427 210.5666 
L 348.77141 210.57276 
L 351.333394 211.5024 
L 353.895377 211.511266 
L 356.457361 211.303555 
L 359.019344 211.405258 
L 361.581327 210.911642 
L 364.143311 211.02001 
L 366.705294 212.326195 
L 369.267278 212.405732 
L 371.829261 212.072271 
L 374.391245 213.030549 
L 379.515212 212.464948 
L 382.077195 213.213248 
L 384.639179 213.357172 
L 387.201162 211.127746 
L 389.763146 213.678714 
L 392.325129 212.958136 
L 394.887113 212.844469 
L 397.449096 213.474049 
L 402.573063 213.147538 
L 405.135046 213.973001 
L 407.69703 213.331797 
L 410.259013 211.604204 
L 412.820997 214.189499 
L 415.38298 213.486797 
L 417.944964 213.277792 
L 420.506947 213.791636 
L 425.630914 213.402663 
L 428.192898 213.5866 
L 433.316865 212.146192 
L 435.878848 213.496586 
L 438.440832 213.367693 
L 441.002815 213.676429 
L 443.564799 213.835721 
L 446.126782 213.541234 
L 448.688765 213.514241 
L 451.250749 213.72671 
L 453.812732 213.42323 
L 456.374716 214.163792 
L 458.936699 213.335569 
L 461.498683 214.069516 
L 464.060666 213.825496 
L 466.62265 214.470881 
L 469.184633 213.956649 
L 471.746617 213.849516 
L 474.3086 214.130848 
L 476.870584 214.00017 
L 479.432567 212.113246 
L 481.994551 214.365673 
L 484.556534 214.038629 
L 487.118518 214.238636 
L 489.680501 214.073953 
L 492.242485 214.283785 
L 494.804468 213.962982 
L 497.366451 213.845735 
L 499.928435 213.421615 
L 502.490418 213.383926 
L 505.052402 214.454698 
L 507.614385 214.31845 
L 510.176369 214.353214 
L 512.738352 213.850326 
L 515.300336 213.758045 
L 517.862319 214.239019 
L 520.424303 213.344742 
L 522.986286 212.671166 
L 525.54827 213.17197 
L 528.110253 210.307418 
L 530.672237 213.732516 
L 533.23422 214.44404 
L 535.796204 214.556532 
L 540.92017 214.320089 
L 543.482154 214.475703 
L 546.044137 214.338901 
L 548.606121 212.082494 
L 551.168104 205.68817 
L 553.730088 214.075196 
L 556.292071 214.57202 
L 558.854055 214.200836 
L 561.416038 214.235208 
L 563.978022 214.549803 
L 569.101989 214.276771 
L 569.101989 214.276771 
" style="fill:none;stroke:#008000;stroke-linecap:square;stroke-width:1.5;"/>
   </g>
   <g id="line2d_17">
    <path clip-path="url(#p85e8aecc9f)" d="M 61.829261 214.751466 
L 197.614385 214.608711 
L 230.92017 214.400825 
L 248.854055 214.079529 
L 259.101989 213.659761 
L 264.225956 213.282722 
L 269.349923 212.661596 
L 271.911906 212.184387 
L 274.473889 211.513346 
L 277.035873 210.522626 
L 279.597856 208.963092 
L 282.15984 206.283595 
L 284.721823 201.065488 
L 287.283807 188.784263 
L 289.84579 150.172177 
L 292.407774 20.645379 
L 294.969757 93.526834 
L 297.531741 172.754484 
L 300.093724 193.490043 
L 302.655708 200.039959 
L 305.217691 201.456963 
L 307.779675 199.279037 
L 310.341658 191.516663 
L 312.903642 168.481576 
L 315.465625 96.67397 
L 318.027608 74.151008 
L 320.589592 159.563305 
L 323.151575 190.276956 
L 325.713559 201.312839 
L 328.275542 206.272818 
L 330.837526 208.89645 
L 333.399509 210.450092 
L 335.961493 211.44768 
L 338.523476 212.128016 
L 341.08546 212.614 
L 346.209427 213.248907 
L 351.333394 213.635288 
L 359.019344 213.984952 
L 371.829261 214.289842 
L 392.325129 214.507233 
L 433.316865 214.66064 
L 533.23422 214.746541 
L 569.101989 214.756364 
L 569.101989 214.756364 
" style="fill:none;stroke:#ff0000;stroke-linecap:square;stroke-width:1.5;"/>
   </g>
   <g id="patch_3">
    <path d="M 36.465625 224.64 
L 36.465625 7.2 
" style="fill:none;stroke:#000000;stroke-linecap:square;stroke-linejoin:miter;stroke-width:0.8;"/>
   </g>
   <g id="patch_4">
    <path d="M 594.465625 224.64 
L 594.465625 7.2 
" style="fill:none;stroke:#000000;stroke-linecap:square;stroke-linejoin:miter;stroke-width:0.8;"/>
   </g>
   <g id="patch_5">
    <path d="M 36.465625 224.64 
L 594.465625 224.64 
" style="fill:none;stroke:#000000;stroke-linecap:square;stroke-linejoin:miter;stroke-width:0.8;"/>
   </g>
   <g id="patch_6">
    <path d="M 36.465625 7.2 
L 594.465625 7.2 
" style="fill:none;stroke:#000000;stroke-linecap:square;stroke-linejoin:miter;stroke-width:0.8;"/>
   </g>
   <g id="legend_1">
    <g id="patch_7">
     <path d="M 469.95625 44.55625 
L 587.465625 44.55625 
Q 589.465625 44.55625 589.465625 42.55625 
L 589.465625 14.2 
Q 589.465625 12.2 587.465625 12.2 
L 469.95625 12.2 
Q 467.95625 12.2 467.95625 14.2 
L 467.95625 42.55625 
Q 467.95625 44.55625 469.95625 44.55625 
z
" style="fill:#ffffff;opacity:0.8;stroke:#cccccc;stroke-linejoin:miter;"/>
    </g>
    <g id="line2d_18">
     <path d="M 471.95625 20.298437 
L 491.95625 20.298437 
" style="fill:none;stroke:#008000;stroke-linecap:square;stroke-width:1.5;"/>
    </g>
    <g id="line2d_19"/>
    <g id="text_15">
     <!-- Original Data -->
     <g transform="translate(499.95625 23.798437)scale(0.1 -0.1)">
      <defs>
       <path d="M 39.40625 66.21875 
Q 28.65625 66.21875 22.328125 58.203125 
Q 16.015625 50.203125 16.015625 36.375 
Q 16.015625 22.609375 22.328125 14.59375 
Q 28.65625 6.59375 39.40625 6.59375 
Q 50.140625 6.59375 56.421875 14.59375 
Q 62.703125 22.609375 62.703125 36.375 
Q 62.703125 50.203125 56.421875 58.203125 
Q 50.140625 66.21875 39.40625 66.21875 
z
M 39.40625 74.21875 
Q 54.734375 74.21875 63.90625 63.9375 
Q 73.09375 53.65625 73.09375 36.375 
Q 73.09375 19.140625 63.90625 8.859375 
Q 54.734375 -1.421875 39.40625 -1.421875 
Q 24.03125 -1.421875 14.8125 8.828125 
Q 5.609375 19.09375 5.609375 36.375 
Q 5.609375 53.65625 14.8125 63.9375 
Q 24.03125 74.21875 39.40625 74.21875 
z
" id="DejaVuSans-79"/>
       <path d="M 41.109375 46.296875 
Q 39.59375 47.171875 37.8125 47.578125 
Q 36.03125 48 33.890625 48 
Q 26.265625 48 22.1875 43.046875 
Q 18.109375 38.09375 18.109375 28.8125 
L 18.109375 0 
L 9.078125 0 
L 9.078125 54.6875 
L 18.109375 54.6875 
L 18.109375 46.1875 
Q 20.953125 51.171875 25.484375 53.578125 
Q 30.03125 56 36.53125 56 
Q 37.453125 56 38.578125 55.875 
Q 39.703125 55.765625 41.0625 55.515625 
z
" id="DejaVuSans-114"/>
       <path d="M 9.421875 54.6875 
L 18.40625 54.6875 
L 18.40625 0 
L 9.421875 0 
z
M 9.421875 75.984375 
L 18.40625 75.984375 
L 18.40625 64.59375 
L 9.421875 64.59375 
z
" id="DejaVuSans-105"/>
       <path d="M 45.40625 27.984375 
Q 45.40625 37.75 41.375 43.109375 
Q 37.359375 48.484375 30.078125 48.484375 
Q 22.859375 48.484375 18.828125 43.109375 
Q 14.796875 37.75 14.796875 27.984375 
Q 14.796875 18.265625 18.828125 12.890625 
Q 22.859375 7.515625 30.078125 7.515625 
Q 37.359375 7.515625 41.375 12.890625 
Q 45.40625 18.265625 45.40625 27.984375 
z
M 54.390625 6.78125 
Q 54.390625 -7.171875 48.1875 -13.984375 
Q 42 -20.796875 29.203125 -20.796875 
Q 24.46875 -20.796875 20.265625 -20.09375 
Q 16.0625 -19.390625 12.109375 -17.921875 
L 12.109375 -9.1875 
Q 16.0625 -11.328125 19.921875 -12.34375 
Q 23.78125 -13.375 27.78125 -13.375 
Q 36.625 -13.375 41.015625 -8.765625 
Q 45.40625 -4.15625 45.40625 5.171875 
L 45.40625 9.625 
Q 42.625 4.78125 38.28125 2.390625 
Q 33.9375 0 27.875 0 
Q 17.828125 0 11.671875 7.65625 
Q 5.515625 15.328125 5.515625 27.984375 
Q 5.515625 40.671875 11.671875 48.328125 
Q 17.828125 56 27.875 56 
Q 33.9375 56 38.28125 53.609375 
Q 42.625 51.21875 45.40625 46.390625 
L 45.40625 54.6875 
L 54.390625 54.6875 
z
" id="DejaVuSans-103"/>
       <path d="M 54.890625 33.015625 
L 54.890625 0 
L 45.90625 0 
L 45.90625 32.71875 
Q 45.90625 40.484375 42.875 44.328125 
Q 39.84375 48.1875 33.796875 48.1875 
Q 26.515625 48.1875 22.3125 43.546875 
Q 18.109375 38.921875 18.109375 30.90625 
L 18.109375 0 
L 9.078125 0 
L 9.078125 54.6875 
L 18.109375 54.6875 
L 18.109375 46.1875 
Q 21.34375 51.125 25.703125 53.5625 
Q 30.078125 56 35.796875 56 
Q 45.21875 56 50.046875 50.171875 
Q 54.890625 44.34375 54.890625 33.015625 
z
" id="DejaVuSans-110"/>
       <path d="M 34.28125 27.484375 
Q 23.390625 27.484375 19.1875 25 
Q 14.984375 22.515625 14.984375 16.5 
Q 14.984375 11.71875 18.140625 8.90625 
Q 21.296875 6.109375 26.703125 6.109375 
Q 34.1875 6.109375 38.703125 11.40625 
Q 43.21875 16.703125 43.21875 25.484375 
L 43.21875 27.484375 
z
M 52.203125 31.203125 
L 52.203125 0 
L 43.21875 0 
L 43.21875 8.296875 
Q 40.140625 3.328125 35.546875 0.953125 
Q 30.953125 -1.421875 24.3125 -1.421875 
Q 15.921875 -1.421875 10.953125 3.296875 
Q 6 8.015625 6 15.921875 
Q 6 25.140625 12.171875 29.828125 
Q 18.359375 34.515625 30.609375 34.515625 
L 43.21875 34.515625 
L 43.21875 35.40625 
Q 43.21875 41.609375 39.140625 45 
Q 35.0625 48.390625 27.6875 48.390625 
Q 23 48.390625 18.546875 47.265625 
Q 14.109375 46.140625 10.015625 43.890625 
L 10.015625 52.203125 
Q 14.9375 54.109375 19.578125 55.046875 
Q 24.21875 56 28.609375 56 
Q 40.484375 56 46.34375 49.84375 
Q 52.203125 43.703125 52.203125 31.203125 
z
" id="DejaVuSans-97"/>
       <path d="M 9.421875 75.984375 
L 18.40625 75.984375 
L 18.40625 0 
L 9.421875 0 
z
" id="DejaVuSans-108"/>
       <path id="DejaVuSans-32"/>
       <path d="M 19.671875 64.796875 
L 19.671875 8.109375 
L 31.59375 8.109375 
Q 46.6875 8.109375 53.6875 14.9375 
Q 60.6875 21.78125 60.6875 36.53125 
Q 60.6875 51.171875 53.6875 57.984375 
Q 46.6875 64.796875 31.59375 64.796875 
z
M 9.8125 72.90625 
L 30.078125 72.90625 
Q 51.265625 72.90625 61.171875 64.09375 
Q 71.09375 55.28125 71.09375 36.53125 
Q 71.09375 17.671875 61.125 8.828125 
Q 51.171875 0 30.078125 0 
L 9.8125 0 
z
" id="DejaVuSans-68"/>
       <path d="M 18.3125 70.21875 
L 18.3125 54.6875 
L 36.8125 54.6875 
L 36.8125 47.703125 
L 18.3125 47.703125 
L 18.3125 18.015625 
Q 18.3125 11.328125 20.140625 9.421875 
Q 21.96875 7.515625 27.59375 7.515625 
L 36.8125 7.515625 
L 36.8125 0 
L 27.59375 0 
Q 17.1875 0 13.234375 3.875 
Q 9.28125 7.765625 9.28125 18.015625 
L 9.28125 47.703125 
L 2.6875 47.703125 
L 2.6875 54.6875 
L 9.28125 54.6875 
L 9.28125 70.21875 
z
" id="DejaVuSans-116"/>
      </defs>
      <use xlink:href="#DejaVuSans-79"/>
      <use x="78.710938" xlink:href="#DejaVuSans-114"/>
      <use x="119.824219" xlink:href="#DejaVuSans-105"/>
      <use x="147.607422" xlink:href="#DejaVuSans-103"/>
      <use x="211.083984" xlink:href="#DejaVuSans-105"/>
      <use x="238.867188" xlink:href="#DejaVuSans-110"/>
      <use x="302.246094" xlink:href="#DejaVuSans-97"/>
      <use x="363.525391" xlink:href="#DejaVuSans-108"/>
      <use x="391.308594" xlink:href="#DejaVuSans-32"/>
      <use x="423.095703" xlink:href="#DejaVuSans-68"/>
      <use x="500.097656" xlink:href="#DejaVuSans-97"/>
      <use x="561.376953" xlink:href="#DejaVuSans-116"/>
      <use x="600.585938" xlink:href="#DejaVuSans-97"/>
     </g>
    </g>
    <g id="line2d_20">
     <path d="M 471.95625 34.976562 
L 491.95625 34.976562 
" style="fill:none;stroke:#ff0000;stroke-linecap:square;stroke-width:1.5;"/>
    </g>
    <g id="line2d_21"/>
    <g id="text_16">
     <!-- Lorentzian Model -->
     <g transform="translate(499.95625 38.476562)scale(0.1 -0.1)">
      <defs>
       <path d="M 9.8125 72.90625 
L 19.671875 72.90625 
L 19.671875 8.296875 
L 55.171875 8.296875 
L 55.171875 0 
L 9.8125 0 
z
" id="DejaVuSans-76"/>
       <path d="M 30.609375 48.390625 
Q 23.390625 48.390625 19.1875 42.75 
Q 14.984375 37.109375 14.984375 27.296875 
Q 14.984375 17.484375 19.15625 11.84375 
Q 23.34375 6.203125 30.609375 6.203125 
Q 37.796875 6.203125 41.984375 11.859375 
Q 46.1875 17.53125 46.1875 27.296875 
Q 46.1875 37.015625 41.984375 42.703125 
Q 37.796875 48.390625 30.609375 48.390625 
z
M 30.609375 56 
Q 42.328125 56 49.015625 48.375 
Q 55.71875 40.765625 55.71875 27.296875 
Q 55.71875 13.875 49.015625 6.21875 
Q 42.328125 -1.421875 30.609375 -1.421875 
Q 18.84375 -1.421875 12.171875 6.21875 
Q 5.515625 13.875 5.515625 27.296875 
Q 5.515625 40.765625 12.171875 48.375 
Q 18.84375 56 30.609375 56 
z
" id="DejaVuSans-111"/>
       <path d="M 56.203125 29.59375 
L 56.203125 25.203125 
L 14.890625 25.203125 
Q 15.484375 15.921875 20.484375 11.0625 
Q 25.484375 6.203125 34.421875 6.203125 
Q 39.59375 6.203125 44.453125 7.46875 
Q 49.3125 8.734375 54.109375 11.28125 
L 54.109375 2.78125 
Q 49.265625 0.734375 44.1875 -0.34375 
Q 39.109375 -1.421875 33.890625 -1.421875 
Q 20.796875 -1.421875 13.15625 6.1875 
Q 5.515625 13.8125 5.515625 26.8125 
Q 5.515625 40.234375 12.765625 48.109375 
Q 20.015625 56 32.328125 56 
Q 43.359375 56 49.78125 48.890625 
Q 56.203125 41.796875 56.203125 29.59375 
z
M 47.21875 32.234375 
Q 47.125 39.59375 43.09375 43.984375 
Q 39.0625 48.390625 32.421875 48.390625 
Q 24.90625 48.390625 20.390625 44.140625 
Q 15.875 39.890625 15.1875 32.171875 
z
" id="DejaVuSans-101"/>
       <path d="M 5.515625 54.6875 
L 48.1875 54.6875 
L 48.1875 46.484375 
L 14.40625 7.171875 
L 48.1875 7.171875 
L 48.1875 0 
L 4.296875 0 
L 4.296875 8.203125 
L 38.09375 47.515625 
L 5.515625 47.515625 
z
" id="DejaVuSans-122"/>
       <path d="M 9.8125 72.90625 
L 24.515625 72.90625 
L 43.109375 23.296875 
L 61.8125 72.90625 
L 76.515625 72.90625 
L 76.515625 0 
L 66.890625 0 
L 66.890625 64.015625 
L 48.09375 14.015625 
L 38.1875 14.015625 
L 19.390625 64.015625 
L 19.390625 0 
L 9.8125 0 
z
" id="DejaVuSans-77"/>
       <path d="M 45.40625 46.390625 
L 45.40625 75.984375 
L 54.390625 75.984375 
L 54.390625 0 
L 45.40625 0 
L 45.40625 8.203125 
Q 42.578125 3.328125 38.25 0.953125 
Q 33.9375 -1.421875 27.875 -1.421875 
Q 17.96875 -1.421875 11.734375 6.484375 
Q 5.515625 14.40625 5.515625 27.296875 
Q 5.515625 40.1875 11.734375 48.09375 
Q 17.96875 56 27.875 56 
Q 33.9375 56 38.25 53.625 
Q 42.578125 51.265625 45.40625 46.390625 
z
M 14.796875 27.296875 
Q 14.796875 17.390625 18.875 11.75 
Q 22.953125 6.109375 30.078125 6.109375 
Q 37.203125 6.109375 41.296875 11.75 
Q 45.40625 17.390625 45.40625 27.296875 
Q 45.40625 37.203125 41.296875 42.84375 
Q 37.203125 48.484375 30.078125 48.484375 
Q 22.953125 48.484375 18.875 42.84375 
Q 14.796875 37.203125 14.796875 27.296875 
z
" id="DejaVuSans-100"/>
      </defs>
      <use xlink:href="#DejaVuSans-76"/>
      <use x="53.962891" xlink:href="#DejaVuSans-111"/>
      <use x="115.144531" xlink:href="#DejaVuSans-114"/>
      <use x="154.007812" xlink:href="#DejaVuSans-101"/>
      <use x="215.53125" xlink:href="#DejaVuSans-110"/>
      <use x="278.910156" xlink:href="#DejaVuSans-116"/>
      <use x="318.119141" xlink:href="#DejaVuSans-122"/>
      <use x="370.609375" xlink:href="#DejaVuSans-105"/>
      <use x="398.392578" xlink:href="#DejaVuSans-97"/>
      <use x="459.671875" xlink:href="#DejaVuSans-110"/>
      <use x="523.050781" xlink:href="#DejaVuSans-32"/>
      <use x="554.837891" xlink:href="#DejaVuSans-77"/>
      <use x="641.117188" xlink:href="#DejaVuSans-111"/>
      <use x="702.298828" xlink:href="#DejaVuSans-100"/>
      <use x="765.775391" xlink:href="#DejaVuSans-101"/>
      <use x="827.298828" xlink:href="#DejaVuSans-108"/>
     </g>
    </g>
   </g>
  </g>
 </g>
 <defs>
  <clipPath id="p85e8aecc9f">
   <rect height="217.44" width="558" x="36.465625" y="7.2"/>
  </clipPath>
 </defs>
</svg>
