<?xml version="1.0" encoding="utf-8" standalone="no"?>
<!DOCTYPE svg PUBLIC "-//W3C//DTD SVG 1.1//EN"
  "http://www.w3.org/Graphics/SVG/1.1/DTD/svg11.dtd">
<!-- Created with matplotlib (https://matplotlib.org/) -->
<svg height="248.518125pt" version="1.1" viewBox="0 0 601.665625 248.518125" width="601.665625pt" xmlns="http://www.w3.org/2000/svg" xmlns:xlink="http://www.w3.org/1999/xlink">
 <metadata>
  <rdf:RDF xmlns:cc="http://creativecommons.org/ns#" xmlns:dc="http://purl.org/dc/elements/1.1/" xmlns:rdf="http://www.w3.org/1999/02/22-rdf-syntax-ns#">
   <cc:Work>
    <dc:type rdf:resource="http://purl.org/dc/dcmitype/StillImage"/>
    <dc:date>2021-07-05T22:52:49.377082</dc:date>
    <dc:format>image/svg+xml</dc:format>
    <dc:creator>
     <cc:Agent>
      <dc:title>Matplotlib v3.3.4, https://matplotlib.org/</dc:title>
     </cc:Agent>
    </dc:creator>
   </cc:Work>
  </rdf:RDF>
 </metadata>
 <defs>
  <style type="text/css">*{stroke-linecap:butt;stroke-linejoin:round;}</style>
 </defs>
 <g id="figure_1">
  <g id="patch_1">
   <path d="M 0 248.518125 
L 601.665625 248.518125 
L 601.665625 0 
L 0 0 
z
" style="fill:none;"/>
  </g>
  <g id="axes_1">
   <g id="patch_2">
    <path d="M 36.465625 224.64 
L 594.465625 224.64 
L 594.465625 7.2 
L 36.465625 7.2 
z
" style="fill:#ffffff;"/>
   </g>
   <g id="matplotlib.axis_1">
    <g id="xtick_1">
     <g id="line2d_1">
      <defs>
       <path d="M 0 0 
L 0 3.5 
" id="mc0637626be" style="stroke:#000000;stroke-width:0.8;"/>
      </defs>
      <g>
       <use style="stroke:#000000;stroke-width:0.8;" x="59.267278" xlink:href="#mc0637626be" y="224.64"/>
      </g>
     </g>
     <g id="text_1">
      <!-- 0 -->
      <g transform="translate(56.086028 239.238437)scale(0.1 -0.1)">
       <defs>
        <path d="M 31.78125 66.40625 
Q 24.171875 66.40625 20.328125 58.90625 
Q 16.5 51.421875 16.5 36.375 
Q 16.5 21.390625 20.328125 13.890625 
Q 24.171875 6.390625 31.78125 6.390625 
Q 39.453125 6.390625 43.28125 13.890625 
Q 47.125 21.390625 47.125 36.375 
Q 47.125 51.421875 43.28125 58.90625 
Q 39.453125 66.40625 31.78125 66.40625 
z
M 31.78125 74.21875 
Q 44.046875 74.21875 50.515625 64.515625 
Q 56.984375 54.828125 56.984375 36.375 
Q 56.984375 17.96875 50.515625 8.265625 
Q 44.046875 -1.421875 31.78125 -1.421875 
Q 19.53125 -1.421875 13.0625 8.265625 
Q 6.59375 17.96875 6.59375 36.375 
Q 6.59375 54.828125 13.0625 64.515625 
Q 19.53125 74.21875 31.78125 74.21875 
z
" id="DejaVuSans-48"/>
       </defs>
       <use xlink:href="#DejaVuSans-48"/>
      </g>
     </g>
    </g>
    <g id="xtick_2">
     <g id="line2d_2">
      <g>
       <use style="stroke:#000000;stroke-width:0.8;" x="140.817745" xlink:href="#mc0637626be" y="224.64"/>
      </g>
     </g>
     <g id="text_2">
      <!-- 1 -->
      <g transform="translate(137.636495 239.238437)scale(0.1 -0.1)">
       <defs>
        <path d="M 12.40625 8.296875 
L 28.515625 8.296875 
L 28.515625 63.921875 
L 10.984375 60.40625 
L 10.984375 69.390625 
L 28.421875 72.90625 
L 38.28125 72.90625 
L 38.28125 8.296875 
L 54.390625 8.296875 
L 54.390625 0 
L 12.40625 0 
z
" id="DejaVuSans-49"/>
       </defs>
       <use xlink:href="#DejaVuSans-49"/>
      </g>
     </g>
    </g>
    <g id="xtick_3">
     <g id="line2d_3">
      <g>
       <use style="stroke:#000000;stroke-width:0.8;" x="222.368211" xlink:href="#mc0637626be" y="224.64"/>
      </g>
     </g>
     <g id="text_3">
      <!-- 2 -->
      <g transform="translate(219.186961 239.238437)scale(0.1 -0.1)">
       <defs>
        <path d="M 19.1875 8.296875 
L 53.609375 8.296875 
L 53.609375 0 
L 7.328125 0 
L 7.328125 8.296875 
Q 12.9375 14.109375 22.625 23.890625 
Q 32.328125 33.6875 34.8125 36.53125 
Q 39.546875 41.84375 41.421875 45.53125 
Q 43.3125 49.21875 43.3125 52.78125 
Q 43.3125 58.59375 39.234375 62.25 
Q 35.15625 65.921875 28.609375 65.921875 
Q 23.96875 65.921875 18.8125 64.3125 
Q 13.671875 62.703125 7.8125 59.421875 
L 7.8125 69.390625 
Q 13.765625 71.78125 18.9375 73 
Q 24.125 74.21875 28.421875 74.21875 
Q 39.75 74.21875 46.484375 68.546875 
Q 53.21875 62.890625 53.21875 53.421875 
Q 53.21875 48.921875 51.53125 44.890625 
Q 49.859375 40.875 45.40625 35.40625 
Q 44.1875 33.984375 37.640625 27.21875 
Q 31.109375 20.453125 19.1875 8.296875 
z
" id="DejaVuSans-50"/>
       </defs>
       <use xlink:href="#DejaVuSans-50"/>
      </g>
     </g>
    </g>
    <g id="xtick_4">
     <g id="line2d_4">
      <g>
       <use style="stroke:#000000;stroke-width:0.8;" x="303.918678" xlink:href="#mc0637626be" y="224.64"/>
      </g>
     </g>
     <g id="text_4">
      <!-- 3 -->
      <g transform="translate(300.737428 239.238437)scale(0.1 -0.1)">
       <defs>
        <path d="M 40.578125 39.3125 
Q 47.65625 37.796875 51.625 33 
Q 55.609375 28.21875 55.609375 21.1875 
Q 55.609375 10.40625 48.1875 4.484375 
Q 40.765625 -1.421875 27.09375 -1.421875 
Q 22.515625 -1.421875 17.65625 -0.515625 
Q 12.796875 0.390625 7.625 2.203125 
L 7.625 11.71875 
Q 11.71875 9.328125 16.59375 8.109375 
Q 21.484375 6.890625 26.8125 6.890625 
Q 36.078125 6.890625 40.9375 10.546875 
Q 45.796875 14.203125 45.796875 21.1875 
Q 45.796875 27.640625 41.28125 31.265625 
Q 36.765625 34.90625 28.71875 34.90625 
L 20.21875 34.90625 
L 20.21875 43.015625 
L 29.109375 43.015625 
Q 36.375 43.015625 40.234375 45.921875 
Q 44.09375 48.828125 44.09375 54.296875 
Q 44.09375 59.90625 40.109375 62.90625 
Q 36.140625 65.921875 28.71875 65.921875 
Q 24.65625 65.921875 20.015625 65.03125 
Q 15.375 64.15625 9.8125 62.3125 
L 9.8125 71.09375 
Q 15.4375 72.65625 20.34375 73.4375 
Q 25.25 74.21875 29.59375 74.21875 
Q 40.828125 74.21875 47.359375 69.109375 
Q 53.90625 64.015625 53.90625 55.328125 
Q 53.90625 49.265625 50.4375 45.09375 
Q 46.96875 40.921875 40.578125 39.3125 
z
" id="DejaVuSans-51"/>
       </defs>
       <use xlink:href="#DejaVuSans-51"/>
      </g>
     </g>
    </g>
    <g id="xtick_5">
     <g id="line2d_5">
      <g>
       <use style="stroke:#000000;stroke-width:0.8;" x="385.469145" xlink:href="#mc0637626be" y="224.64"/>
      </g>
     </g>
     <g id="text_5">
      <!-- 4 -->
      <g transform="translate(382.287895 239.238437)scale(0.1 -0.1)">
       <defs>
        <path d="M 37.796875 64.3125 
L 12.890625 25.390625 
L 37.796875 25.390625 
z
M 35.203125 72.90625 
L 47.609375 72.90625 
L 47.609375 25.390625 
L 58.015625 25.390625 
L 58.015625 17.1875 
L 47.609375 17.1875 
L 47.609375 0 
L 37.796875 0 
L 37.796875 17.1875 
L 4.890625 17.1875 
L 4.890625 26.703125 
z
" id="DejaVuSans-52"/>
       </defs>
       <use xlink:href="#DejaVuSans-52"/>
      </g>
     </g>
    </g>
    <g id="xtick_6">
     <g id="line2d_6">
      <g>
       <use style="stroke:#000000;stroke-width:0.8;" x="467.019611" xlink:href="#mc0637626be" y="224.64"/>
      </g>
     </g>
     <g id="text_6">
      <!-- 5 -->
      <g transform="translate(463.838361 239.238437)scale(0.1 -0.1)">
       <defs>
        <path d="M 10.796875 72.90625 
L 49.515625 72.90625 
L 49.515625 64.59375 
L 19.828125 64.59375 
L 19.828125 46.734375 
Q 21.96875 47.46875 24.109375 47.828125 
Q 26.265625 48.1875 28.421875 48.1875 
Q 40.625 48.1875 47.75 41.5 
Q 54.890625 34.8125 54.890625 23.390625 
Q 54.890625 11.625 47.5625 5.09375 
Q 40.234375 -1.421875 26.90625 -1.421875 
Q 22.3125 -1.421875 17.546875 -0.640625 
Q 12.796875 0.140625 7.71875 1.703125 
L 7.71875 11.625 
Q 12.109375 9.234375 16.796875 8.0625 
Q 21.484375 6.890625 26.703125 6.890625 
Q 35.15625 6.890625 40.078125 11.328125 
Q 45.015625 15.765625 45.015625 23.390625 
Q 45.015625 31 40.078125 35.4375 
Q 35.15625 39.890625 26.703125 39.890625 
Q 22.75 39.890625 18.8125 39.015625 
Q 14.890625 38.140625 10.796875 36.28125 
z
" id="DejaVuSans-53"/>
       </defs>
       <use xlink:href="#DejaVuSans-53"/>
      </g>
     </g>
    </g>
    <g id="xtick_7">
     <g id="line2d_7">
      <g>
       <use style="stroke:#000000;stroke-width:0.8;" x="548.570078" xlink:href="#mc0637626be" y="224.64"/>
      </g>
     </g>
     <g id="text_7">
      <!-- 6 -->
      <g transform="translate(545.388828 239.238437)scale(0.1 -0.1)">
       <defs>
        <path d="M 33.015625 40.375 
Q 26.375 40.375 22.484375 35.828125 
Q 18.609375 31.296875 18.609375 23.390625 
Q 18.609375 15.53125 22.484375 10.953125 
Q 26.375 6.390625 33.015625 6.390625 
Q 39.65625 6.390625 43.53125 10.953125 
Q 47.40625 15.53125 47.40625 23.390625 
Q 47.40625 31.296875 43.53125 35.828125 
Q 39.65625 40.375 33.015625 40.375 
z
M 52.59375 71.296875 
L 52.59375 62.3125 
Q 48.875 64.0625 45.09375 64.984375 
Q 41.3125 65.921875 37.59375 65.921875 
Q 27.828125 65.921875 22.671875 59.328125 
Q 17.53125 52.734375 16.796875 39.40625 
Q 19.671875 43.65625 24.015625 45.921875 
Q 28.375 48.1875 33.59375 48.1875 
Q 44.578125 48.1875 50.953125 41.515625 
Q 57.328125 34.859375 57.328125 23.390625 
Q 57.328125 12.15625 50.6875 5.359375 
Q 44.046875 -1.421875 33.015625 -1.421875 
Q 20.359375 -1.421875 13.671875 8.265625 
Q 6.984375 17.96875 6.984375 36.375 
Q 6.984375 53.65625 15.1875 63.9375 
Q 23.390625 74.21875 37.203125 74.21875 
Q 40.921875 74.21875 44.703125 73.484375 
Q 48.484375 72.75 52.59375 71.296875 
z
" id="DejaVuSans-54"/>
       </defs>
       <use xlink:href="#DejaVuSans-54"/>
      </g>
     </g>
    </g>
   </g>
   <g id="matplotlib.axis_2">
    <g id="ytick_1">
     <g id="line2d_8">
      <defs>
       <path d="M 0 0 
L -3.5 0 
" id="mce79208bf3" style="stroke:#000000;stroke-width:0.8;"/>
      </defs>
      <g>
       <use style="stroke:#000000;stroke-width:0.8;" x="36.465625" xlink:href="#mce79208bf3" y="214.782401"/>
      </g>
     </g>
     <g id="text_8">
      <!-- 0.00 -->
      <g transform="translate(7.2 218.58162)scale(0.1 -0.1)">
       <defs>
        <path d="M 10.6875 12.40625 
L 21 12.40625 
L 21 0 
L 10.6875 0 
z
" id="DejaVuSans-46"/>
       </defs>
       <use xlink:href="#DejaVuSans-48"/>
       <use x="63.623047" xlink:href="#DejaVuSans-46"/>
       <use x="95.410156" xlink:href="#DejaVuSans-48"/>
       <use x="159.033203" xlink:href="#DejaVuSans-48"/>
      </g>
     </g>
    </g>
    <g id="ytick_2">
     <g id="line2d_9">
      <g>
       <use style="stroke:#000000;stroke-width:0.8;" x="36.465625" xlink:href="#mce79208bf3" y="181.877999"/>
      </g>
     </g>
     <g id="text_9">
      <!-- 0.05 -->
      <g transform="translate(7.2 185.677218)scale(0.1 -0.1)">
       <use xlink:href="#DejaVuSans-48"/>
       <use x="63.623047" xlink:href="#DejaVuSans-46"/>
       <use x="95.410156" xlink:href="#DejaVuSans-48"/>
       <use x="159.033203" xlink:href="#DejaVuSans-53"/>
      </g>
     </g>
    </g>
    <g id="ytick_3">
     <g id="line2d_10">
      <g>
       <use style="stroke:#000000;stroke-width:0.8;" x="36.465625" xlink:href="#mce79208bf3" y="148.973597"/>
      </g>
     </g>
     <g id="text_10">
      <!-- 0.10 -->
      <g transform="translate(7.2 152.772816)scale(0.1 -0.1)">
       <use xlink:href="#DejaVuSans-48"/>
       <use x="63.623047" xlink:href="#DejaVuSans-46"/>
       <use x="95.410156" xlink:href="#DejaVuSans-49"/>
       <use x="159.033203" xlink:href="#DejaVuSans-48"/>
      </g>
     </g>
    </g>
    <g id="ytick_4">
     <g id="line2d_11">
      <g>
       <use style="stroke:#000000;stroke-width:0.8;" x="36.465625" xlink:href="#mce79208bf3" y="116.069195"/>
      </g>
     </g>
     <g id="text_11">
      <!-- 0.15 -->
      <g transform="translate(7.2 119.868414)scale(0.1 -0.1)">
       <use xlink:href="#DejaVuSans-48"/>
       <use x="63.623047" xlink:href="#DejaVuSans-46"/>
       <use x="95.410156" xlink:href="#DejaVuSans-49"/>
       <use x="159.033203" xlink:href="#DejaVuSans-53"/>
      </g>
     </g>
    </g>
    <g id="ytick_5">
     <g id="line2d_12">
      <g>
       <use style="stroke:#000000;stroke-width:0.8;" x="36.465625" xlink:href="#mce79208bf3" y="83.164793"/>
      </g>
     </g>
     <g id="text_12">
      <!-- 0.20 -->
      <g transform="translate(7.2 86.964012)scale(0.1 -0.1)">
       <use xlink:href="#DejaVuSans-48"/>
       <use x="63.623047" xlink:href="#DejaVuSans-46"/>
       <use x="95.410156" xlink:href="#DejaVuSans-50"/>
       <use x="159.033203" xlink:href="#DejaVuSans-48"/>
      </g>
     </g>
    </g>
    <g id="ytick_6">
     <g id="line2d_13">
      <g>
       <use style="stroke:#000000;stroke-width:0.8;" x="36.465625" xlink:href="#mce79208bf3" y="50.260391"/>
      </g>
     </g>
     <g id="text_13">
      <!-- 0.25 -->
      <g transform="translate(7.2 54.05961)scale(0.1 -0.1)">
       <use xlink:href="#DejaVuSans-48"/>
       <use x="63.623047" xlink:href="#DejaVuSans-46"/>
       <use x="95.410156" xlink:href="#DejaVuSans-50"/>
       <use x="159.033203" xlink:href="#DejaVuSans-53"/>
      </g>
     </g>
    </g>
    <g id="ytick_7">
     <g id="line2d_14">
      <g>
       <use style="stroke:#000000;stroke-width:0.8;" x="36.465625" xlink:href="#mce79208bf3" y="17.355989"/>
      </g>
     </g>
     <g id="text_14">
      <!-- 0.30 -->
      <g transform="translate(7.2 21.155208)scale(0.1 -0.1)">
       <use xlink:href="#DejaVuSans-48"/>
       <use x="63.623047" xlink:href="#DejaVuSans-46"/>
       <use x="95.410156" xlink:href="#DejaVuSans-51"/>
       <use x="159.033203" xlink:href="#DejaVuSans-48"/>
      </g>
     </g>
    </g>
   </g>
   <g id="line2d_15">
    <defs>
     <path d="M 0 -2.5 
L -0.561285 -0.772542 
L -2.377641 -0.772542 
L -0.908178 0.295085 
L -1.469463 2.022542 
L -0 0.954915 
L 1.469463 2.022542 
L 0.908178 0.295085 
L 2.377641 -0.772542 
L 0.561285 -0.772542 
z
" id="m381574949e" style="stroke:#008000;stroke-linejoin:bevel;"/>
    </defs>
    <g clip-path="url(#pbc3679cbc3)">
     <use style="fill:#008000;stroke:#008000;stroke-linejoin:bevel;" x="61.829261" xlink:href="#m381574949e" y="212.527546"/>
     <use style="fill:#008000;stroke:#008000;stroke-linejoin:bevel;" x="64.391245" xlink:href="#m381574949e" y="213.968285"/>
     <use style="fill:#008000;stroke:#008000;stroke-linejoin:bevel;" x="66.953228" xlink:href="#m381574949e" y="212.882859"/>
     <use style="fill:#008000;stroke:#008000;stroke-linejoin:bevel;" x="69.515212" xlink:href="#m381574949e" y="214.159407"/>
     <use style="fill:#008000;stroke:#008000;stroke-linejoin:bevel;" x="72.077195" xlink:href="#m381574949e" y="213.623318"/>
     <use style="fill:#008000;stroke:#008000;stroke-linejoin:bevel;" x="74.639179" xlink:href="#m381574949e" y="213.749371"/>
     <use style="fill:#008000;stroke:#008000;stroke-linejoin:bevel;" x="77.201162" xlink:href="#m381574949e" y="214.21803"/>
     <use style="fill:#008000;stroke:#008000;stroke-linejoin:bevel;" x="79.763146" xlink:href="#m381574949e" y="213.84884"/>
     <use style="fill:#008000;stroke:#008000;stroke-linejoin:bevel;" x="82.325129" xlink:href="#m381574949e" y="210.523637"/>
     <use style="fill:#008000;stroke:#008000;stroke-linejoin:bevel;" x="84.887113" xlink:href="#m381574949e" y="212.868518"/>
     <use style="fill:#008000;stroke:#008000;stroke-linejoin:bevel;" x="87.449096" xlink:href="#m381574949e" y="213.716959"/>
     <use style="fill:#008000;stroke:#008000;stroke-linejoin:bevel;" x="90.01108" xlink:href="#m381574949e" y="214.530656"/>
     <use style="fill:#008000;stroke:#008000;stroke-linejoin:bevel;" x="92.573063" xlink:href="#m381574949e" y="213.333356"/>
     <use style="fill:#008000;stroke:#008000;stroke-linejoin:bevel;" x="95.135046" xlink:href="#m381574949e" y="212.98956"/>
     <use style="fill:#008000;stroke:#008000;stroke-linejoin:bevel;" x="97.69703" xlink:href="#m381574949e" y="214.349339"/>
     <use style="fill:#008000;stroke:#008000;stroke-linejoin:bevel;" x="100.259013" xlink:href="#m381574949e" y="212.873836"/>
     <use style="fill:#008000;stroke:#008000;stroke-linejoin:bevel;" x="102.820997" xlink:href="#m381574949e" y="212.870019"/>
     <use style="fill:#008000;stroke:#008000;stroke-linejoin:bevel;" x="105.38298" xlink:href="#m381574949e" y="213.330075"/>
     <use style="fill:#008000;stroke:#008000;stroke-linejoin:bevel;" x="107.944964" xlink:href="#m381574949e" y="214.154605"/>
     <use style="fill:#008000;stroke:#008000;stroke-linejoin:bevel;" x="110.506947" xlink:href="#m381574949e" y="213.702014"/>
     <use style="fill:#008000;stroke:#008000;stroke-linejoin:bevel;" x="113.068931" xlink:href="#m381574949e" y="213.529981"/>
     <use style="fill:#008000;stroke:#008000;stroke-linejoin:bevel;" x="115.630914" xlink:href="#m381574949e" y="214.28588"/>
     <use style="fill:#008000;stroke:#008000;stroke-linejoin:bevel;" x="118.192898" xlink:href="#m381574949e" y="213.54711"/>
     <use style="fill:#008000;stroke:#008000;stroke-linejoin:bevel;" x="120.754881" xlink:href="#m381574949e" y="214.319413"/>
     <use style="fill:#008000;stroke:#008000;stroke-linejoin:bevel;" x="123.316865" xlink:href="#m381574949e" y="213.275938"/>
     <use style="fill:#008000;stroke:#008000;stroke-linejoin:bevel;" x="125.878848" xlink:href="#m381574949e" y="213.761573"/>
     <use style="fill:#008000;stroke:#008000;stroke-linejoin:bevel;" x="128.440832" xlink:href="#m381574949e" y="213.885331"/>
     <use style="fill:#008000;stroke:#008000;stroke-linejoin:bevel;" x="131.002815" xlink:href="#m381574949e" y="211.086518"/>
     <use style="fill:#008000;stroke:#008000;stroke-linejoin:bevel;" x="133.564799" xlink:href="#m381574949e" y="214.08361"/>
     <use style="fill:#008000;stroke:#008000;stroke-linejoin:bevel;" x="136.126782" xlink:href="#m381574949e" y="214.545509"/>
     <use style="fill:#008000;stroke:#008000;stroke-linejoin:bevel;" x="138.688765" xlink:href="#m381574949e" y="212.743002"/>
     <use style="fill:#008000;stroke:#008000;stroke-linejoin:bevel;" x="141.250749" xlink:href="#m381574949e" y="213.135807"/>
     <use style="fill:#008000;stroke:#008000;stroke-linejoin:bevel;" x="143.812732" xlink:href="#m381574949e" y="213.824284"/>
     <use style="fill:#008000;stroke:#008000;stroke-linejoin:bevel;" x="146.374716" xlink:href="#m381574949e" y="212.077569"/>
     <use style="fill:#008000;stroke:#008000;stroke-linejoin:bevel;" x="148.936699" xlink:href="#m381574949e" y="213.492355"/>
     <use style="fill:#008000;stroke:#008000;stroke-linejoin:bevel;" x="151.498683" xlink:href="#m381574949e" y="213.996098"/>
     <use style="fill:#008000;stroke:#008000;stroke-linejoin:bevel;" x="154.060666" xlink:href="#m381574949e" y="213.864042"/>
     <use style="fill:#008000;stroke:#008000;stroke-linejoin:bevel;" x="156.62265" xlink:href="#m381574949e" y="213.795718"/>
     <use style="fill:#008000;stroke:#008000;stroke-linejoin:bevel;" x="159.184633" xlink:href="#m381574949e" y="214.293018"/>
     <use style="fill:#008000;stroke:#008000;stroke-linejoin:bevel;" x="161.746617" xlink:href="#m381574949e" y="212.682331"/>
     <use style="fill:#008000;stroke:#008000;stroke-linejoin:bevel;" x="164.3086" xlink:href="#m381574949e" y="213.507454"/>
     <use style="fill:#008000;stroke:#008000;stroke-linejoin:bevel;" x="166.870584" xlink:href="#m381574949e" y="213.09362"/>
     <use style="fill:#008000;stroke:#008000;stroke-linejoin:bevel;" x="169.432567" xlink:href="#m381574949e" y="212.569453"/>
     <use style="fill:#008000;stroke:#008000;stroke-linejoin:bevel;" x="171.994551" xlink:href="#m381574949e" y="213.513342"/>
     <use style="fill:#008000;stroke:#008000;stroke-linejoin:bevel;" x="174.556534" xlink:href="#m381574949e" y="213.878305"/>
     <use style="fill:#008000;stroke:#008000;stroke-linejoin:bevel;" x="177.118518" xlink:href="#m381574949e" y="212.606728"/>
     <use style="fill:#008000;stroke:#008000;stroke-linejoin:bevel;" x="179.680501" xlink:href="#m381574949e" y="213.202558"/>
     <use style="fill:#008000;stroke:#008000;stroke-linejoin:bevel;" x="182.242485" xlink:href="#m381574949e" y="213.906084"/>
     <use style="fill:#008000;stroke:#008000;stroke-linejoin:bevel;" x="184.804468" xlink:href="#m381574949e" y="212.942986"/>
     <use style="fill:#008000;stroke:#008000;stroke-linejoin:bevel;" x="187.366451" xlink:href="#m381574949e" y="213.000495"/>
     <use style="fill:#008000;stroke:#008000;stroke-linejoin:bevel;" x="189.928435" xlink:href="#m381574949e" y="214.431778"/>
     <use style="fill:#008000;stroke:#008000;stroke-linejoin:bevel;" x="192.490418" xlink:href="#m381574949e" y="213.754775"/>
     <use style="fill:#008000;stroke:#008000;stroke-linejoin:bevel;" x="195.052402" xlink:href="#m381574949e" y="213.744447"/>
     <use style="fill:#008000;stroke:#008000;stroke-linejoin:bevel;" x="197.614385" xlink:href="#m381574949e" y="214.184553"/>
     <use style="fill:#008000;stroke:#008000;stroke-linejoin:bevel;" x="200.176369" xlink:href="#m381574949e" y="212.354241"/>
     <use style="fill:#008000;stroke:#008000;stroke-linejoin:bevel;" x="202.738352" xlink:href="#m381574949e" y="212.074521"/>
     <use style="fill:#008000;stroke:#008000;stroke-linejoin:bevel;" x="205.300336" xlink:href="#m381574949e" y="213.680859"/>
     <use style="fill:#008000;stroke:#008000;stroke-linejoin:bevel;" x="207.862319" xlink:href="#m381574949e" y="213.114187"/>
     <use style="fill:#008000;stroke:#008000;stroke-linejoin:bevel;" x="210.424303" xlink:href="#m381574949e" y="212.990637"/>
     <use style="fill:#008000;stroke:#008000;stroke-linejoin:bevel;" x="212.986286" xlink:href="#m381574949e" y="214.051024"/>
     <use style="fill:#008000;stroke:#008000;stroke-linejoin:bevel;" x="215.54827" xlink:href="#m381574949e" y="213.042445"/>
     <use style="fill:#008000;stroke:#008000;stroke-linejoin:bevel;" x="218.110253" xlink:href="#m381574949e" y="210.897146"/>
     <use style="fill:#008000;stroke:#008000;stroke-linejoin:bevel;" x="220.672237" xlink:href="#m381574949e" y="211.137533"/>
     <use style="fill:#008000;stroke:#008000;stroke-linejoin:bevel;" x="223.23422" xlink:href="#m381574949e" y="212.981596"/>
     <use style="fill:#008000;stroke:#008000;stroke-linejoin:bevel;" x="225.796204" xlink:href="#m381574949e" y="211.59403"/>
     <use style="fill:#008000;stroke:#008000;stroke-linejoin:bevel;" x="228.358187" xlink:href="#m381574949e" y="213.123635"/>
     <use style="fill:#008000;stroke:#008000;stroke-linejoin:bevel;" x="230.92017" xlink:href="#m381574949e" y="212.464961"/>
     <use style="fill:#008000;stroke:#008000;stroke-linejoin:bevel;" x="233.482154" xlink:href="#m381574949e" y="210.593616"/>
     <use style="fill:#008000;stroke:#008000;stroke-linejoin:bevel;" x="236.044137" xlink:href="#m381574949e" y="210.311381"/>
     <use style="fill:#008000;stroke:#008000;stroke-linejoin:bevel;" x="238.606121" xlink:href="#m381574949e" y="210.263289"/>
     <use style="fill:#008000;stroke:#008000;stroke-linejoin:bevel;" x="241.168104" xlink:href="#m381574949e" y="210.354527"/>
     <use style="fill:#008000;stroke:#008000;stroke-linejoin:bevel;" x="243.730088" xlink:href="#m381574949e" y="211.413941"/>
     <use style="fill:#008000;stroke:#008000;stroke-linejoin:bevel;" x="246.292071" xlink:href="#m381574949e" y="210.523924"/>
     <use style="fill:#008000;stroke:#008000;stroke-linejoin:bevel;" x="248.854055" xlink:href="#m381574949e" y="209.535835"/>
     <use style="fill:#008000;stroke:#008000;stroke-linejoin:bevel;" x="251.416038" xlink:href="#m381574949e" y="208.710551"/>
     <use style="fill:#008000;stroke:#008000;stroke-linejoin:bevel;" x="253.978022" xlink:href="#m381574949e" y="209.009157"/>
     <use style="fill:#008000;stroke:#008000;stroke-linejoin:bevel;" x="256.540005" xlink:href="#m381574949e" y="208.117216"/>
     <use style="fill:#008000;stroke:#008000;stroke-linejoin:bevel;" x="259.101989" xlink:href="#m381574949e" y="207.89809"/>
     <use style="fill:#008000;stroke:#008000;stroke-linejoin:bevel;" x="261.663972" xlink:href="#m381574949e" y="208.904765"/>
     <use style="fill:#008000;stroke:#008000;stroke-linejoin:bevel;" x="264.225956" xlink:href="#m381574949e" y="207.413992"/>
     <use style="fill:#008000;stroke:#008000;stroke-linejoin:bevel;" x="266.787939" xlink:href="#m381574949e" y="205.792706"/>
     <use style="fill:#008000;stroke:#008000;stroke-linejoin:bevel;" x="269.349923" xlink:href="#m381574949e" y="203.920458"/>
     <use style="fill:#008000;stroke:#008000;stroke-linejoin:bevel;" x="271.911906" xlink:href="#m381574949e" y="204.686885"/>
     <use style="fill:#008000;stroke:#008000;stroke-linejoin:bevel;" x="274.473889" xlink:href="#m381574949e" y="202.989268"/>
     <use style="fill:#008000;stroke:#008000;stroke-linejoin:bevel;" x="277.035873" xlink:href="#m381574949e" y="202.687666"/>
     <use style="fill:#008000;stroke:#008000;stroke-linejoin:bevel;" x="279.597856" xlink:href="#m381574949e" y="199.531835"/>
     <use style="fill:#008000;stroke:#008000;stroke-linejoin:bevel;" x="282.15984" xlink:href="#m381574949e" y="195.338937"/>
     <use style="fill:#008000;stroke:#008000;stroke-linejoin:bevel;" x="284.721823" xlink:href="#m381574949e" y="191.179093"/>
     <use style="fill:#008000;stroke:#008000;stroke-linejoin:bevel;" x="287.283807" xlink:href="#m381574949e" y="181.484893"/>
     <use style="fill:#008000;stroke:#008000;stroke-linejoin:bevel;" x="289.84579" xlink:href="#m381574949e" y="158.866338"/>
     <use style="fill:#008000;stroke:#008000;stroke-linejoin:bevel;" x="292.407774" xlink:href="#m381574949e" y="17.083636"/>
     <use style="fill:#008000;stroke:#008000;stroke-linejoin:bevel;" x="294.969757" xlink:href="#m381574949e" y="111.151187"/>
     <use style="fill:#008000;stroke:#008000;stroke-linejoin:bevel;" x="297.531741" xlink:href="#m381574949e" y="178.248792"/>
     <use style="fill:#008000;stroke:#008000;stroke-linejoin:bevel;" x="300.093724" xlink:href="#m381574949e" y="193.887349"/>
     <use style="fill:#008000;stroke:#008000;stroke-linejoin:bevel;" x="302.655708" xlink:href="#m381574949e" y="200.24538"/>
     <use style="fill:#008000;stroke:#008000;stroke-linejoin:bevel;" x="305.217691" xlink:href="#m381574949e" y="203.368447"/>
     <use style="fill:#008000;stroke:#008000;stroke-linejoin:bevel;" x="307.779675" xlink:href="#m381574949e" y="203.577991"/>
     <use style="fill:#008000;stroke:#008000;stroke-linejoin:bevel;" x="310.341658" xlink:href="#m381574949e" y="196.819271"/>
     <use style="fill:#008000;stroke:#008000;stroke-linejoin:bevel;" x="312.903642" xlink:href="#m381574949e" y="180.482219"/>
     <use style="fill:#008000;stroke:#008000;stroke-linejoin:bevel;" x="315.465625" xlink:href="#m381574949e" y="112.610178"/>
     <use style="fill:#008000;stroke:#008000;stroke-linejoin:bevel;" x="318.027608" xlink:href="#m381574949e" y="64.412194"/>
     <use style="fill:#008000;stroke:#008000;stroke-linejoin:bevel;" x="320.589592" xlink:href="#m381574949e" y="168.720131"/>
     <use style="fill:#008000;stroke:#008000;stroke-linejoin:bevel;" x="323.151575" xlink:href="#m381574949e" y="185.013274"/>
     <use style="fill:#008000;stroke:#008000;stroke-linejoin:bevel;" x="325.713559" xlink:href="#m381574949e" y="192.084608"/>
     <use style="fill:#008000;stroke:#008000;stroke-linejoin:bevel;" x="328.275542" xlink:href="#m381574949e" y="197.588691"/>
     <use style="fill:#008000;stroke:#008000;stroke-linejoin:bevel;" x="330.837526" xlink:href="#m381574949e" y="200.297818"/>
     <use style="fill:#008000;stroke:#008000;stroke-linejoin:bevel;" x="333.399509" xlink:href="#m381574949e" y="202.484261"/>
     <use style="fill:#008000;stroke:#008000;stroke-linejoin:bevel;" x="335.961493" xlink:href="#m381574949e" y="204.960509"/>
     <use style="fill:#008000;stroke:#008000;stroke-linejoin:bevel;" x="338.523476" xlink:href="#m381574949e" y="206.300175"/>
     <use style="fill:#008000;stroke:#008000;stroke-linejoin:bevel;" x="341.08546" xlink:href="#m381574949e" y="204.732923"/>
     <use style="fill:#008000;stroke:#008000;stroke-linejoin:bevel;" x="343.647443" xlink:href="#m381574949e" y="206.217023"/>
     <use style="fill:#008000;stroke:#008000;stroke-linejoin:bevel;" x="346.209427" xlink:href="#m381574949e" y="206.87406"/>
     <use style="fill:#008000;stroke:#008000;stroke-linejoin:bevel;" x="348.77141" xlink:href="#m381574949e" y="207.000804"/>
     <use style="fill:#008000;stroke:#008000;stroke-linejoin:bevel;" x="351.333394" xlink:href="#m381574949e" y="208.792407"/>
     <use style="fill:#008000;stroke:#008000;stroke-linejoin:bevel;" x="353.895377" xlink:href="#m381574949e" y="209.550875"/>
     <use style="fill:#008000;stroke:#008000;stroke-linejoin:bevel;" x="356.457361" xlink:href="#m381574949e" y="208.843148"/>
     <use style="fill:#008000;stroke:#008000;stroke-linejoin:bevel;" x="359.019344" xlink:href="#m381574949e" y="209.486571"/>
     <use style="fill:#008000;stroke:#008000;stroke-linejoin:bevel;" x="361.581327" xlink:href="#m381574949e" y="209.695359"/>
     <use style="fill:#008000;stroke:#008000;stroke-linejoin:bevel;" x="364.143311" xlink:href="#m381574949e" y="207.170076"/>
     <use style="fill:#008000;stroke:#008000;stroke-linejoin:bevel;" x="366.705294" xlink:href="#m381574949e" y="209.405736"/>
     <use style="fill:#008000;stroke:#008000;stroke-linejoin:bevel;" x="369.267278" xlink:href="#m381574949e" y="211.036933"/>
     <use style="fill:#008000;stroke:#008000;stroke-linejoin:bevel;" x="371.829261" xlink:href="#m381574949e" y="210.684936"/>
     <use style="fill:#008000;stroke:#008000;stroke-linejoin:bevel;" x="374.391245" xlink:href="#m381574949e" y="210.979908"/>
     <use style="fill:#008000;stroke:#008000;stroke-linejoin:bevel;" x="376.953228" xlink:href="#m381574949e" y="211.356383"/>
     <use style="fill:#008000;stroke:#008000;stroke-linejoin:bevel;" x="379.515212" xlink:href="#m381574949e" y="210.198907"/>
     <use style="fill:#008000;stroke:#008000;stroke-linejoin:bevel;" x="382.077195" xlink:href="#m381574949e" y="210.463249"/>
     <use style="fill:#008000;stroke:#008000;stroke-linejoin:bevel;" x="384.639179" xlink:href="#m381574949e" y="210.298557"/>
     <use style="fill:#008000;stroke:#008000;stroke-linejoin:bevel;" x="387.201162" xlink:href="#m381574949e" y="212.134735"/>
     <use style="fill:#008000;stroke:#008000;stroke-linejoin:bevel;" x="389.763146" xlink:href="#m381574949e" y="212.116157"/>
     <use style="fill:#008000;stroke:#008000;stroke-linejoin:bevel;" x="392.325129" xlink:href="#m381574949e" y="212.788381"/>
     <use style="fill:#008000;stroke:#008000;stroke-linejoin:bevel;" x="394.887113" xlink:href="#m381574949e" y="211.736326"/>
     <use style="fill:#008000;stroke:#008000;stroke-linejoin:bevel;" x="397.449096" xlink:href="#m381574949e" y="210.982266"/>
     <use style="fill:#008000;stroke:#008000;stroke-linejoin:bevel;" x="400.01108" xlink:href="#m381574949e" y="211.691943"/>
     <use style="fill:#008000;stroke:#008000;stroke-linejoin:bevel;" x="402.573063" xlink:href="#m381574949e" y="211.707932"/>
     <use style="fill:#008000;stroke:#008000;stroke-linejoin:bevel;" x="405.135046" xlink:href="#m381574949e" y="212.13221"/>
     <use style="fill:#008000;stroke:#008000;stroke-linejoin:bevel;" x="407.69703" xlink:href="#m381574949e" y="213.772873"/>
     <use style="fill:#008000;stroke:#008000;stroke-linejoin:bevel;" x="410.259013" xlink:href="#m381574949e" y="212.880623"/>
     <use style="fill:#008000;stroke:#008000;stroke-linejoin:bevel;" x="412.820997" xlink:href="#m381574949e" y="212.223574"/>
     <use style="fill:#008000;stroke:#008000;stroke-linejoin:bevel;" x="415.38298" xlink:href="#m381574949e" y="211.784848"/>
     <use style="fill:#008000;stroke:#008000;stroke-linejoin:bevel;" x="417.944964" xlink:href="#m381574949e" y="212.385586"/>
     <use style="fill:#008000;stroke:#008000;stroke-linejoin:bevel;" x="420.506947" xlink:href="#m381574949e" y="212.403024"/>
     <use style="fill:#008000;stroke:#008000;stroke-linejoin:bevel;" x="423.068931" xlink:href="#m381574949e" y="213.183478"/>
     <use style="fill:#008000;stroke:#008000;stroke-linejoin:bevel;" x="425.630914" xlink:href="#m381574949e" y="213.551361"/>
     <use style="fill:#008000;stroke:#008000;stroke-linejoin:bevel;" x="428.192898" xlink:href="#m381574949e" y="212.482689"/>
     <use style="fill:#008000;stroke:#008000;stroke-linejoin:bevel;" x="430.754881" xlink:href="#m381574949e" y="213.046268"/>
     <use style="fill:#008000;stroke:#008000;stroke-linejoin:bevel;" x="433.316865" xlink:href="#m381574949e" y="212.068179"/>
     <use style="fill:#008000;stroke:#008000;stroke-linejoin:bevel;" x="435.878848" xlink:href="#m381574949e" y="212.364747"/>
     <use style="fill:#008000;stroke:#008000;stroke-linejoin:bevel;" x="438.440832" xlink:href="#m381574949e" y="212.66138"/>
     <use style="fill:#008000;stroke:#008000;stroke-linejoin:bevel;" x="441.002815" xlink:href="#m381574949e" y="213.347203"/>
     <use style="fill:#008000;stroke:#008000;stroke-linejoin:bevel;" x="443.564799" xlink:href="#m381574949e" y="212.485152"/>
     <use style="fill:#008000;stroke:#008000;stroke-linejoin:bevel;" x="446.126782" xlink:href="#m381574949e" y="212.645367"/>
     <use style="fill:#008000;stroke:#008000;stroke-linejoin:bevel;" x="448.688765" xlink:href="#m381574949e" y="213.342984"/>
     <use style="fill:#008000;stroke:#008000;stroke-linejoin:bevel;" x="451.250749" xlink:href="#m381574949e" y="213.598275"/>
     <use style="fill:#008000;stroke:#008000;stroke-linejoin:bevel;" x="453.812732" xlink:href="#m381574949e" y="212.542662"/>
     <use style="fill:#008000;stroke:#008000;stroke-linejoin:bevel;" x="456.374716" xlink:href="#m381574949e" y="213.871261"/>
     <use style="fill:#008000;stroke:#008000;stroke-linejoin:bevel;" x="458.936699" xlink:href="#m381574949e" y="212.362462"/>
     <use style="fill:#008000;stroke:#008000;stroke-linejoin:bevel;" x="461.498683" xlink:href="#m381574949e" y="212.877919"/>
     <use style="fill:#008000;stroke:#008000;stroke-linejoin:bevel;" x="464.060666" xlink:href="#m381574949e" y="213.245863"/>
     <use style="fill:#008000;stroke:#008000;stroke-linejoin:bevel;" x="466.62265" xlink:href="#m381574949e" y="213.647734"/>
     <use style="fill:#008000;stroke:#008000;stroke-linejoin:bevel;" x="469.184633" xlink:href="#m381574949e" y="213.358283"/>
     <use style="fill:#008000;stroke:#008000;stroke-linejoin:bevel;" x="471.746617" xlink:href="#m381574949e" y="213.330694"/>
     <use style="fill:#008000;stroke:#008000;stroke-linejoin:bevel;" x="474.3086" xlink:href="#m381574949e" y="212.960249"/>
     <use style="fill:#008000;stroke:#008000;stroke-linejoin:bevel;" x="476.870584" xlink:href="#m381574949e" y="212.026368"/>
     <use style="fill:#008000;stroke:#008000;stroke-linejoin:bevel;" x="479.432567" xlink:href="#m381574949e" y="212.039985"/>
     <use style="fill:#008000;stroke:#008000;stroke-linejoin:bevel;" x="481.994551" xlink:href="#m381574949e" y="214.017733"/>
     <use style="fill:#008000;stroke:#008000;stroke-linejoin:bevel;" x="484.556534" xlink:href="#m381574949e" y="213.757771"/>
     <use style="fill:#008000;stroke:#008000;stroke-linejoin:bevel;" x="487.118518" xlink:href="#m381574949e" y="212.745704"/>
     <use style="fill:#008000;stroke:#008000;stroke-linejoin:bevel;" x="489.680501" xlink:href="#m381574949e" y="213.203788"/>
     <use style="fill:#008000;stroke:#008000;stroke-linejoin:bevel;" x="492.242485" xlink:href="#m381574949e" y="212.577904"/>
     <use style="fill:#008000;stroke:#008000;stroke-linejoin:bevel;" x="494.804468" xlink:href="#m381574949e" y="212.31366"/>
     <use style="fill:#008000;stroke:#008000;stroke-linejoin:bevel;" x="497.366451" xlink:href="#m381574949e" y="212.768051"/>
     <use style="fill:#008000;stroke:#008000;stroke-linejoin:bevel;" x="499.928435" xlink:href="#m381574949e" y="212.803171"/>
     <use style="fill:#008000;stroke:#008000;stroke-linejoin:bevel;" x="502.490418" xlink:href="#m381574949e" y="211.947394"/>
     <use style="fill:#008000;stroke:#008000;stroke-linejoin:bevel;" x="505.052402" xlink:href="#m381574949e" y="214.274095"/>
     <use style="fill:#008000;stroke:#008000;stroke-linejoin:bevel;" x="507.614385" xlink:href="#m381574949e" y="212.886083"/>
     <use style="fill:#008000;stroke:#008000;stroke-linejoin:bevel;" x="510.176369" xlink:href="#m381574949e" y="212.323866"/>
     <use style="fill:#008000;stroke:#008000;stroke-linejoin:bevel;" x="512.738352" xlink:href="#m381574949e" y="212.440556"/>
     <use style="fill:#008000;stroke:#008000;stroke-linejoin:bevel;" x="515.300336" xlink:href="#m381574949e" y="212.356909"/>
     <use style="fill:#008000;stroke:#008000;stroke-linejoin:bevel;" x="517.862319" xlink:href="#m381574949e" y="212.082031"/>
     <use style="fill:#008000;stroke:#008000;stroke-linejoin:bevel;" x="520.424303" xlink:href="#m381574949e" y="213.038131"/>
     <use style="fill:#008000;stroke:#008000;stroke-linejoin:bevel;" x="522.986286" xlink:href="#m381574949e" y="213.31474"/>
     <use style="fill:#008000;stroke:#008000;stroke-linejoin:bevel;" x="525.54827" xlink:href="#m381574949e" y="212.476278"/>
     <use style="fill:#008000;stroke:#008000;stroke-linejoin:bevel;" x="528.110253" xlink:href="#m381574949e" y="211.254825"/>
     <use style="fill:#008000;stroke:#008000;stroke-linejoin:bevel;" x="530.672237" xlink:href="#m381574949e" y="211.835323"/>
     <use style="fill:#008000;stroke:#008000;stroke-linejoin:bevel;" x="533.23422" xlink:href="#m381574949e" y="211.734403"/>
     <use style="fill:#008000;stroke:#008000;stroke-linejoin:bevel;" x="535.796204" xlink:href="#m381574949e" y="212.240435"/>
     <use style="fill:#008000;stroke:#008000;stroke-linejoin:bevel;" x="538.358187" xlink:href="#m381574949e" y="212.939254"/>
     <use style="fill:#008000;stroke:#008000;stroke-linejoin:bevel;" x="540.92017" xlink:href="#m381574949e" y="212.876905"/>
     <use style="fill:#008000;stroke:#008000;stroke-linejoin:bevel;" x="543.482154" xlink:href="#m381574949e" y="212.980096"/>
     <use style="fill:#008000;stroke:#008000;stroke-linejoin:bevel;" x="546.044137" xlink:href="#m381574949e" y="212.581039"/>
     <use style="fill:#008000;stroke:#008000;stroke-linejoin:bevel;" x="548.606121" xlink:href="#m381574949e" y="211.665195"/>
     <use style="fill:#008000;stroke:#008000;stroke-linejoin:bevel;" x="551.168104" xlink:href="#m381574949e" y="208.273014"/>
     <use style="fill:#008000;stroke:#008000;stroke-linejoin:bevel;" x="553.730088" xlink:href="#m381574949e" y="213.186609"/>
     <use style="fill:#008000;stroke:#008000;stroke-linejoin:bevel;" x="556.292071" xlink:href="#m381574949e" y="212.557331"/>
     <use style="fill:#008000;stroke:#008000;stroke-linejoin:bevel;" x="558.854055" xlink:href="#m381574949e" y="213.338157"/>
     <use style="fill:#008000;stroke:#008000;stroke-linejoin:bevel;" x="561.416038" xlink:href="#m381574949e" y="213.777303"/>
     <use style="fill:#008000;stroke:#008000;stroke-linejoin:bevel;" x="563.978022" xlink:href="#m381574949e" y="212.648244"/>
     <use style="fill:#008000;stroke:#008000;stroke-linejoin:bevel;" x="566.540005" xlink:href="#m381574949e" y="211.870629"/>
     <use style="fill:#008000;stroke:#008000;stroke-linejoin:bevel;" x="569.101989" xlink:href="#m381574949e" y="212.41689"/>
    </g>
   </g>
   <g id="line2d_16">
    <path clip-path="url(#pbc3679cbc3)" d="M 61.829261 212.527546 
L 64.391245 213.968285 
L 66.953228 212.882859 
L 69.515212 214.159407 
L 72.077195 213.623318 
L 74.639179 213.749371 
L 77.201162 214.21803 
L 79.763146 213.84884 
L 82.325129 210.523637 
L 84.887113 212.868518 
L 90.01108 214.530656 
L 92.573063 213.333356 
L 95.135046 212.98956 
L 97.69703 214.349339 
L 100.259013 212.873836 
L 102.820997 212.870019 
L 105.38298 213.330075 
L 107.944964 214.154605 
L 110.506947 213.702014 
L 113.068931 213.529981 
L 115.630914 214.28588 
L 118.192898 213.54711 
L 120.754881 214.319413 
L 123.316865 213.275938 
L 125.878848 213.761573 
L 128.440832 213.885331 
L 131.002815 211.086518 
L 133.564799 214.08361 
L 136.126782 214.545509 
L 138.688765 212.743002 
L 141.250749 213.135807 
L 143.812732 213.824284 
L 146.374716 212.077569 
L 148.936699 213.492355 
L 151.498683 213.996098 
L 156.62265 213.795718 
L 159.184633 214.293018 
L 161.746617 212.682331 
L 164.3086 213.507454 
L 169.432567 212.569453 
L 171.994551 213.513342 
L 174.556534 213.878305 
L 177.118518 212.606728 
L 182.242485 213.906084 
L 184.804468 212.942986 
L 187.366451 213.000495 
L 189.928435 214.431778 
L 192.490418 213.754775 
L 195.052402 213.744447 
L 197.614385 214.184553 
L 200.176369 212.354241 
L 202.738352 212.074521 
L 205.300336 213.680859 
L 207.862319 213.114187 
L 210.424303 212.990637 
L 212.986286 214.051024 
L 215.54827 213.042445 
L 218.110253 210.897146 
L 220.672237 211.137533 
L 223.23422 212.981596 
L 225.796204 211.59403 
L 228.358187 213.123635 
L 230.92017 212.464961 
L 233.482154 210.593616 
L 236.044137 210.311381 
L 238.606121 210.263289 
L 241.168104 210.354527 
L 243.730088 211.413941 
L 251.416038 208.710551 
L 253.978022 209.009157 
L 256.540005 208.117216 
L 259.101989 207.89809 
L 261.663972 208.904765 
L 264.225956 207.413992 
L 266.787939 205.792706 
L 269.349923 203.920458 
L 271.911906 204.686885 
L 274.473889 202.989268 
L 277.035873 202.687666 
L 279.597856 199.531835 
L 284.721823 191.179093 
L 287.283807 181.484893 
L 289.84579 158.866338 
L 292.407774 17.083636 
L 294.969757 111.151187 
L 297.531741 178.248792 
L 300.093724 193.887349 
L 302.655708 200.24538 
L 305.217691 203.368447 
L 307.779675 203.577991 
L 310.341658 196.819271 
L 312.903642 180.482219 
L 315.465625 112.610178 
L 318.027608 64.412194 
L 320.589592 168.720131 
L 323.151575 185.013274 
L 325.713559 192.084608 
L 328.275542 197.588691 
L 330.837526 200.297818 
L 333.399509 202.484261 
L 335.961493 204.960509 
L 338.523476 206.300175 
L 341.08546 204.732923 
L 343.647443 206.217023 
L 346.209427 206.87406 
L 348.77141 207.000804 
L 351.333394 208.792407 
L 353.895377 209.550875 
L 356.457361 208.843148 
L 359.019344 209.486571 
L 361.581327 209.695359 
L 364.143311 207.170076 
L 366.705294 209.405736 
L 369.267278 211.036933 
L 371.829261 210.684936 
L 376.953228 211.356383 
L 379.515212 210.198907 
L 382.077195 210.463249 
L 384.639179 210.298557 
L 387.201162 212.134735 
L 389.763146 212.116157 
L 392.325129 212.788381 
L 394.887113 211.736326 
L 397.449096 210.982266 
L 400.01108 211.691943 
L 402.573063 211.707932 
L 405.135046 212.13221 
L 407.69703 213.772873 
L 410.259013 212.880623 
L 412.820997 212.223574 
L 415.38298 211.784848 
L 417.944964 212.385586 
L 420.506947 212.403024 
L 423.068931 213.183478 
L 425.630914 213.551361 
L 428.192898 212.482689 
L 430.754881 213.046268 
L 433.316865 212.068179 
L 438.440832 212.66138 
L 441.002815 213.347203 
L 443.564799 212.485152 
L 446.126782 212.645367 
L 448.688765 213.342984 
L 451.250749 213.598275 
L 453.812732 212.542662 
L 456.374716 213.871261 
L 458.936699 212.362462 
L 461.498683 212.877919 
L 466.62265 213.647734 
L 469.184633 213.358283 
L 471.746617 213.330694 
L 474.3086 212.960249 
L 476.870584 212.026368 
L 479.432567 212.039985 
L 481.994551 214.017733 
L 484.556534 213.757771 
L 487.118518 212.745704 
L 489.680501 213.203788 
L 492.242485 212.577904 
L 494.804468 212.31366 
L 497.366451 212.768051 
L 499.928435 212.803171 
L 502.490418 211.947394 
L 505.052402 214.274095 
L 507.614385 212.886083 
L 510.176369 212.323866 
L 512.738352 212.440556 
L 515.300336 212.356909 
L 517.862319 212.082031 
L 520.424303 213.038131 
L 522.986286 213.31474 
L 525.54827 212.476278 
L 528.110253 211.254825 
L 530.672237 211.835323 
L 533.23422 211.734403 
L 535.796204 212.240435 
L 538.358187 212.939254 
L 540.92017 212.876905 
L 543.482154 212.980096 
L 546.044137 212.581039 
L 548.606121 211.665195 
L 551.168104 208.273014 
L 553.730088 213.186609 
L 556.292071 212.557331 
L 558.854055 213.338157 
L 561.416038 213.777303 
L 563.978022 212.648244 
L 566.540005 211.870629 
L 569.101989 212.41689 
L 569.101989 212.41689 
" style="fill:none;stroke:#008000;stroke-linecap:square;stroke-width:1.5;"/>
   </g>
   <g id="line2d_17">
    <path clip-path="url(#pbc3679cbc3)" d="M 61.829261 214.751713 
L 200.176369 214.61199 
L 233.482154 214.399416 
L 248.854055 214.127147 
L 259.101989 213.731644 
L 264.225956 213.374104 
L 269.349923 212.781388 
L 271.911906 212.32342 
L 274.473889 211.676274 
L 277.035873 210.715133 
L 279.597856 209.19085 
L 282.15984 206.546254 
L 284.721823 201.325562 
L 287.283807 188.783199 
L 289.84579 148.12948 
L 292.407774 18.813996 
L 294.969757 108.718038 
L 297.531741 177.568802 
L 300.093724 195.723252 
L 302.655708 201.625599 
L 305.217691 203.054266 
L 307.779675 201.411743 
L 310.341658 195.152253 
L 312.903642 176.344119 
L 315.465625 112.324497 
L 318.027608 65.98063 
L 320.589592 158.609226 
L 323.151575 191.135287 
L 325.713559 202.127888 
L 328.275542 206.90239 
L 330.837526 209.377706 
L 333.399509 210.824942 
L 335.961493 211.746266 
L 338.523476 212.370827 
L 341.08546 212.81504 
L 346.209427 213.392933 
L 353.895377 213.869315 
L 364.143311 214.194761 
L 379.515212 214.429554 
L 407.69703 214.603701 
L 471.746617 214.716421 
L 569.101989 214.756364 
L 569.101989 214.756364 
" style="fill:none;stroke:#ff0000;stroke-linecap:square;stroke-width:1.5;"/>
   </g>
   <g id="patch_3">
    <path d="M 36.465625 224.64 
L 36.465625 7.2 
" style="fill:none;stroke:#000000;stroke-linecap:square;stroke-linejoin:miter;stroke-width:0.8;"/>
   </g>
   <g id="patch_4">
    <path d="M 594.465625 224.64 
L 594.465625 7.2 
" style="fill:none;stroke:#000000;stroke-linecap:square;stroke-linejoin:miter;stroke-width:0.8;"/>
   </g>
   <g id="patch_5">
    <path d="M 36.465625 224.64 
L 594.465625 224.64 
" style="fill:none;stroke:#000000;stroke-linecap:square;stroke-linejoin:miter;stroke-width:0.8;"/>
   </g>
   <g id="patch_6">
    <path d="M 36.465625 7.2 
L 594.465625 7.2 
" style="fill:none;stroke:#000000;stroke-linecap:square;stroke-linejoin:miter;stroke-width:0.8;"/>
   </g>
   <g id="legend_1">
    <g id="patch_7">
     <path d="M 469.95625 44.55625 
L 587.465625 44.55625 
Q 589.465625 44.55625 589.465625 42.55625 
L 589.465625 14.2 
Q 589.465625 12.2 587.465625 12.2 
L 469.95625 12.2 
Q 467.95625 12.2 467.95625 14.2 
L 467.95625 42.55625 
Q 467.95625 44.55625 469.95625 44.55625 
z
" style="fill:#ffffff;opacity:0.8;stroke:#cccccc;stroke-linejoin:miter;"/>
    </g>
    <g id="line2d_18">
     <path d="M 471.95625 20.298437 
L 491.95625 20.298437 
" style="fill:none;stroke:#008000;stroke-linecap:square;stroke-width:1.5;"/>
    </g>
    <g id="line2d_19"/>
    <g id="text_15">
     <!-- Original Data -->
     <g transform="translate(499.95625 23.798437)scale(0.1 -0.1)">
      <defs>
       <path d="M 39.40625 66.21875 
Q 28.65625 66.21875 22.328125 58.203125 
Q 16.015625 50.203125 16.015625 36.375 
Q 16.015625 22.609375 22.328125 14.59375 
Q 28.65625 6.59375 39.40625 6.59375 
Q 50.140625 6.59375 56.421875 14.59375 
Q 62.703125 22.609375 62.703125 36.375 
Q 62.703125 50.203125 56.421875 58.203125 
Q 50.140625 66.21875 39.40625 66.21875 
z
M 39.40625 74.21875 
Q 54.734375 74.21875 63.90625 63.9375 
Q 73.09375 53.65625 73.09375 36.375 
Q 73.09375 19.140625 63.90625 8.859375 
Q 54.734375 -1.421875 39.40625 -1.421875 
Q 24.03125 -1.421875 14.8125 8.828125 
Q 5.609375 19.09375 5.609375 36.375 
Q 5.609375 53.65625 14.8125 63.9375 
Q 24.03125 74.21875 39.40625 74.21875 
z
" id="DejaVuSans-79"/>
       <path d="M 41.109375 46.296875 
Q 39.59375 47.171875 37.8125 47.578125 
Q 36.03125 48 33.890625 48 
Q 26.265625 48 22.1875 43.046875 
Q 18.109375 38.09375 18.109375 28.8125 
L 18.109375 0 
L 9.078125 0 
L 9.078125 54.6875 
L 18.109375 54.6875 
L 18.109375 46.1875 
Q 20.953125 51.171875 25.484375 53.578125 
Q 30.03125 56 36.53125 56 
Q 37.453125 56 38.578125 55.875 
Q 39.703125 55.765625 41.0625 55.515625 
z
" id="DejaVuSans-114"/>
       <path d="M 9.421875 54.6875 
L 18.40625 54.6875 
L 18.40625 0 
L 9.421875 0 
z
M 9.421875 75.984375 
L 18.40625 75.984375 
L 18.40625 64.59375 
L 9.421875 64.59375 
z
" id="DejaVuSans-105"/>
       <path d="M 45.40625 27.984375 
Q 45.40625 37.75 41.375 43.109375 
Q 37.359375 48.484375 30.078125 48.484375 
Q 22.859375 48.484375 18.828125 43.109375 
Q 14.796875 37.75 14.796875 27.984375 
Q 14.796875 18.265625 18.828125 12.890625 
Q 22.859375 7.515625 30.078125 7.515625 
Q 37.359375 7.515625 41.375 12.890625 
Q 45.40625 18.265625 45.40625 27.984375 
z
M 54.390625 6.78125 
Q 54.390625 -7.171875 48.1875 -13.984375 
Q 42 -20.796875 29.203125 -20.796875 
Q 24.46875 -20.796875 20.265625 -20.09375 
Q 16.0625 -19.390625 12.109375 -17.921875 
L 12.109375 -9.1875 
Q 16.0625 -11.328125 19.921875 -12.34375 
Q 23.78125 -13.375 27.78125 -13.375 
Q 36.625 -13.375 41.015625 -8.765625 
Q 45.40625 -4.15625 45.40625 5.171875 
L 45.40625 9.625 
Q 42.625 4.78125 38.28125 2.390625 
Q 33.9375 0 27.875 0 
Q 17.828125 0 11.671875 7.65625 
Q 5.515625 15.328125 5.515625 27.984375 
Q 5.515625 40.671875 11.671875 48.328125 
Q 17.828125 56 27.875 56 
Q 33.9375 56 38.28125 53.609375 
Q 42.625 51.21875 45.40625 46.390625 
L 45.40625 54.6875 
L 54.390625 54.6875 
z
" id="DejaVuSans-103"/>
       <path d="M 54.890625 33.015625 
L 54.890625 0 
L 45.90625 0 
L 45.90625 32.71875 
Q 45.90625 40.484375 42.875 44.328125 
Q 39.84375 48.1875 33.796875 48.1875 
Q 26.515625 48.1875 22.3125 43.546875 
Q 18.109375 38.921875 18.109375 30.90625 
L 18.109375 0 
L 9.078125 0 
L 9.078125 54.6875 
L 18.109375 54.6875 
L 18.109375 46.1875 
Q 21.34375 51.125 25.703125 53.5625 
Q 30.078125 56 35.796875 56 
Q 45.21875 56 50.046875 50.171875 
Q 54.890625 44.34375 54.890625 33.015625 
z
" id="DejaVuSans-110"/>
       <path d="M 34.28125 27.484375 
Q 23.390625 27.484375 19.1875 25 
Q 14.984375 22.515625 14.984375 16.5 
Q 14.984375 11.71875 18.140625 8.90625 
Q 21.296875 6.109375 26.703125 6.109375 
Q 34.1875 6.109375 38.703125 11.40625 
Q 43.21875 16.703125 43.21875 25.484375 
L 43.21875 27.484375 
z
M 52.203125 31.203125 
L 52.203125 0 
L 43.21875 0 
L 43.21875 8.296875 
Q 40.140625 3.328125 35.546875 0.953125 
Q 30.953125 -1.421875 24.3125 -1.421875 
Q 15.921875 -1.421875 10.953125 3.296875 
Q 6 8.015625 6 15.921875 
Q 6 25.140625 12.171875 29.828125 
Q 18.359375 34.515625 30.609375 34.515625 
L 43.21875 34.515625 
L 43.21875 35.40625 
Q 43.21875 41.609375 39.140625 45 
Q 35.0625 48.390625 27.6875 48.390625 
Q 23 48.390625 18.546875 47.265625 
Q 14.109375 46.140625 10.015625 43.890625 
L 10.015625 52.203125 
Q 14.9375 54.109375 19.578125 55.046875 
Q 24.21875 56 28.609375 56 
Q 40.484375 56 46.34375 49.84375 
Q 52.203125 43.703125 52.203125 31.203125 
z
" id="DejaVuSans-97"/>
       <path d="M 9.421875 75.984375 
L 18.40625 75.984375 
L 18.40625 0 
L 9.421875 0 
z
" id="DejaVuSans-108"/>
       <path id="DejaVuSans-32"/>
       <path d="M 19.671875 64.796875 
L 19.671875 8.109375 
L 31.59375 8.109375 
Q 46.6875 8.109375 53.6875 14.9375 
Q 60.6875 21.78125 60.6875 36.53125 
Q 60.6875 51.171875 53.6875 57.984375 
Q 46.6875 64.796875 31.59375 64.796875 
z
M 9.8125 72.90625 
L 30.078125 72.90625 
Q 51.265625 72.90625 61.171875 64.09375 
Q 71.09375 55.28125 71.09375 36.53125 
Q 71.09375 17.671875 61.125 8.828125 
Q 51.171875 0 30.078125 0 
L 9.8125 0 
z
" id="DejaVuSans-68"/>
       <path d="M 18.3125 70.21875 
L 18.3125 54.6875 
L 36.8125 54.6875 
L 36.8125 47.703125 
L 18.3125 47.703125 
L 18.3125 18.015625 
Q 18.3125 11.328125 20.140625 9.421875 
Q 21.96875 7.515625 27.59375 7.515625 
L 36.8125 7.515625 
L 36.8125 0 
L 27.59375 0 
Q 17.1875 0 13.234375 3.875 
Q 9.28125 7.765625 9.28125 18.015625 
L 9.28125 47.703125 
L 2.6875 47.703125 
L 2.6875 54.6875 
L 9.28125 54.6875 
L 9.28125 70.21875 
z
" id="DejaVuSans-116"/>
      </defs>
      <use xlink:href="#DejaVuSans-79"/>
      <use x="78.710938" xlink:href="#DejaVuSans-114"/>
      <use x="119.824219" xlink:href="#DejaVuSans-105"/>
      <use x="147.607422" xlink:href="#DejaVuSans-103"/>
      <use x="211.083984" xlink:href="#DejaVuSans-105"/>
      <use x="238.867188" xlink:href="#DejaVuSans-110"/>
      <use x="302.246094" xlink:href="#DejaVuSans-97"/>
      <use x="363.525391" xlink:href="#DejaVuSans-108"/>
      <use x="391.308594" xlink:href="#DejaVuSans-32"/>
      <use x="423.095703" xlink:href="#DejaVuSans-68"/>
      <use x="500.097656" xlink:href="#DejaVuSans-97"/>
      <use x="561.376953" xlink:href="#DejaVuSans-116"/>
      <use x="600.585938" xlink:href="#DejaVuSans-97"/>
     </g>
    </g>
    <g id="line2d_20">
     <path d="M 471.95625 34.976562 
L 491.95625 34.976562 
" style="fill:none;stroke:#ff0000;stroke-linecap:square;stroke-width:1.5;"/>
    </g>
    <g id="line2d_21"/>
    <g id="text_16">
     <!-- Lorentzian Model -->
     <g transform="translate(499.95625 38.476562)scale(0.1 -0.1)">
      <defs>
       <path d="M 9.8125 72.90625 
L 19.671875 72.90625 
L 19.671875 8.296875 
L 55.171875 8.296875 
L 55.171875 0 
L 9.8125 0 
z
" id="DejaVuSans-76"/>
       <path d="M 30.609375 48.390625 
Q 23.390625 48.390625 19.1875 42.75 
Q 14.984375 37.109375 14.984375 27.296875 
Q 14.984375 17.484375 19.15625 11.84375 
Q 23.34375 6.203125 30.609375 6.203125 
Q 37.796875 6.203125 41.984375 11.859375 
Q 46.1875 17.53125 46.1875 27.296875 
Q 46.1875 37.015625 41.984375 42.703125 
Q 37.796875 48.390625 30.609375 48.390625 
z
M 30.609375 56 
Q 42.328125 56 49.015625 48.375 
Q 55.71875 40.765625 55.71875 27.296875 
Q 55.71875 13.875 49.015625 6.21875 
Q 42.328125 -1.421875 30.609375 -1.421875 
Q 18.84375 -1.421875 12.171875 6.21875 
Q 5.515625 13.875 5.515625 27.296875 
Q 5.515625 40.765625 12.171875 48.375 
Q 18.84375 56 30.609375 56 
z
" id="DejaVuSans-111"/>
       <path d="M 56.203125 29.59375 
L 56.203125 25.203125 
L 14.890625 25.203125 
Q 15.484375 15.921875 20.484375 11.0625 
Q 25.484375 6.203125 34.421875 6.203125 
Q 39.59375 6.203125 44.453125 7.46875 
Q 49.3125 8.734375 54.109375 11.28125 
L 54.109375 2.78125 
Q 49.265625 0.734375 44.1875 -0.34375 
Q 39.109375 -1.421875 33.890625 -1.421875 
Q 20.796875 -1.421875 13.15625 6.1875 
Q 5.515625 13.8125 5.515625 26.8125 
Q 5.515625 40.234375 12.765625 48.109375 
Q 20.015625 56 32.328125 56 
Q 43.359375 56 49.78125 48.890625 
Q 56.203125 41.796875 56.203125 29.59375 
z
M 47.21875 32.234375 
Q 47.125 39.59375 43.09375 43.984375 
Q 39.0625 48.390625 32.421875 48.390625 
Q 24.90625 48.390625 20.390625 44.140625 
Q 15.875 39.890625 15.1875 32.171875 
z
" id="DejaVuSans-101"/>
       <path d="M 5.515625 54.6875 
L 48.1875 54.6875 
L 48.1875 46.484375 
L 14.40625 7.171875 
L 48.1875 7.171875 
L 48.1875 0 
L 4.296875 0 
L 4.296875 8.203125 
L 38.09375 47.515625 
L 5.515625 47.515625 
z
" id="DejaVuSans-122"/>
       <path d="M 9.8125 72.90625 
L 24.515625 72.90625 
L 43.109375 23.296875 
L 61.8125 72.90625 
L 76.515625 72.90625 
L 76.515625 0 
L 66.890625 0 
L 66.890625 64.015625 
L 48.09375 14.015625 
L 38.1875 14.015625 
L 19.390625 64.015625 
L 19.390625 0 
L 9.8125 0 
z
" id="DejaVuSans-77"/>
       <path d="M 45.40625 46.390625 
L 45.40625 75.984375 
L 54.390625 75.984375 
L 54.390625 0 
L 45.40625 0 
L 45.40625 8.203125 
Q 42.578125 3.328125 38.25 0.953125 
Q 33.9375 -1.421875 27.875 -1.421875 
Q 17.96875 -1.421875 11.734375 6.484375 
Q 5.515625 14.40625 5.515625 27.296875 
Q 5.515625 40.1875 11.734375 48.09375 
Q 17.96875 56 27.875 56 
Q 33.9375 56 38.25 53.625 
Q 42.578125 51.265625 45.40625 46.390625 
z
M 14.796875 27.296875 
Q 14.796875 17.390625 18.875 11.75 
Q 22.953125 6.109375 30.078125 6.109375 
Q 37.203125 6.109375 41.296875 11.75 
Q 45.40625 17.390625 45.40625 27.296875 
Q 45.40625 37.203125 41.296875 42.84375 
Q 37.203125 48.484375 30.078125 48.484375 
Q 22.953125 48.484375 18.875 42.84375 
Q 14.796875 37.203125 14.796875 27.296875 
z
" id="DejaVuSans-100"/>
      </defs>
      <use xlink:href="#DejaVuSans-76"/>
      <use x="53.962891" xlink:href="#DejaVuSans-111"/>
      <use x="115.144531" xlink:href="#DejaVuSans-114"/>
      <use x="154.007812" xlink:href="#DejaVuSans-101"/>
      <use x="215.53125" xlink:href="#DejaVuSans-110"/>
      <use x="278.910156" xlink:href="#DejaVuSans-116"/>
      <use x="318.119141" xlink:href="#DejaVuSans-122"/>
      <use x="370.609375" xlink:href="#DejaVuSans-105"/>
      <use x="398.392578" xlink:href="#DejaVuSans-97"/>
      <use x="459.671875" xlink:href="#DejaVuSans-110"/>
      <use x="523.050781" xlink:href="#DejaVuSans-32"/>
      <use x="554.837891" xlink:href="#DejaVuSans-77"/>
      <use x="641.117188" xlink:href="#DejaVuSans-111"/>
      <use x="702.298828" xlink:href="#DejaVuSans-100"/>
      <use x="765.775391" xlink:href="#DejaVuSans-101"/>
      <use x="827.298828" xlink:href="#DejaVuSans-108"/>
     </g>
    </g>
   </g>
  </g>
 </g>
 <defs>
  <clipPath id="pbc3679cbc3">
   <rect height="217.44" width="558" x="36.465625" y="7.2"/>
  </clipPath>
 </defs>
</svg>
