<?xml version="1.0" encoding="utf-8" standalone="no"?>
<!DOCTYPE svg PUBLIC "-//W3C//DTD SVG 1.1//EN"
  "http://www.w3.org/Graphics/SVG/1.1/DTD/svg11.dtd">
<!-- Created with matplotlib (https://matplotlib.org/) -->
<svg height="277.314375pt" version="1.1" viewBox="0 0 601.665625 277.314375" width="601.665625pt" xmlns="http://www.w3.org/2000/svg" xmlns:xlink="http://www.w3.org/1999/xlink">
 <metadata>
  <rdf:RDF xmlns:cc="http://creativecommons.org/ns#" xmlns:dc="http://purl.org/dc/elements/1.1/" xmlns:rdf="http://www.w3.org/1999/02/22-rdf-syntax-ns#">
   <cc:Work>
    <dc:type rdf:resource="http://purl.org/dc/dcmitype/StillImage"/>
    <dc:date>2021-07-05T22:52:46.292082</dc:date>
    <dc:format>image/svg+xml</dc:format>
    <dc:creator>
     <cc:Agent>
      <dc:title>Matplotlib v3.3.4, https://matplotlib.org/</dc:title>
     </cc:Agent>
    </dc:creator>
   </cc:Work>
  </rdf:RDF>
 </metadata>
 <defs>
  <style type="text/css">*{stroke-linecap:butt;stroke-linejoin:round;}</style>
 </defs>
 <g id="figure_1">
  <g id="patch_1">
   <path d="M 0 277.314375 
L 601.665625 277.314375 
L 601.665625 0 
L 0 0 
z
" style="fill:none;"/>
  </g>
  <g id="axes_1">
   <g id="patch_2">
    <path d="M 36.465625 239.758125 
L 594.465625 239.758125 
L 594.465625 22.318125 
L 36.465625 22.318125 
z
" style="fill:#ffffff;"/>
   </g>
   <g id="matplotlib.axis_1">
    <g id="xtick_1">
     <g id="line2d_1">
      <defs>
       <path d="M 0 0 
L 0 3.5 
" id="mc5c1956ddf" style="stroke:#000000;stroke-width:0.8;"/>
      </defs>
      <g>
       <use style="stroke:#000000;stroke-width:0.8;" x="59.267278" xlink:href="#mc5c1956ddf" y="239.758125"/>
      </g>
     </g>
     <g id="text_1">
      <!-- 0 -->
      <g transform="translate(56.086028 254.356562)scale(0.1 -0.1)">
       <defs>
        <path d="M 31.78125 66.40625 
Q 24.171875 66.40625 20.328125 58.90625 
Q 16.5 51.421875 16.5 36.375 
Q 16.5 21.390625 20.328125 13.890625 
Q 24.171875 6.390625 31.78125 6.390625 
Q 39.453125 6.390625 43.28125 13.890625 
Q 47.125 21.390625 47.125 36.375 
Q 47.125 51.421875 43.28125 58.90625 
Q 39.453125 66.40625 31.78125 66.40625 
z
M 31.78125 74.21875 
Q 44.046875 74.21875 50.515625 64.515625 
Q 56.984375 54.828125 56.984375 36.375 
Q 56.984375 17.96875 50.515625 8.265625 
Q 44.046875 -1.421875 31.78125 -1.421875 
Q 19.53125 -1.421875 13.0625 8.265625 
Q 6.59375 17.96875 6.59375 36.375 
Q 6.59375 54.828125 13.0625 64.515625 
Q 19.53125 74.21875 31.78125 74.21875 
z
" id="DejaVuSans-48"/>
       </defs>
       <use xlink:href="#DejaVuSans-48"/>
      </g>
     </g>
    </g>
    <g id="xtick_2">
     <g id="line2d_2">
      <g>
       <use style="stroke:#000000;stroke-width:0.8;" x="140.817745" xlink:href="#mc5c1956ddf" y="239.758125"/>
      </g>
     </g>
     <g id="text_2">
      <!-- 1 -->
      <g transform="translate(137.636495 254.356562)scale(0.1 -0.1)">
       <defs>
        <path d="M 12.40625 8.296875 
L 28.515625 8.296875 
L 28.515625 63.921875 
L 10.984375 60.40625 
L 10.984375 69.390625 
L 28.421875 72.90625 
L 38.28125 72.90625 
L 38.28125 8.296875 
L 54.390625 8.296875 
L 54.390625 0 
L 12.40625 0 
z
" id="DejaVuSans-49"/>
       </defs>
       <use xlink:href="#DejaVuSans-49"/>
      </g>
     </g>
    </g>
    <g id="xtick_3">
     <g id="line2d_3">
      <g>
       <use style="stroke:#000000;stroke-width:0.8;" x="222.368211" xlink:href="#mc5c1956ddf" y="239.758125"/>
      </g>
     </g>
     <g id="text_3">
      <!-- 2 -->
      <g transform="translate(219.186961 254.356562)scale(0.1 -0.1)">
       <defs>
        <path d="M 19.1875 8.296875 
L 53.609375 8.296875 
L 53.609375 0 
L 7.328125 0 
L 7.328125 8.296875 
Q 12.9375 14.109375 22.625 23.890625 
Q 32.328125 33.6875 34.8125 36.53125 
Q 39.546875 41.84375 41.421875 45.53125 
Q 43.3125 49.21875 43.3125 52.78125 
Q 43.3125 58.59375 39.234375 62.25 
Q 35.15625 65.921875 28.609375 65.921875 
Q 23.96875 65.921875 18.8125 64.3125 
Q 13.671875 62.703125 7.8125 59.421875 
L 7.8125 69.390625 
Q 13.765625 71.78125 18.9375 73 
Q 24.125 74.21875 28.421875 74.21875 
Q 39.75 74.21875 46.484375 68.546875 
Q 53.21875 62.890625 53.21875 53.421875 
Q 53.21875 48.921875 51.53125 44.890625 
Q 49.859375 40.875 45.40625 35.40625 
Q 44.1875 33.984375 37.640625 27.21875 
Q 31.109375 20.453125 19.1875 8.296875 
z
" id="DejaVuSans-50"/>
       </defs>
       <use xlink:href="#DejaVuSans-50"/>
      </g>
     </g>
    </g>
    <g id="xtick_4">
     <g id="line2d_4">
      <g>
       <use style="stroke:#000000;stroke-width:0.8;" x="303.918678" xlink:href="#mc5c1956ddf" y="239.758125"/>
      </g>
     </g>
     <g id="text_4">
      <!-- 3 -->
      <g transform="translate(300.737428 254.356562)scale(0.1 -0.1)">
       <defs>
        <path d="M 40.578125 39.3125 
Q 47.65625 37.796875 51.625 33 
Q 55.609375 28.21875 55.609375 21.1875 
Q 55.609375 10.40625 48.1875 4.484375 
Q 40.765625 -1.421875 27.09375 -1.421875 
Q 22.515625 -1.421875 17.65625 -0.515625 
Q 12.796875 0.390625 7.625 2.203125 
L 7.625 11.71875 
Q 11.71875 9.328125 16.59375 8.109375 
Q 21.484375 6.890625 26.8125 6.890625 
Q 36.078125 6.890625 40.9375 10.546875 
Q 45.796875 14.203125 45.796875 21.1875 
Q 45.796875 27.640625 41.28125 31.265625 
Q 36.765625 34.90625 28.71875 34.90625 
L 20.21875 34.90625 
L 20.21875 43.015625 
L 29.109375 43.015625 
Q 36.375 43.015625 40.234375 45.921875 
Q 44.09375 48.828125 44.09375 54.296875 
Q 44.09375 59.90625 40.109375 62.90625 
Q 36.140625 65.921875 28.71875 65.921875 
Q 24.65625 65.921875 20.015625 65.03125 
Q 15.375 64.15625 9.8125 62.3125 
L 9.8125 71.09375 
Q 15.4375 72.65625 20.34375 73.4375 
Q 25.25 74.21875 29.59375 74.21875 
Q 40.828125 74.21875 47.359375 69.109375 
Q 53.90625 64.015625 53.90625 55.328125 
Q 53.90625 49.265625 50.4375 45.09375 
Q 46.96875 40.921875 40.578125 39.3125 
z
" id="DejaVuSans-51"/>
       </defs>
       <use xlink:href="#DejaVuSans-51"/>
      </g>
     </g>
    </g>
    <g id="xtick_5">
     <g id="line2d_5">
      <g>
       <use style="stroke:#000000;stroke-width:0.8;" x="385.469145" xlink:href="#mc5c1956ddf" y="239.758125"/>
      </g>
     </g>
     <g id="text_5">
      <!-- 4 -->
      <g transform="translate(382.287895 254.356562)scale(0.1 -0.1)">
       <defs>
        <path d="M 37.796875 64.3125 
L 12.890625 25.390625 
L 37.796875 25.390625 
z
M 35.203125 72.90625 
L 47.609375 72.90625 
L 47.609375 25.390625 
L 58.015625 25.390625 
L 58.015625 17.1875 
L 47.609375 17.1875 
L 47.609375 0 
L 37.796875 0 
L 37.796875 17.1875 
L 4.890625 17.1875 
L 4.890625 26.703125 
z
" id="DejaVuSans-52"/>
       </defs>
       <use xlink:href="#DejaVuSans-52"/>
      </g>
     </g>
    </g>
    <g id="xtick_6">
     <g id="line2d_6">
      <g>
       <use style="stroke:#000000;stroke-width:0.8;" x="467.019611" xlink:href="#mc5c1956ddf" y="239.758125"/>
      </g>
     </g>
     <g id="text_6">
      <!-- 5 -->
      <g transform="translate(463.838361 254.356562)scale(0.1 -0.1)">
       <defs>
        <path d="M 10.796875 72.90625 
L 49.515625 72.90625 
L 49.515625 64.59375 
L 19.828125 64.59375 
L 19.828125 46.734375 
Q 21.96875 47.46875 24.109375 47.828125 
Q 26.265625 48.1875 28.421875 48.1875 
Q 40.625 48.1875 47.75 41.5 
Q 54.890625 34.8125 54.890625 23.390625 
Q 54.890625 11.625 47.5625 5.09375 
Q 40.234375 -1.421875 26.90625 -1.421875 
Q 22.3125 -1.421875 17.546875 -0.640625 
Q 12.796875 0.140625 7.71875 1.703125 
L 7.71875 11.625 
Q 12.109375 9.234375 16.796875 8.0625 
Q 21.484375 6.890625 26.703125 6.890625 
Q 35.15625 6.890625 40.078125 11.328125 
Q 45.015625 15.765625 45.015625 23.390625 
Q 45.015625 31 40.078125 35.4375 
Q 35.15625 39.890625 26.703125 39.890625 
Q 22.75 39.890625 18.8125 39.015625 
Q 14.890625 38.140625 10.796875 36.28125 
z
" id="DejaVuSans-53"/>
       </defs>
       <use xlink:href="#DejaVuSans-53"/>
      </g>
     </g>
    </g>
    <g id="xtick_7">
     <g id="line2d_7">
      <g>
       <use style="stroke:#000000;stroke-width:0.8;" x="548.570078" xlink:href="#mc5c1956ddf" y="239.758125"/>
      </g>
     </g>
     <g id="text_7">
      <!-- 6 -->
      <g transform="translate(545.388828 254.356562)scale(0.1 -0.1)">
       <defs>
        <path d="M 33.015625 40.375 
Q 26.375 40.375 22.484375 35.828125 
Q 18.609375 31.296875 18.609375 23.390625 
Q 18.609375 15.53125 22.484375 10.953125 
Q 26.375 6.390625 33.015625 6.390625 
Q 39.65625 6.390625 43.53125 10.953125 
Q 47.40625 15.53125 47.40625 23.390625 
Q 47.40625 31.296875 43.53125 35.828125 
Q 39.65625 40.375 33.015625 40.375 
z
M 52.59375 71.296875 
L 52.59375 62.3125 
Q 48.875 64.0625 45.09375 64.984375 
Q 41.3125 65.921875 37.59375 65.921875 
Q 27.828125 65.921875 22.671875 59.328125 
Q 17.53125 52.734375 16.796875 39.40625 
Q 19.671875 43.65625 24.015625 45.921875 
Q 28.375 48.1875 33.59375 48.1875 
Q 44.578125 48.1875 50.953125 41.515625 
Q 57.328125 34.859375 57.328125 23.390625 
Q 57.328125 12.15625 50.6875 5.359375 
Q 44.046875 -1.421875 33.015625 -1.421875 
Q 20.359375 -1.421875 13.671875 8.265625 
Q 6.984375 17.96875 6.984375 36.375 
Q 6.984375 53.65625 15.1875 63.9375 
Q 23.390625 74.21875 37.203125 74.21875 
Q 40.921875 74.21875 44.703125 73.484375 
Q 48.484375 72.75 52.59375 71.296875 
z
" id="DejaVuSans-54"/>
       </defs>
       <use xlink:href="#DejaVuSans-54"/>
      </g>
     </g>
    </g>
    <g id="text_8">
     <!-- Angular Frequncy Omega -->
     <g transform="translate(251.972656 268.034687)scale(0.1 -0.1)">
      <defs>
       <path d="M 34.1875 63.1875 
L 20.796875 26.90625 
L 47.609375 26.90625 
z
M 28.609375 72.90625 
L 39.796875 72.90625 
L 67.578125 0 
L 57.328125 0 
L 50.6875 18.703125 
L 17.828125 18.703125 
L 11.1875 0 
L 0.78125 0 
z
" id="DejaVuSans-65"/>
       <path d="M 54.890625 33.015625 
L 54.890625 0 
L 45.90625 0 
L 45.90625 32.71875 
Q 45.90625 40.484375 42.875 44.328125 
Q 39.84375 48.1875 33.796875 48.1875 
Q 26.515625 48.1875 22.3125 43.546875 
Q 18.109375 38.921875 18.109375 30.90625 
L 18.109375 0 
L 9.078125 0 
L 9.078125 54.6875 
L 18.109375 54.6875 
L 18.109375 46.1875 
Q 21.34375 51.125 25.703125 53.5625 
Q 30.078125 56 35.796875 56 
Q 45.21875 56 50.046875 50.171875 
Q 54.890625 44.34375 54.890625 33.015625 
z
" id="DejaVuSans-110"/>
       <path d="M 45.40625 27.984375 
Q 45.40625 37.75 41.375 43.109375 
Q 37.359375 48.484375 30.078125 48.484375 
Q 22.859375 48.484375 18.828125 43.109375 
Q 14.796875 37.75 14.796875 27.984375 
Q 14.796875 18.265625 18.828125 12.890625 
Q 22.859375 7.515625 30.078125 7.515625 
Q 37.359375 7.515625 41.375 12.890625 
Q 45.40625 18.265625 45.40625 27.984375 
z
M 54.390625 6.78125 
Q 54.390625 -7.171875 48.1875 -13.984375 
Q 42 -20.796875 29.203125 -20.796875 
Q 24.46875 -20.796875 20.265625 -20.09375 
Q 16.0625 -19.390625 12.109375 -17.921875 
L 12.109375 -9.1875 
Q 16.0625 -11.328125 19.921875 -12.34375 
Q 23.78125 -13.375 27.78125 -13.375 
Q 36.625 -13.375 41.015625 -8.765625 
Q 45.40625 -4.15625 45.40625 5.171875 
L 45.40625 9.625 
Q 42.625 4.78125 38.28125 2.390625 
Q 33.9375 0 27.875 0 
Q 17.828125 0 11.671875 7.65625 
Q 5.515625 15.328125 5.515625 27.984375 
Q 5.515625 40.671875 11.671875 48.328125 
Q 17.828125 56 27.875 56 
Q 33.9375 56 38.28125 53.609375 
Q 42.625 51.21875 45.40625 46.390625 
L 45.40625 54.6875 
L 54.390625 54.6875 
z
" id="DejaVuSans-103"/>
       <path d="M 8.5 21.578125 
L 8.5 54.6875 
L 17.484375 54.6875 
L 17.484375 21.921875 
Q 17.484375 14.15625 20.5 10.265625 
Q 23.53125 6.390625 29.59375 6.390625 
Q 36.859375 6.390625 41.078125 11.03125 
Q 45.3125 15.671875 45.3125 23.6875 
L 45.3125 54.6875 
L 54.296875 54.6875 
L 54.296875 0 
L 45.3125 0 
L 45.3125 8.40625 
Q 42.046875 3.421875 37.71875 1 
Q 33.40625 -1.421875 27.6875 -1.421875 
Q 18.265625 -1.421875 13.375 4.4375 
Q 8.5 10.296875 8.5 21.578125 
z
M 31.109375 56 
z
" id="DejaVuSans-117"/>
       <path d="M 9.421875 75.984375 
L 18.40625 75.984375 
L 18.40625 0 
L 9.421875 0 
z
" id="DejaVuSans-108"/>
       <path d="M 34.28125 27.484375 
Q 23.390625 27.484375 19.1875 25 
Q 14.984375 22.515625 14.984375 16.5 
Q 14.984375 11.71875 18.140625 8.90625 
Q 21.296875 6.109375 26.703125 6.109375 
Q 34.1875 6.109375 38.703125 11.40625 
Q 43.21875 16.703125 43.21875 25.484375 
L 43.21875 27.484375 
z
M 52.203125 31.203125 
L 52.203125 0 
L 43.21875 0 
L 43.21875 8.296875 
Q 40.140625 3.328125 35.546875 0.953125 
Q 30.953125 -1.421875 24.3125 -1.421875 
Q 15.921875 -1.421875 10.953125 3.296875 
Q 6 8.015625 6 15.921875 
Q 6 25.140625 12.171875 29.828125 
Q 18.359375 34.515625 30.609375 34.515625 
L 43.21875 34.515625 
L 43.21875 35.40625 
Q 43.21875 41.609375 39.140625 45 
Q 35.0625 48.390625 27.6875 48.390625 
Q 23 48.390625 18.546875 47.265625 
Q 14.109375 46.140625 10.015625 43.890625 
L 10.015625 52.203125 
Q 14.9375 54.109375 19.578125 55.046875 
Q 24.21875 56 28.609375 56 
Q 40.484375 56 46.34375 49.84375 
Q 52.203125 43.703125 52.203125 31.203125 
z
" id="DejaVuSans-97"/>
       <path d="M 41.109375 46.296875 
Q 39.59375 47.171875 37.8125 47.578125 
Q 36.03125 48 33.890625 48 
Q 26.265625 48 22.1875 43.046875 
Q 18.109375 38.09375 18.109375 28.8125 
L 18.109375 0 
L 9.078125 0 
L 9.078125 54.6875 
L 18.109375 54.6875 
L 18.109375 46.1875 
Q 20.953125 51.171875 25.484375 53.578125 
Q 30.03125 56 36.53125 56 
Q 37.453125 56 38.578125 55.875 
Q 39.703125 55.765625 41.0625 55.515625 
z
" id="DejaVuSans-114"/>
       <path id="DejaVuSans-32"/>
       <path d="M 9.8125 72.90625 
L 51.703125 72.90625 
L 51.703125 64.59375 
L 19.671875 64.59375 
L 19.671875 43.109375 
L 48.578125 43.109375 
L 48.578125 34.8125 
L 19.671875 34.8125 
L 19.671875 0 
L 9.8125 0 
z
" id="DejaVuSans-70"/>
       <path d="M 56.203125 29.59375 
L 56.203125 25.203125 
L 14.890625 25.203125 
Q 15.484375 15.921875 20.484375 11.0625 
Q 25.484375 6.203125 34.421875 6.203125 
Q 39.59375 6.203125 44.453125 7.46875 
Q 49.3125 8.734375 54.109375 11.28125 
L 54.109375 2.78125 
Q 49.265625 0.734375 44.1875 -0.34375 
Q 39.109375 -1.421875 33.890625 -1.421875 
Q 20.796875 -1.421875 13.15625 6.1875 
Q 5.515625 13.8125 5.515625 26.8125 
Q 5.515625 40.234375 12.765625 48.109375 
Q 20.015625 56 32.328125 56 
Q 43.359375 56 49.78125 48.890625 
Q 56.203125 41.796875 56.203125 29.59375 
z
M 47.21875 32.234375 
Q 47.125 39.59375 43.09375 43.984375 
Q 39.0625 48.390625 32.421875 48.390625 
Q 24.90625 48.390625 20.390625 44.140625 
Q 15.875 39.890625 15.1875 32.171875 
z
" id="DejaVuSans-101"/>
       <path d="M 14.796875 27.296875 
Q 14.796875 17.390625 18.875 11.75 
Q 22.953125 6.109375 30.078125 6.109375 
Q 37.203125 6.109375 41.296875 11.75 
Q 45.40625 17.390625 45.40625 27.296875 
Q 45.40625 37.203125 41.296875 42.84375 
Q 37.203125 48.484375 30.078125 48.484375 
Q 22.953125 48.484375 18.875 42.84375 
Q 14.796875 37.203125 14.796875 27.296875 
z
M 45.40625 8.203125 
Q 42.578125 3.328125 38.25 0.953125 
Q 33.9375 -1.421875 27.875 -1.421875 
Q 17.96875 -1.421875 11.734375 6.484375 
Q 5.515625 14.40625 5.515625 27.296875 
Q 5.515625 40.1875 11.734375 48.09375 
Q 17.96875 56 27.875 56 
Q 33.9375 56 38.25 53.625 
Q 42.578125 51.265625 45.40625 46.390625 
L 45.40625 54.6875 
L 54.390625 54.6875 
L 54.390625 -20.796875 
L 45.40625 -20.796875 
z
" id="DejaVuSans-113"/>
       <path d="M 48.78125 52.59375 
L 48.78125 44.1875 
Q 44.96875 46.296875 41.140625 47.34375 
Q 37.3125 48.390625 33.40625 48.390625 
Q 24.65625 48.390625 19.8125 42.84375 
Q 14.984375 37.3125 14.984375 27.296875 
Q 14.984375 17.28125 19.8125 11.734375 
Q 24.65625 6.203125 33.40625 6.203125 
Q 37.3125 6.203125 41.140625 7.25 
Q 44.96875 8.296875 48.78125 10.40625 
L 48.78125 2.09375 
Q 45.015625 0.34375 40.984375 -0.53125 
Q 36.96875 -1.421875 32.421875 -1.421875 
Q 20.0625 -1.421875 12.78125 6.34375 
Q 5.515625 14.109375 5.515625 27.296875 
Q 5.515625 40.671875 12.859375 48.328125 
Q 20.21875 56 33.015625 56 
Q 37.15625 56 41.109375 55.140625 
Q 45.0625 54.296875 48.78125 52.59375 
z
" id="DejaVuSans-99"/>
       <path d="M 32.171875 -5.078125 
Q 28.375 -14.84375 24.75 -17.8125 
Q 21.140625 -20.796875 15.09375 -20.796875 
L 7.90625 -20.796875 
L 7.90625 -13.28125 
L 13.1875 -13.28125 
Q 16.890625 -13.28125 18.9375 -11.515625 
Q 21 -9.765625 23.484375 -3.21875 
L 25.09375 0.875 
L 2.984375 54.6875 
L 12.5 54.6875 
L 29.59375 11.921875 
L 46.6875 54.6875 
L 56.203125 54.6875 
z
" id="DejaVuSans-121"/>
       <path d="M 39.40625 66.21875 
Q 28.65625 66.21875 22.328125 58.203125 
Q 16.015625 50.203125 16.015625 36.375 
Q 16.015625 22.609375 22.328125 14.59375 
Q 28.65625 6.59375 39.40625 6.59375 
Q 50.140625 6.59375 56.421875 14.59375 
Q 62.703125 22.609375 62.703125 36.375 
Q 62.703125 50.203125 56.421875 58.203125 
Q 50.140625 66.21875 39.40625 66.21875 
z
M 39.40625 74.21875 
Q 54.734375 74.21875 63.90625 63.9375 
Q 73.09375 53.65625 73.09375 36.375 
Q 73.09375 19.140625 63.90625 8.859375 
Q 54.734375 -1.421875 39.40625 -1.421875 
Q 24.03125 -1.421875 14.8125 8.828125 
Q 5.609375 19.09375 5.609375 36.375 
Q 5.609375 53.65625 14.8125 63.9375 
Q 24.03125 74.21875 39.40625 74.21875 
z
" id="DejaVuSans-79"/>
       <path d="M 52 44.1875 
Q 55.375 50.25 60.0625 53.125 
Q 64.75 56 71.09375 56 
Q 79.640625 56 84.28125 50.015625 
Q 88.921875 44.046875 88.921875 33.015625 
L 88.921875 0 
L 79.890625 0 
L 79.890625 32.71875 
Q 79.890625 40.578125 77.09375 44.375 
Q 74.3125 48.1875 68.609375 48.1875 
Q 61.625 48.1875 57.5625 43.546875 
Q 53.515625 38.921875 53.515625 30.90625 
L 53.515625 0 
L 44.484375 0 
L 44.484375 32.71875 
Q 44.484375 40.625 41.703125 44.40625 
Q 38.921875 48.1875 33.109375 48.1875 
Q 26.21875 48.1875 22.15625 43.53125 
Q 18.109375 38.875 18.109375 30.90625 
L 18.109375 0 
L 9.078125 0 
L 9.078125 54.6875 
L 18.109375 54.6875 
L 18.109375 46.1875 
Q 21.1875 51.21875 25.484375 53.609375 
Q 29.78125 56 35.6875 56 
Q 41.65625 56 45.828125 52.96875 
Q 50 49.953125 52 44.1875 
z
" id="DejaVuSans-109"/>
      </defs>
      <use xlink:href="#DejaVuSans-65"/>
      <use x="68.408203" xlink:href="#DejaVuSans-110"/>
      <use x="131.787109" xlink:href="#DejaVuSans-103"/>
      <use x="195.263672" xlink:href="#DejaVuSans-117"/>
      <use x="258.642578" xlink:href="#DejaVuSans-108"/>
      <use x="286.425781" xlink:href="#DejaVuSans-97"/>
      <use x="347.705078" xlink:href="#DejaVuSans-114"/>
      <use x="388.818359" xlink:href="#DejaVuSans-32"/>
      <use x="420.605469" xlink:href="#DejaVuSans-70"/>
      <use x="470.875" xlink:href="#DejaVuSans-114"/>
      <use x="509.738281" xlink:href="#DejaVuSans-101"/>
      <use x="571.261719" xlink:href="#DejaVuSans-113"/>
      <use x="634.738281" xlink:href="#DejaVuSans-117"/>
      <use x="698.117188" xlink:href="#DejaVuSans-110"/>
      <use x="761.496094" xlink:href="#DejaVuSans-99"/>
      <use x="816.476562" xlink:href="#DejaVuSans-121"/>
      <use x="875.65625" xlink:href="#DejaVuSans-32"/>
      <use x="907.443359" xlink:href="#DejaVuSans-79"/>
      <use x="986.154297" xlink:href="#DejaVuSans-109"/>
      <use x="1083.566406" xlink:href="#DejaVuSans-101"/>
      <use x="1145.089844" xlink:href="#DejaVuSans-103"/>
      <use x="1208.566406" xlink:href="#DejaVuSans-97"/>
     </g>
    </g>
   </g>
   <g id="matplotlib.axis_2">
    <g id="ytick_1">
     <g id="line2d_8">
      <defs>
       <path d="M 0 0 
L -3.5 0 
" id="maab43911df" style="stroke:#000000;stroke-width:0.8;"/>
      </defs>
      <g>
       <use style="stroke:#000000;stroke-width:0.8;" x="36.465625" xlink:href="#maab43911df" y="229.877464"/>
      </g>
     </g>
     <g id="text_9">
      <!-- 0.00 -->
      <g transform="translate(7.2 233.676682)scale(0.1 -0.1)">
       <defs>
        <path d="M 10.6875 12.40625 
L 21 12.40625 
L 21 0 
L 10.6875 0 
z
" id="DejaVuSans-46"/>
       </defs>
       <use xlink:href="#DejaVuSans-48"/>
       <use x="63.623047" xlink:href="#DejaVuSans-46"/>
       <use x="95.410156" xlink:href="#DejaVuSans-48"/>
       <use x="159.033203" xlink:href="#DejaVuSans-48"/>
      </g>
     </g>
    </g>
    <g id="ytick_2">
     <g id="line2d_9">
      <g>
       <use style="stroke:#000000;stroke-width:0.8;" x="36.465625" xlink:href="#maab43911df" y="205.280977"/>
      </g>
     </g>
     <g id="text_10">
      <!-- 0.05 -->
      <g transform="translate(7.2 209.080196)scale(0.1 -0.1)">
       <use xlink:href="#DejaVuSans-48"/>
       <use x="63.623047" xlink:href="#DejaVuSans-46"/>
       <use x="95.410156" xlink:href="#DejaVuSans-48"/>
       <use x="159.033203" xlink:href="#DejaVuSans-53"/>
      </g>
     </g>
    </g>
    <g id="ytick_3">
     <g id="line2d_10">
      <g>
       <use style="stroke:#000000;stroke-width:0.8;" x="36.465625" xlink:href="#maab43911df" y="180.684491"/>
      </g>
     </g>
     <g id="text_11">
      <!-- 0.10 -->
      <g transform="translate(7.2 184.48371)scale(0.1 -0.1)">
       <use xlink:href="#DejaVuSans-48"/>
       <use x="63.623047" xlink:href="#DejaVuSans-46"/>
       <use x="95.410156" xlink:href="#DejaVuSans-49"/>
       <use x="159.033203" xlink:href="#DejaVuSans-48"/>
      </g>
     </g>
    </g>
    <g id="ytick_4">
     <g id="line2d_11">
      <g>
       <use style="stroke:#000000;stroke-width:0.8;" x="36.465625" xlink:href="#maab43911df" y="156.088005"/>
      </g>
     </g>
     <g id="text_12">
      <!-- 0.15 -->
      <g transform="translate(7.2 159.887223)scale(0.1 -0.1)">
       <use xlink:href="#DejaVuSans-48"/>
       <use x="63.623047" xlink:href="#DejaVuSans-46"/>
       <use x="95.410156" xlink:href="#DejaVuSans-49"/>
       <use x="159.033203" xlink:href="#DejaVuSans-53"/>
      </g>
     </g>
    </g>
    <g id="ytick_5">
     <g id="line2d_12">
      <g>
       <use style="stroke:#000000;stroke-width:0.8;" x="36.465625" xlink:href="#maab43911df" y="131.491518"/>
      </g>
     </g>
     <g id="text_13">
      <!-- 0.20 -->
      <g transform="translate(7.2 135.290737)scale(0.1 -0.1)">
       <use xlink:href="#DejaVuSans-48"/>
       <use x="63.623047" xlink:href="#DejaVuSans-46"/>
       <use x="95.410156" xlink:href="#DejaVuSans-50"/>
       <use x="159.033203" xlink:href="#DejaVuSans-48"/>
      </g>
     </g>
    </g>
    <g id="ytick_6">
     <g id="line2d_13">
      <g>
       <use style="stroke:#000000;stroke-width:0.8;" x="36.465625" xlink:href="#maab43911df" y="106.895032"/>
      </g>
     </g>
     <g id="text_14">
      <!-- 0.25 -->
      <g transform="translate(7.2 110.694251)scale(0.1 -0.1)">
       <use xlink:href="#DejaVuSans-48"/>
       <use x="63.623047" xlink:href="#DejaVuSans-46"/>
       <use x="95.410156" xlink:href="#DejaVuSans-50"/>
       <use x="159.033203" xlink:href="#DejaVuSans-53"/>
      </g>
     </g>
    </g>
    <g id="ytick_7">
     <g id="line2d_14">
      <g>
       <use style="stroke:#000000;stroke-width:0.8;" x="36.465625" xlink:href="#maab43911df" y="82.298546"/>
      </g>
     </g>
     <g id="text_15">
      <!-- 0.30 -->
      <g transform="translate(7.2 86.097765)scale(0.1 -0.1)">
       <use xlink:href="#DejaVuSans-48"/>
       <use x="63.623047" xlink:href="#DejaVuSans-46"/>
       <use x="95.410156" xlink:href="#DejaVuSans-51"/>
       <use x="159.033203" xlink:href="#DejaVuSans-48"/>
      </g>
     </g>
    </g>
    <g id="ytick_8">
     <g id="line2d_15">
      <g>
       <use style="stroke:#000000;stroke-width:0.8;" x="36.465625" xlink:href="#maab43911df" y="57.70206"/>
      </g>
     </g>
     <g id="text_16">
      <!-- 0.35 -->
      <g transform="translate(7.2 61.501278)scale(0.1 -0.1)">
       <use xlink:href="#DejaVuSans-48"/>
       <use x="63.623047" xlink:href="#DejaVuSans-46"/>
       <use x="95.410156" xlink:href="#DejaVuSans-51"/>
       <use x="159.033203" xlink:href="#DejaVuSans-53"/>
      </g>
     </g>
    </g>
    <g id="ytick_9">
     <g id="line2d_16">
      <g>
       <use style="stroke:#000000;stroke-width:0.8;" x="36.465625" xlink:href="#maab43911df" y="33.105573"/>
      </g>
     </g>
     <g id="text_17">
      <!-- 0.40 -->
      <g transform="translate(7.2 36.904792)scale(0.1 -0.1)">
       <use xlink:href="#DejaVuSans-48"/>
       <use x="63.623047" xlink:href="#DejaVuSans-46"/>
       <use x="95.410156" xlink:href="#DejaVuSans-52"/>
       <use x="159.033203" xlink:href="#DejaVuSans-48"/>
      </g>
     </g>
    </g>
   </g>
   <g id="line2d_17">
    <defs>
     <path d="M 0 -2.5 
L -0.561285 -0.772542 
L -2.377641 -0.772542 
L -0.908178 0.295085 
L -1.469463 2.022542 
L -0 0.954915 
L 1.469463 2.022542 
L 0.908178 0.295085 
L 2.377641 -0.772542 
L 0.561285 -0.772542 
z
" id="m41795fce84" style="stroke:#008000;stroke-linejoin:bevel;"/>
    </defs>
    <g clip-path="url(#pd9a8b074cf)">
     <use style="fill:#008000;stroke:#008000;stroke-linejoin:bevel;" x="61.829261" xlink:href="#m41795fce84" y="225.737728"/>
     <use style="fill:#008000;stroke:#008000;stroke-linejoin:bevel;" x="64.391245" xlink:href="#m41795fce84" y="227.663541"/>
     <use style="fill:#008000;stroke:#008000;stroke-linejoin:bevel;" x="66.953228" xlink:href="#m41795fce84" y="228.548756"/>
     <use style="fill:#008000;stroke:#008000;stroke-linejoin:bevel;" x="69.515212" xlink:href="#m41795fce84" y="228.905535"/>
     <use style="fill:#008000;stroke:#008000;stroke-linejoin:bevel;" x="72.077195" xlink:href="#m41795fce84" y="228.984585"/>
     <use style="fill:#008000;stroke:#008000;stroke-linejoin:bevel;" x="74.639179" xlink:href="#m41795fce84" y="229.126105"/>
     <use style="fill:#008000;stroke:#008000;stroke-linejoin:bevel;" x="77.201162" xlink:href="#m41795fce84" y="229.170255"/>
     <use style="fill:#008000;stroke:#008000;stroke-linejoin:bevel;" x="79.763146" xlink:href="#m41795fce84" y="229.517407"/>
     <use style="fill:#008000;stroke:#008000;stroke-linejoin:bevel;" x="82.325129" xlink:href="#m41795fce84" y="228.278385"/>
     <use style="fill:#008000;stroke:#008000;stroke-linejoin:bevel;" x="84.887113" xlink:href="#m41795fce84" y="229.056065"/>
     <use style="fill:#008000;stroke:#008000;stroke-linejoin:bevel;" x="87.449096" xlink:href="#m41795fce84" y="229.207422"/>
     <use style="fill:#008000;stroke:#008000;stroke-linejoin:bevel;" x="90.01108" xlink:href="#m41795fce84" y="229.12112"/>
     <use style="fill:#008000;stroke:#008000;stroke-linejoin:bevel;" x="92.573063" xlink:href="#m41795fce84" y="229.313482"/>
     <use style="fill:#008000;stroke:#008000;stroke-linejoin:bevel;" x="95.135046" xlink:href="#m41795fce84" y="229.460443"/>
     <use style="fill:#008000;stroke:#008000;stroke-linejoin:bevel;" x="97.69703" xlink:href="#m41795fce84" y="229.572445"/>
     <use style="fill:#008000;stroke:#008000;stroke-linejoin:bevel;" x="100.259013" xlink:href="#m41795fce84" y="229.414714"/>
     <use style="fill:#008000;stroke:#008000;stroke-linejoin:bevel;" x="102.820997" xlink:href="#m41795fce84" y="229.04501"/>
     <use style="fill:#008000;stroke:#008000;stroke-linejoin:bevel;" x="105.38298" xlink:href="#m41795fce84" y="229.485789"/>
     <use style="fill:#008000;stroke:#008000;stroke-linejoin:bevel;" x="107.944964" xlink:href="#m41795fce84" y="229.562348"/>
     <use style="fill:#008000;stroke:#008000;stroke-linejoin:bevel;" x="110.506947" xlink:href="#m41795fce84" y="229.451836"/>
     <use style="fill:#008000;stroke:#008000;stroke-linejoin:bevel;" x="113.068931" xlink:href="#m41795fce84" y="229.386759"/>
     <use style="fill:#008000;stroke:#008000;stroke-linejoin:bevel;" x="115.630914" xlink:href="#m41795fce84" y="229.4187"/>
     <use style="fill:#008000;stroke:#008000;stroke-linejoin:bevel;" x="118.192898" xlink:href="#m41795fce84" y="229.485241"/>
     <use style="fill:#008000;stroke:#008000;stroke-linejoin:bevel;" x="120.754881" xlink:href="#m41795fce84" y="229.446808"/>
     <use style="fill:#008000;stroke:#008000;stroke-linejoin:bevel;" x="123.316865" xlink:href="#m41795fce84" y="229.680147"/>
     <use style="fill:#008000;stroke:#008000;stroke-linejoin:bevel;" x="125.878848" xlink:href="#m41795fce84" y="229.611051"/>
     <use style="fill:#008000;stroke:#008000;stroke-linejoin:bevel;" x="128.440832" xlink:href="#m41795fce84" y="229.416882"/>
     <use style="fill:#008000;stroke:#008000;stroke-linejoin:bevel;" x="131.002815" xlink:href="#m41795fce84" y="229.474106"/>
     <use style="fill:#008000;stroke:#008000;stroke-linejoin:bevel;" x="133.564799" xlink:href="#m41795fce84" y="229.324888"/>
     <use style="fill:#008000;stroke:#008000;stroke-linejoin:bevel;" x="136.126782" xlink:href="#m41795fce84" y="229.288367"/>
     <use style="fill:#008000;stroke:#008000;stroke-linejoin:bevel;" x="138.688765" xlink:href="#m41795fce84" y="229.480728"/>
     <use style="fill:#008000;stroke:#008000;stroke-linejoin:bevel;" x="141.250749" xlink:href="#m41795fce84" y="229.272881"/>
     <use style="fill:#008000;stroke:#008000;stroke-linejoin:bevel;" x="143.812732" xlink:href="#m41795fce84" y="229.561289"/>
     <use style="fill:#008000;stroke:#008000;stroke-linejoin:bevel;" x="146.374716" xlink:href="#m41795fce84" y="229.360083"/>
     <use style="fill:#008000;stroke:#008000;stroke-linejoin:bevel;" x="148.936699" xlink:href="#m41795fce84" y="229.484566"/>
     <use style="fill:#008000;stroke:#008000;stroke-linejoin:bevel;" x="151.498683" xlink:href="#m41795fce84" y="229.520002"/>
     <use style="fill:#008000;stroke:#008000;stroke-linejoin:bevel;" x="154.060666" xlink:href="#m41795fce84" y="229.494909"/>
     <use style="fill:#008000;stroke:#008000;stroke-linejoin:bevel;" x="156.62265" xlink:href="#m41795fce84" y="229.448623"/>
     <use style="fill:#008000;stroke:#008000;stroke-linejoin:bevel;" x="159.184633" xlink:href="#m41795fce84" y="229.426131"/>
     <use style="fill:#008000;stroke:#008000;stroke-linejoin:bevel;" x="161.746617" xlink:href="#m41795fce84" y="229.302412"/>
     <use style="fill:#008000;stroke:#008000;stroke-linejoin:bevel;" x="164.3086" xlink:href="#m41795fce84" y="229.277466"/>
     <use style="fill:#008000;stroke:#008000;stroke-linejoin:bevel;" x="166.870584" xlink:href="#m41795fce84" y="229.511469"/>
     <use style="fill:#008000;stroke:#008000;stroke-linejoin:bevel;" x="169.432567" xlink:href="#m41795fce84" y="229.508009"/>
     <use style="fill:#008000;stroke:#008000;stroke-linejoin:bevel;" x="171.994551" xlink:href="#m41795fce84" y="229.282507"/>
     <use style="fill:#008000;stroke:#008000;stroke-linejoin:bevel;" x="174.556534" xlink:href="#m41795fce84" y="229.366546"/>
     <use style="fill:#008000;stroke:#008000;stroke-linejoin:bevel;" x="177.118518" xlink:href="#m41795fce84" y="229.282274"/>
     <use style="fill:#008000;stroke:#008000;stroke-linejoin:bevel;" x="179.680501" xlink:href="#m41795fce84" y="229.244433"/>
     <use style="fill:#008000;stroke:#008000;stroke-linejoin:bevel;" x="182.242485" xlink:href="#m41795fce84" y="229.260115"/>
     <use style="fill:#008000;stroke:#008000;stroke-linejoin:bevel;" x="184.804468" xlink:href="#m41795fce84" y="229.483231"/>
     <use style="fill:#008000;stroke:#008000;stroke-linejoin:bevel;" x="187.366451" xlink:href="#m41795fce84" y="229.434255"/>
     <use style="fill:#008000;stroke:#008000;stroke-linejoin:bevel;" x="189.928435" xlink:href="#m41795fce84" y="229.252065"/>
     <use style="fill:#008000;stroke:#008000;stroke-linejoin:bevel;" x="192.490418" xlink:href="#m41795fce84" y="229.415947"/>
     <use style="fill:#008000;stroke:#008000;stroke-linejoin:bevel;" x="195.052402" xlink:href="#m41795fce84" y="229.398801"/>
     <use style="fill:#008000;stroke:#008000;stroke-linejoin:bevel;" x="197.614385" xlink:href="#m41795fce84" y="229.279499"/>
     <use style="fill:#008000;stroke:#008000;stroke-linejoin:bevel;" x="200.176369" xlink:href="#m41795fce84" y="229.265206"/>
     <use style="fill:#008000;stroke:#008000;stroke-linejoin:bevel;" x="202.738352" xlink:href="#m41795fce84" y="229.311913"/>
     <use style="fill:#008000;stroke:#008000;stroke-linejoin:bevel;" x="205.300336" xlink:href="#m41795fce84" y="229.352824"/>
     <use style="fill:#008000;stroke:#008000;stroke-linejoin:bevel;" x="207.862319" xlink:href="#m41795fce84" y="229.311166"/>
     <use style="fill:#008000;stroke:#008000;stroke-linejoin:bevel;" x="210.424303" xlink:href="#m41795fce84" y="229.303717"/>
     <use style="fill:#008000;stroke:#008000;stroke-linejoin:bevel;" x="212.986286" xlink:href="#m41795fce84" y="229.357112"/>
     <use style="fill:#008000;stroke:#008000;stroke-linejoin:bevel;" x="215.54827" xlink:href="#m41795fce84" y="229.278224"/>
     <use style="fill:#008000;stroke:#008000;stroke-linejoin:bevel;" x="218.110253" xlink:href="#m41795fce84" y="229.138271"/>
     <use style="fill:#008000;stroke:#008000;stroke-linejoin:bevel;" x="220.672237" xlink:href="#m41795fce84" y="229.150586"/>
     <use style="fill:#008000;stroke:#008000;stroke-linejoin:bevel;" x="223.23422" xlink:href="#m41795fce84" y="229.193302"/>
     <use style="fill:#008000;stroke:#008000;stroke-linejoin:bevel;" x="225.796204" xlink:href="#m41795fce84" y="228.956032"/>
     <use style="fill:#008000;stroke:#008000;stroke-linejoin:bevel;" x="228.358187" xlink:href="#m41795fce84" y="228.994288"/>
     <use style="fill:#008000;stroke:#008000;stroke-linejoin:bevel;" x="230.92017" xlink:href="#m41795fce84" y="228.860986"/>
     <use style="fill:#008000;stroke:#008000;stroke-linejoin:bevel;" x="233.482154" xlink:href="#m41795fce84" y="229.10722"/>
     <use style="fill:#008000;stroke:#008000;stroke-linejoin:bevel;" x="236.044137" xlink:href="#m41795fce84" y="229.077951"/>
     <use style="fill:#008000;stroke:#008000;stroke-linejoin:bevel;" x="238.606121" xlink:href="#m41795fce84" y="229.114326"/>
     <use style="fill:#008000;stroke:#008000;stroke-linejoin:bevel;" x="241.168104" xlink:href="#m41795fce84" y="228.98904"/>
     <use style="fill:#008000;stroke:#008000;stroke-linejoin:bevel;" x="243.730088" xlink:href="#m41795fce84" y="228.722604"/>
     <use style="fill:#008000;stroke:#008000;stroke-linejoin:bevel;" x="246.292071" xlink:href="#m41795fce84" y="228.861942"/>
     <use style="fill:#008000;stroke:#008000;stroke-linejoin:bevel;" x="248.854055" xlink:href="#m41795fce84" y="229.061142"/>
     <use style="fill:#008000;stroke:#008000;stroke-linejoin:bevel;" x="251.416038" xlink:href="#m41795fce84" y="229.032806"/>
     <use style="fill:#008000;stroke:#008000;stroke-linejoin:bevel;" x="253.978022" xlink:href="#m41795fce84" y="228.841005"/>
     <use style="fill:#008000;stroke:#008000;stroke-linejoin:bevel;" x="256.540005" xlink:href="#m41795fce84" y="228.863345"/>
     <use style="fill:#008000;stroke:#008000;stroke-linejoin:bevel;" x="259.101989" xlink:href="#m41795fce84" y="228.712992"/>
     <use style="fill:#008000;stroke:#008000;stroke-linejoin:bevel;" x="261.663972" xlink:href="#m41795fce84" y="228.725742"/>
     <use style="fill:#008000;stroke:#008000;stroke-linejoin:bevel;" x="264.225956" xlink:href="#m41795fce84" y="228.713183"/>
     <use style="fill:#008000;stroke:#008000;stroke-linejoin:bevel;" x="266.787939" xlink:href="#m41795fce84" y="228.069433"/>
     <use style="fill:#008000;stroke:#008000;stroke-linejoin:bevel;" x="269.349923" xlink:href="#m41795fce84" y="228.688269"/>
     <use style="fill:#008000;stroke:#008000;stroke-linejoin:bevel;" x="271.911906" xlink:href="#m41795fce84" y="227.858507"/>
     <use style="fill:#008000;stroke:#008000;stroke-linejoin:bevel;" x="274.473889" xlink:href="#m41795fce84" y="228.2593"/>
     <use style="fill:#008000;stroke:#008000;stroke-linejoin:bevel;" x="277.035873" xlink:href="#m41795fce84" y="228.108473"/>
     <use style="fill:#008000;stroke:#008000;stroke-linejoin:bevel;" x="279.597856" xlink:href="#m41795fce84" y="227.927672"/>
     <use style="fill:#008000;stroke:#008000;stroke-linejoin:bevel;" x="282.15984" xlink:href="#m41795fce84" y="227.681026"/>
     <use style="fill:#008000;stroke:#008000;stroke-linejoin:bevel;" x="284.721823" xlink:href="#m41795fce84" y="227.699005"/>
     <use style="fill:#008000;stroke:#008000;stroke-linejoin:bevel;" x="287.283807" xlink:href="#m41795fce84" y="227.048175"/>
     <use style="fill:#008000;stroke:#008000;stroke-linejoin:bevel;" x="289.84579" xlink:href="#m41795fce84" y="225.806909"/>
     <use style="fill:#008000;stroke:#008000;stroke-linejoin:bevel;" x="292.407774" xlink:href="#m41795fce84" y="206.818689"/>
     <use style="fill:#008000;stroke:#008000;stroke-linejoin:bevel;" x="294.969757" xlink:href="#m41795fce84" y="228.364496"/>
     <use style="fill:#008000;stroke:#008000;stroke-linejoin:bevel;" x="297.531741" xlink:href="#m41795fce84" y="227.198307"/>
     <use style="fill:#008000;stroke:#008000;stroke-linejoin:bevel;" x="300.093724" xlink:href="#m41795fce84" y="226.575448"/>
     <use style="fill:#008000;stroke:#008000;stroke-linejoin:bevel;" x="302.655708" xlink:href="#m41795fce84" y="225.688994"/>
     <use style="fill:#008000;stroke:#008000;stroke-linejoin:bevel;" x="305.217691" xlink:href="#m41795fce84" y="224.545095"/>
     <use style="fill:#008000;stroke:#008000;stroke-linejoin:bevel;" x="307.779675" xlink:href="#m41795fce84" y="222.71596"/>
     <use style="fill:#008000;stroke:#008000;stroke-linejoin:bevel;" x="310.341658" xlink:href="#m41795fce84" y="218.826187"/>
     <use style="fill:#008000;stroke:#008000;stroke-linejoin:bevel;" x="312.903642" xlink:href="#m41795fce84" y="207.662649"/>
     <use style="fill:#008000;stroke:#008000;stroke-linejoin:bevel;" x="315.465625" xlink:href="#m41795fce84" y="32.201761"/>
     <use style="fill:#008000;stroke:#008000;stroke-linejoin:bevel;" x="318.027608" xlink:href="#m41795fce84" y="206.862131"/>
     <use style="fill:#008000;stroke:#008000;stroke-linejoin:bevel;" x="320.589592" xlink:href="#m41795fce84" y="218.876238"/>
     <use style="fill:#008000;stroke:#008000;stroke-linejoin:bevel;" x="323.151575" xlink:href="#m41795fce84" y="222.618228"/>
     <use style="fill:#008000;stroke:#008000;stroke-linejoin:bevel;" x="325.713559" xlink:href="#m41795fce84" y="224.503212"/>
     <use style="fill:#008000;stroke:#008000;stroke-linejoin:bevel;" x="328.275542" xlink:href="#m41795fce84" y="225.564774"/>
     <use style="fill:#008000;stroke:#008000;stroke-linejoin:bevel;" x="330.837526" xlink:href="#m41795fce84" y="226.225029"/>
     <use style="fill:#008000;stroke:#008000;stroke-linejoin:bevel;" x="333.399509" xlink:href="#m41795fce84" y="226.708304"/>
     <use style="fill:#008000;stroke:#008000;stroke-linejoin:bevel;" x="335.961493" xlink:href="#m41795fce84" y="227.055716"/>
     <use style="fill:#008000;stroke:#008000;stroke-linejoin:bevel;" x="338.523476" xlink:href="#m41795fce84" y="228.161012"/>
     <use style="fill:#008000;stroke:#008000;stroke-linejoin:bevel;" x="341.08546" xlink:href="#m41795fce84" y="228.215116"/>
     <use style="fill:#008000;stroke:#008000;stroke-linejoin:bevel;" x="343.647443" xlink:href="#m41795fce84" y="227.723505"/>
     <use style="fill:#008000;stroke:#008000;stroke-linejoin:bevel;" x="346.209427" xlink:href="#m41795fce84" y="228.094822"/>
     <use style="fill:#008000;stroke:#008000;stroke-linejoin:bevel;" x="348.77141" xlink:href="#m41795fce84" y="228.15089"/>
     <use style="fill:#008000;stroke:#008000;stroke-linejoin:bevel;" x="351.333394" xlink:href="#m41795fce84" y="228.599511"/>
     <use style="fill:#008000;stroke:#008000;stroke-linejoin:bevel;" x="353.895377" xlink:href="#m41795fce84" y="228.44646"/>
     <use style="fill:#008000;stroke:#008000;stroke-linejoin:bevel;" x="356.457361" xlink:href="#m41795fce84" y="228.52867"/>
     <use style="fill:#008000;stroke:#008000;stroke-linejoin:bevel;" x="359.019344" xlink:href="#m41795fce84" y="228.594926"/>
     <use style="fill:#008000;stroke:#008000;stroke-linejoin:bevel;" x="361.581327" xlink:href="#m41795fce84" y="228.54176"/>
     <use style="fill:#008000;stroke:#008000;stroke-linejoin:bevel;" x="364.143311" xlink:href="#m41795fce84" y="229.00089"/>
     <use style="fill:#008000;stroke:#008000;stroke-linejoin:bevel;" x="366.705294" xlink:href="#m41795fce84" y="228.568637"/>
     <use style="fill:#008000;stroke:#008000;stroke-linejoin:bevel;" x="369.267278" xlink:href="#m41795fce84" y="228.777275"/>
     <use style="fill:#008000;stroke:#008000;stroke-linejoin:bevel;" x="371.829261" xlink:href="#m41795fce84" y="228.677777"/>
     <use style="fill:#008000;stroke:#008000;stroke-linejoin:bevel;" x="374.391245" xlink:href="#m41795fce84" y="228.987067"/>
     <use style="fill:#008000;stroke:#008000;stroke-linejoin:bevel;" x="376.953228" xlink:href="#m41795fce84" y="228.968794"/>
     <use style="fill:#008000;stroke:#008000;stroke-linejoin:bevel;" x="379.515212" xlink:href="#m41795fce84" y="228.979143"/>
     <use style="fill:#008000;stroke:#008000;stroke-linejoin:bevel;" x="382.077195" xlink:href="#m41795fce84" y="229.130571"/>
     <use style="fill:#008000;stroke:#008000;stroke-linejoin:bevel;" x="384.639179" xlink:href="#m41795fce84" y="229.010521"/>
     <use style="fill:#008000;stroke:#008000;stroke-linejoin:bevel;" x="387.201162" xlink:href="#m41795fce84" y="229.077692"/>
     <use style="fill:#008000;stroke:#008000;stroke-linejoin:bevel;" x="389.763146" xlink:href="#m41795fce84" y="229.085882"/>
     <use style="fill:#008000;stroke:#008000;stroke-linejoin:bevel;" x="392.325129" xlink:href="#m41795fce84" y="229.043084"/>
     <use style="fill:#008000;stroke:#008000;stroke-linejoin:bevel;" x="394.887113" xlink:href="#m41795fce84" y="229.201286"/>
     <use style="fill:#008000;stroke:#008000;stroke-linejoin:bevel;" x="397.449096" xlink:href="#m41795fce84" y="229.064557"/>
     <use style="fill:#008000;stroke:#008000;stroke-linejoin:bevel;" x="400.01108" xlink:href="#m41795fce84" y="229.289247"/>
     <use style="fill:#008000;stroke:#008000;stroke-linejoin:bevel;" x="402.573063" xlink:href="#m41795fce84" y="229.094042"/>
     <use style="fill:#008000;stroke:#008000;stroke-linejoin:bevel;" x="405.135046" xlink:href="#m41795fce84" y="229.275481"/>
     <use style="fill:#008000;stroke:#008000;stroke-linejoin:bevel;" x="407.69703" xlink:href="#m41795fce84" y="229.208879"/>
     <use style="fill:#008000;stroke:#008000;stroke-linejoin:bevel;" x="410.259013" xlink:href="#m41795fce84" y="229.241876"/>
     <use style="fill:#008000;stroke:#008000;stroke-linejoin:bevel;" x="412.820997" xlink:href="#m41795fce84" y="229.23124"/>
     <use style="fill:#008000;stroke:#008000;stroke-linejoin:bevel;" x="415.38298" xlink:href="#m41795fce84" y="229.201794"/>
     <use style="fill:#008000;stroke:#008000;stroke-linejoin:bevel;" x="417.944964" xlink:href="#m41795fce84" y="229.313998"/>
     <use style="fill:#008000;stroke:#008000;stroke-linejoin:bevel;" x="420.506947" xlink:href="#m41795fce84" y="229.316971"/>
     <use style="fill:#008000;stroke:#008000;stroke-linejoin:bevel;" x="423.068931" xlink:href="#m41795fce84" y="229.231921"/>
     <use style="fill:#008000;stroke:#008000;stroke-linejoin:bevel;" x="425.630914" xlink:href="#m41795fce84" y="229.518615"/>
     <use style="fill:#008000;stroke:#008000;stroke-linejoin:bevel;" x="428.192898" xlink:href="#m41795fce84" y="229.341609"/>
     <use style="fill:#008000;stroke:#008000;stroke-linejoin:bevel;" x="430.754881" xlink:href="#m41795fce84" y="229.343592"/>
     <use style="fill:#008000;stroke:#008000;stroke-linejoin:bevel;" x="433.316865" xlink:href="#m41795fce84" y="229.364624"/>
     <use style="fill:#008000;stroke:#008000;stroke-linejoin:bevel;" x="435.878848" xlink:href="#m41795fce84" y="229.184993"/>
     <use style="fill:#008000;stroke:#008000;stroke-linejoin:bevel;" x="438.440832" xlink:href="#m41795fce84" y="229.354499"/>
     <use style="fill:#008000;stroke:#008000;stroke-linejoin:bevel;" x="441.002815" xlink:href="#m41795fce84" y="229.52404"/>
     <use style="fill:#008000;stroke:#008000;stroke-linejoin:bevel;" x="443.564799" xlink:href="#m41795fce84" y="229.385721"/>
     <use style="fill:#008000;stroke:#008000;stroke-linejoin:bevel;" x="446.126782" xlink:href="#m41795fce84" y="229.37124"/>
     <use style="fill:#008000;stroke:#008000;stroke-linejoin:bevel;" x="448.688765" xlink:href="#m41795fce84" y="229.408281"/>
     <use style="fill:#008000;stroke:#008000;stroke-linejoin:bevel;" x="451.250749" xlink:href="#m41795fce84" y="229.549985"/>
     <use style="fill:#008000;stroke:#008000;stroke-linejoin:bevel;" x="453.812732" xlink:href="#m41795fce84" y="229.449567"/>
     <use style="fill:#008000;stroke:#008000;stroke-linejoin:bevel;" x="456.374716" xlink:href="#m41795fce84" y="229.484445"/>
     <use style="fill:#008000;stroke:#008000;stroke-linejoin:bevel;" x="458.936699" xlink:href="#m41795fce84" y="229.470939"/>
     <use style="fill:#008000;stroke:#008000;stroke-linejoin:bevel;" x="461.498683" xlink:href="#m41795fce84" y="229.49284"/>
     <use style="fill:#008000;stroke:#008000;stroke-linejoin:bevel;" x="464.060666" xlink:href="#m41795fce84" y="229.575478"/>
     <use style="fill:#008000;stroke:#008000;stroke-linejoin:bevel;" x="466.62265" xlink:href="#m41795fce84" y="229.648674"/>
     <use style="fill:#008000;stroke:#008000;stroke-linejoin:bevel;" x="469.184633" xlink:href="#m41795fce84" y="229.652619"/>
     <use style="fill:#008000;stroke:#008000;stroke-linejoin:bevel;" x="471.746617" xlink:href="#m41795fce84" y="229.36839"/>
     <use style="fill:#008000;stroke:#008000;stroke-linejoin:bevel;" x="474.3086" xlink:href="#m41795fce84" y="229.331028"/>
     <use style="fill:#008000;stroke:#008000;stroke-linejoin:bevel;" x="476.870584" xlink:href="#m41795fce84" y="229.530052"/>
     <use style="fill:#008000;stroke:#008000;stroke-linejoin:bevel;" x="479.432567" xlink:href="#m41795fce84" y="229.531068"/>
     <use style="fill:#008000;stroke:#008000;stroke-linejoin:bevel;" x="481.994551" xlink:href="#m41795fce84" y="229.673678"/>
     <use style="fill:#008000;stroke:#008000;stroke-linejoin:bevel;" x="484.556534" xlink:href="#m41795fce84" y="229.415472"/>
     <use style="fill:#008000;stroke:#008000;stroke-linejoin:bevel;" x="487.118518" xlink:href="#m41795fce84" y="229.445351"/>
     <use style="fill:#008000;stroke:#008000;stroke-linejoin:bevel;" x="489.680501" xlink:href="#m41795fce84" y="229.730559"/>
     <use style="fill:#008000;stroke:#008000;stroke-linejoin:bevel;" x="492.242485" xlink:href="#m41795fce84" y="229.504142"/>
     <use style="fill:#008000;stroke:#008000;stroke-linejoin:bevel;" x="494.804468" xlink:href="#m41795fce84" y="229.758203"/>
     <use style="fill:#008000;stroke:#008000;stroke-linejoin:bevel;" x="497.366451" xlink:href="#m41795fce84" y="229.473101"/>
     <use style="fill:#008000;stroke:#008000;stroke-linejoin:bevel;" x="499.928435" xlink:href="#m41795fce84" y="229.621854"/>
     <use style="fill:#008000;stroke:#008000;stroke-linejoin:bevel;" x="502.490418" xlink:href="#m41795fce84" y="229.688827"/>
     <use style="fill:#008000;stroke:#008000;stroke-linejoin:bevel;" x="505.052402" xlink:href="#m41795fce84" y="229.545185"/>
     <use style="fill:#008000;stroke:#008000;stroke-linejoin:bevel;" x="507.614385" xlink:href="#m41795fce84" y="229.580401"/>
     <use style="fill:#008000;stroke:#008000;stroke-linejoin:bevel;" x="510.176369" xlink:href="#m41795fce84" y="229.530345"/>
     <use style="fill:#008000;stroke:#008000;stroke-linejoin:bevel;" x="512.738352" xlink:href="#m41795fce84" y="229.640163"/>
     <use style="fill:#008000;stroke:#008000;stroke-linejoin:bevel;" x="515.300336" xlink:href="#m41795fce84" y="229.729552"/>
     <use style="fill:#008000;stroke:#008000;stroke-linejoin:bevel;" x="517.862319" xlink:href="#m41795fce84" y="229.719667"/>
     <use style="fill:#008000;stroke:#008000;stroke-linejoin:bevel;" x="520.424303" xlink:href="#m41795fce84" y="229.666979"/>
     <use style="fill:#008000;stroke:#008000;stroke-linejoin:bevel;" x="522.986286" xlink:href="#m41795fce84" y="229.611388"/>
     <use style="fill:#008000;stroke:#008000;stroke-linejoin:bevel;" x="525.54827" xlink:href="#m41795fce84" y="229.5979"/>
     <use style="fill:#008000;stroke:#008000;stroke-linejoin:bevel;" x="528.110253" xlink:href="#m41795fce84" y="229.669441"/>
     <use style="fill:#008000;stroke:#008000;stroke-linejoin:bevel;" x="530.672237" xlink:href="#m41795fce84" y="229.723466"/>
     <use style="fill:#008000;stroke:#008000;stroke-linejoin:bevel;" x="533.23422" xlink:href="#m41795fce84" y="229.721678"/>
     <use style="fill:#008000;stroke:#008000;stroke-linejoin:bevel;" x="535.796204" xlink:href="#m41795fce84" y="229.620237"/>
     <use style="fill:#008000;stroke:#008000;stroke-linejoin:bevel;" x="538.358187" xlink:href="#m41795fce84" y="229.690156"/>
     <use style="fill:#008000;stroke:#008000;stroke-linejoin:bevel;" x="540.92017" xlink:href="#m41795fce84" y="229.872886"/>
     <use style="fill:#008000;stroke:#008000;stroke-linejoin:bevel;" x="543.482154" xlink:href="#m41795fce84" y="229.733786"/>
     <use style="fill:#008000;stroke:#008000;stroke-linejoin:bevel;" x="546.044137" xlink:href="#m41795fce84" y="229.531224"/>
     <use style="fill:#008000;stroke:#008000;stroke-linejoin:bevel;" x="548.606121" xlink:href="#m41795fce84" y="228.547681"/>
     <use style="fill:#008000;stroke:#008000;stroke-linejoin:bevel;" x="551.168104" xlink:href="#m41795fce84" y="229.2184"/>
     <use style="fill:#008000;stroke:#008000;stroke-linejoin:bevel;" x="553.730088" xlink:href="#m41795fce84" y="229.454228"/>
     <use style="fill:#008000;stroke:#008000;stroke-linejoin:bevel;" x="556.292071" xlink:href="#m41795fce84" y="229.556568"/>
     <use style="fill:#008000;stroke:#008000;stroke-linejoin:bevel;" x="558.854055" xlink:href="#m41795fce84" y="229.543096"/>
     <use style="fill:#008000;stroke:#008000;stroke-linejoin:bevel;" x="561.416038" xlink:href="#m41795fce84" y="229.577289"/>
     <use style="fill:#008000;stroke:#008000;stroke-linejoin:bevel;" x="563.978022" xlink:href="#m41795fce84" y="229.616107"/>
     <use style="fill:#008000;stroke:#008000;stroke-linejoin:bevel;" x="566.540005" xlink:href="#m41795fce84" y="229.074513"/>
     <use style="fill:#008000;stroke:#008000;stroke-linejoin:bevel;" x="569.101989" xlink:href="#m41795fce84" y="228.673281"/>
    </g>
   </g>
   <g id="line2d_18">
    <path clip-path="url(#pd9a8b074cf)" d="M 61.829261 225.737728 
L 64.391245 227.663541 
L 66.953228 228.548756 
L 69.515212 228.905535 
L 77.201162 229.170255 
L 79.763146 229.517407 
L 82.325129 228.278385 
L 84.887113 229.056065 
L 87.449096 229.207422 
L 90.01108 229.12112 
L 95.135046 229.460443 
L 97.69703 229.572445 
L 100.259013 229.414714 
L 102.820997 229.04501 
L 105.38298 229.485789 
L 107.944964 229.562348 
L 113.068931 229.386759 
L 120.754881 229.446808 
L 123.316865 229.680147 
L 125.878848 229.611051 
L 128.440832 229.416882 
L 131.002815 229.474106 
L 133.564799 229.324888 
L 136.126782 229.288367 
L 138.688765 229.480728 
L 141.250749 229.272881 
L 143.812732 229.561289 
L 146.374716 229.360083 
L 151.498683 229.520002 
L 159.184633 229.426131 
L 164.3086 229.277466 
L 166.870584 229.511469 
L 169.432567 229.508009 
L 171.994551 229.282507 
L 174.556534 229.366546 
L 179.680501 229.244433 
L 182.242485 229.260115 
L 184.804468 229.483231 
L 187.366451 229.434255 
L 189.928435 229.252065 
L 192.490418 229.415947 
L 223.23422 229.193302 
L 225.796204 228.956032 
L 228.358187 228.994288 
L 230.92017 228.860986 
L 233.482154 229.10722 
L 241.168104 228.98904 
L 243.730088 228.722604 
L 251.416038 229.032806 
L 253.978022 228.841005 
L 256.540005 228.863345 
L 259.101989 228.712992 
L 264.225956 228.713183 
L 266.787939 228.069433 
L 269.349923 228.688269 
L 271.911906 227.858507 
L 274.473889 228.2593 
L 279.597856 227.927672 
L 282.15984 227.681026 
L 284.721823 227.699005 
L 287.283807 227.048175 
L 289.84579 225.806909 
L 292.407774 206.818689 
L 294.969757 228.364496 
L 297.531741 227.198307 
L 300.093724 226.575448 
L 302.655708 225.688994 
L 305.217691 224.545095 
L 307.779675 222.71596 
L 310.341658 218.826187 
L 312.903642 207.662649 
L 315.465625 32.201761 
L 318.027608 206.862131 
L 320.589592 218.876238 
L 323.151575 222.618228 
L 325.713559 224.503212 
L 328.275542 225.564774 
L 330.837526 226.225029 
L 333.399509 226.708304 
L 335.961493 227.055716 
L 338.523476 228.161012 
L 341.08546 228.215116 
L 343.647443 227.723505 
L 346.209427 228.094822 
L 348.77141 228.15089 
L 351.333394 228.599511 
L 353.895377 228.44646 
L 359.019344 228.594926 
L 361.581327 228.54176 
L 364.143311 229.00089 
L 366.705294 228.568637 
L 369.267278 228.777275 
L 371.829261 228.677777 
L 374.391245 228.987067 
L 379.515212 228.979143 
L 382.077195 229.130571 
L 384.639179 229.010521 
L 389.763146 229.085882 
L 392.325129 229.043084 
L 394.887113 229.201286 
L 397.449096 229.064557 
L 400.01108 229.289247 
L 402.573063 229.094042 
L 405.135046 229.275481 
L 410.259013 229.241876 
L 417.944964 229.313998 
L 423.068931 229.231921 
L 425.630914 229.518615 
L 428.192898 229.341609 
L 433.316865 229.364624 
L 435.878848 229.184993 
L 441.002815 229.52404 
L 443.564799 229.385721 
L 448.688765 229.408281 
L 451.250749 229.549985 
L 453.812732 229.449567 
L 469.184633 229.652619 
L 471.746617 229.36839 
L 474.3086 229.331028 
L 476.870584 229.530052 
L 479.432567 229.531068 
L 481.994551 229.673678 
L 484.556534 229.415472 
L 487.118518 229.445351 
L 489.680501 229.730559 
L 492.242485 229.504142 
L 494.804468 229.758203 
L 497.366451 229.473101 
L 502.490418 229.688827 
L 505.052402 229.545185 
L 520.424303 229.666979 
L 525.54827 229.5979 
L 533.23422 229.721678 
L 535.796204 229.620237 
L 538.358187 229.690156 
L 540.92017 229.872886 
L 546.044137 229.531224 
L 548.606121 228.547681 
L 551.168104 229.2184 
L 553.730088 229.454228 
L 556.292071 229.556568 
L 563.978022 229.616107 
L 566.540005 229.074513 
L 569.101989 228.673281 
L 569.101989 228.673281 
" style="fill:none;stroke:#008000;stroke-linecap:square;stroke-width:1.5;"/>
   </g>
   <g id="line2d_19">
    <path clip-path="url(#pd9a8b074cf)" d="M 61.829261 229.874489 
L 274.473889 229.763718 
L 289.84579 229.58669 
L 297.531741 229.285316 
L 300.093724 229.072627 
L 302.655708 228.721116 
L 305.217691 228.077864 
L 307.779675 226.704368 
L 310.341658 222.894389 
L 312.903642 204.777345 
L 315.465625 32.281083 
L 318.027608 204.147044 
L 320.589592 222.797893 
L 323.151575 226.674612 
L 325.713559 228.065132 
L 328.275542 228.714554 
L 330.837526 229.068816 
L 335.961493 229.422053 
L 343.647443 229.636441 
L 359.019344 229.776525 
L 402.573063 229.85223 
L 569.101989 229.874488 
L 569.101989 229.874488 
" style="fill:none;stroke:#ff0000;stroke-linecap:square;stroke-width:1.5;"/>
   </g>
   <g id="patch_3">
    <path d="M 36.465625 239.758125 
L 36.465625 22.318125 
" style="fill:none;stroke:#000000;stroke-linecap:square;stroke-linejoin:miter;stroke-width:0.8;"/>
   </g>
   <g id="patch_4">
    <path d="M 594.465625 239.758125 
L 594.465625 22.318125 
" style="fill:none;stroke:#000000;stroke-linecap:square;stroke-linejoin:miter;stroke-width:0.8;"/>
   </g>
   <g id="patch_5">
    <path d="M 36.465625 239.758125 
L 594.465625 239.758125 
" style="fill:none;stroke:#000000;stroke-linecap:square;stroke-linejoin:miter;stroke-width:0.8;"/>
   </g>
   <g id="patch_6">
    <path d="M 36.465625 22.318125 
L 594.465625 22.318125 
" style="fill:none;stroke:#000000;stroke-linecap:square;stroke-linejoin:miter;stroke-width:0.8;"/>
   </g>
   <g id="text_18">
    <!-- Left Pendulum -->
    <g transform="translate(272.449375 16.318125)scale(0.12 -0.12)">
     <defs>
      <path d="M 9.8125 72.90625 
L 19.671875 72.90625 
L 19.671875 8.296875 
L 55.171875 8.296875 
L 55.171875 0 
L 9.8125 0 
z
" id="DejaVuSans-76"/>
      <path d="M 37.109375 75.984375 
L 37.109375 68.5 
L 28.515625 68.5 
Q 23.6875 68.5 21.796875 66.546875 
Q 19.921875 64.59375 19.921875 59.515625 
L 19.921875 54.6875 
L 34.71875 54.6875 
L 34.71875 47.703125 
L 19.921875 47.703125 
L 19.921875 0 
L 10.890625 0 
L 10.890625 47.703125 
L 2.296875 47.703125 
L 2.296875 54.6875 
L 10.890625 54.6875 
L 10.890625 58.5 
Q 10.890625 67.625 15.140625 71.796875 
Q 19.390625 75.984375 28.609375 75.984375 
z
" id="DejaVuSans-102"/>
      <path d="M 18.3125 70.21875 
L 18.3125 54.6875 
L 36.8125 54.6875 
L 36.8125 47.703125 
L 18.3125 47.703125 
L 18.3125 18.015625 
Q 18.3125 11.328125 20.140625 9.421875 
Q 21.96875 7.515625 27.59375 7.515625 
L 36.8125 7.515625 
L 36.8125 0 
L 27.59375 0 
Q 17.1875 0 13.234375 3.875 
Q 9.28125 7.765625 9.28125 18.015625 
L 9.28125 47.703125 
L 2.6875 47.703125 
L 2.6875 54.6875 
L 9.28125 54.6875 
L 9.28125 70.21875 
z
" id="DejaVuSans-116"/>
      <path d="M 19.671875 64.796875 
L 19.671875 37.40625 
L 32.078125 37.40625 
Q 38.96875 37.40625 42.71875 40.96875 
Q 46.484375 44.53125 46.484375 51.125 
Q 46.484375 57.671875 42.71875 61.234375 
Q 38.96875 64.796875 32.078125 64.796875 
z
M 9.8125 72.90625 
L 32.078125 72.90625 
Q 44.34375 72.90625 50.609375 67.359375 
Q 56.890625 61.8125 56.890625 51.125 
Q 56.890625 40.328125 50.609375 34.8125 
Q 44.34375 29.296875 32.078125 29.296875 
L 19.671875 29.296875 
L 19.671875 0 
L 9.8125 0 
z
" id="DejaVuSans-80"/>
      <path d="M 45.40625 46.390625 
L 45.40625 75.984375 
L 54.390625 75.984375 
L 54.390625 0 
L 45.40625 0 
L 45.40625 8.203125 
Q 42.578125 3.328125 38.25 0.953125 
Q 33.9375 -1.421875 27.875 -1.421875 
Q 17.96875 -1.421875 11.734375 6.484375 
Q 5.515625 14.40625 5.515625 27.296875 
Q 5.515625 40.1875 11.734375 48.09375 
Q 17.96875 56 27.875 56 
Q 33.9375 56 38.25 53.625 
Q 42.578125 51.265625 45.40625 46.390625 
z
M 14.796875 27.296875 
Q 14.796875 17.390625 18.875 11.75 
Q 22.953125 6.109375 30.078125 6.109375 
Q 37.203125 6.109375 41.296875 11.75 
Q 45.40625 17.390625 45.40625 27.296875 
Q 45.40625 37.203125 41.296875 42.84375 
Q 37.203125 48.484375 30.078125 48.484375 
Q 22.953125 48.484375 18.875 42.84375 
Q 14.796875 37.203125 14.796875 27.296875 
z
" id="DejaVuSans-100"/>
     </defs>
     <use xlink:href="#DejaVuSans-76"/>
     <use x="53.962891" xlink:href="#DejaVuSans-101"/>
     <use x="115.486328" xlink:href="#DejaVuSans-102"/>
     <use x="148.941406" xlink:href="#DejaVuSans-116"/>
     <use x="188.150391" xlink:href="#DejaVuSans-32"/>
     <use x="219.9375" xlink:href="#DejaVuSans-80"/>
     <use x="276.615234" xlink:href="#DejaVuSans-101"/>
     <use x="338.138672" xlink:href="#DejaVuSans-110"/>
     <use x="401.517578" xlink:href="#DejaVuSans-100"/>
     <use x="464.994141" xlink:href="#DejaVuSans-117"/>
     <use x="528.373047" xlink:href="#DejaVuSans-108"/>
     <use x="556.15625" xlink:href="#DejaVuSans-117"/>
     <use x="619.535156" xlink:href="#DejaVuSans-109"/>
    </g>
   </g>
   <g id="legend_1">
    <g id="patch_7">
     <path d="M 472.734375 59.674375 
L 587.465625 59.674375 
Q 589.465625 59.674375 589.465625 57.674375 
L 589.465625 29.318125 
Q 589.465625 27.318125 587.465625 27.318125 
L 472.734375 27.318125 
Q 470.734375 27.318125 470.734375 29.318125 
L 470.734375 57.674375 
Q 470.734375 59.674375 472.734375 59.674375 
z
" style="fill:#ffffff;opacity:0.8;stroke:#cccccc;stroke-linejoin:miter;"/>
    </g>
    <g id="line2d_20">
     <path d="M 474.734375 35.416562 
L 494.734375 35.416562 
" style="fill:none;stroke:#008000;stroke-linecap:square;stroke-width:1.5;"/>
    </g>
    <g id="line2d_21"/>
    <g id="text_19">
     <!-- Original Data -->
     <g transform="translate(502.734375 38.916562)scale(0.1 -0.1)">
      <defs>
       <path d="M 9.421875 54.6875 
L 18.40625 54.6875 
L 18.40625 0 
L 9.421875 0 
z
M 9.421875 75.984375 
L 18.40625 75.984375 
L 18.40625 64.59375 
L 9.421875 64.59375 
z
" id="DejaVuSans-105"/>
       <path d="M 19.671875 64.796875 
L 19.671875 8.109375 
L 31.59375 8.109375 
Q 46.6875 8.109375 53.6875 14.9375 
Q 60.6875 21.78125 60.6875 36.53125 
Q 60.6875 51.171875 53.6875 57.984375 
Q 46.6875 64.796875 31.59375 64.796875 
z
M 9.8125 72.90625 
L 30.078125 72.90625 
Q 51.265625 72.90625 61.171875 64.09375 
Q 71.09375 55.28125 71.09375 36.53125 
Q 71.09375 17.671875 61.125 8.828125 
Q 51.171875 0 30.078125 0 
L 9.8125 0 
z
" id="DejaVuSans-68"/>
      </defs>
      <use xlink:href="#DejaVuSans-79"/>
      <use x="78.710938" xlink:href="#DejaVuSans-114"/>
      <use x="119.824219" xlink:href="#DejaVuSans-105"/>
      <use x="147.607422" xlink:href="#DejaVuSans-103"/>
      <use x="211.083984" xlink:href="#DejaVuSans-105"/>
      <use x="238.867188" xlink:href="#DejaVuSans-110"/>
      <use x="302.246094" xlink:href="#DejaVuSans-97"/>
      <use x="363.525391" xlink:href="#DejaVuSans-108"/>
      <use x="391.308594" xlink:href="#DejaVuSans-32"/>
      <use x="423.095703" xlink:href="#DejaVuSans-68"/>
      <use x="500.097656" xlink:href="#DejaVuSans-97"/>
      <use x="561.376953" xlink:href="#DejaVuSans-116"/>
      <use x="600.585938" xlink:href="#DejaVuSans-97"/>
     </g>
    </g>
    <g id="line2d_22">
     <path d="M 474.734375 50.094687 
L 494.734375 50.094687 
" style="fill:none;stroke:#ff0000;stroke-linecap:square;stroke-width:1.5;"/>
    </g>
    <g id="line2d_23"/>
    <g id="text_20">
     <!-- Lorentzian Mode -->
     <g transform="translate(502.734375 53.594687)scale(0.1 -0.1)">
      <defs>
       <path d="M 30.609375 48.390625 
Q 23.390625 48.390625 19.1875 42.75 
Q 14.984375 37.109375 14.984375 27.296875 
Q 14.984375 17.484375 19.15625 11.84375 
Q 23.34375 6.203125 30.609375 6.203125 
Q 37.796875 6.203125 41.984375 11.859375 
Q 46.1875 17.53125 46.1875 27.296875 
Q 46.1875 37.015625 41.984375 42.703125 
Q 37.796875 48.390625 30.609375 48.390625 
z
M 30.609375 56 
Q 42.328125 56 49.015625 48.375 
Q 55.71875 40.765625 55.71875 27.296875 
Q 55.71875 13.875 49.015625 6.21875 
Q 42.328125 -1.421875 30.609375 -1.421875 
Q 18.84375 -1.421875 12.171875 6.21875 
Q 5.515625 13.875 5.515625 27.296875 
Q 5.515625 40.765625 12.171875 48.375 
Q 18.84375 56 30.609375 56 
z
" id="DejaVuSans-111"/>
       <path d="M 5.515625 54.6875 
L 48.1875 54.6875 
L 48.1875 46.484375 
L 14.40625 7.171875 
L 48.1875 7.171875 
L 48.1875 0 
L 4.296875 0 
L 4.296875 8.203125 
L 38.09375 47.515625 
L 5.515625 47.515625 
z
" id="DejaVuSans-122"/>
       <path d="M 9.8125 72.90625 
L 24.515625 72.90625 
L 43.109375 23.296875 
L 61.8125 72.90625 
L 76.515625 72.90625 
L 76.515625 0 
L 66.890625 0 
L 66.890625 64.015625 
L 48.09375 14.015625 
L 38.1875 14.015625 
L 19.390625 64.015625 
L 19.390625 0 
L 9.8125 0 
z
" id="DejaVuSans-77"/>
      </defs>
      <use xlink:href="#DejaVuSans-76"/>
      <use x="53.962891" xlink:href="#DejaVuSans-111"/>
      <use x="115.144531" xlink:href="#DejaVuSans-114"/>
      <use x="154.007812" xlink:href="#DejaVuSans-101"/>
      <use x="215.53125" xlink:href="#DejaVuSans-110"/>
      <use x="278.910156" xlink:href="#DejaVuSans-116"/>
      <use x="318.119141" xlink:href="#DejaVuSans-122"/>
      <use x="370.609375" xlink:href="#DejaVuSans-105"/>
      <use x="398.392578" xlink:href="#DejaVuSans-97"/>
      <use x="459.671875" xlink:href="#DejaVuSans-110"/>
      <use x="523.050781" xlink:href="#DejaVuSans-32"/>
      <use x="554.837891" xlink:href="#DejaVuSans-77"/>
      <use x="641.117188" xlink:href="#DejaVuSans-111"/>
      <use x="702.298828" xlink:href="#DejaVuSans-100"/>
      <use x="765.775391" xlink:href="#DejaVuSans-101"/>
     </g>
    </g>
   </g>
  </g>
 </g>
 <defs>
  <clipPath id="pd9a8b074cf">
   <rect height="217.44" width="558" x="36.465625" y="22.318125"/>
  </clipPath>
 </defs>
</svg>
