<?xml version="1.0" encoding="utf-8" standalone="no"?>
<!DOCTYPE svg PUBLIC "-//W3C//DTD SVG 1.1//EN"
  "http://www.w3.org/Graphics/SVG/1.1/DTD/svg11.dtd">
<!-- Created with matplotlib (https://matplotlib.org/) -->
<svg height="277.314375pt" version="1.1" viewBox="0 0 601.665625 277.314375" width="601.665625pt" xmlns="http://www.w3.org/2000/svg" xmlns:xlink="http://www.w3.org/1999/xlink">
 <metadata>
  <rdf:RDF xmlns:cc="http://creativecommons.org/ns#" xmlns:dc="http://purl.org/dc/elements/1.1/" xmlns:rdf="http://www.w3.org/1999/02/22-rdf-syntax-ns#">
   <cc:Work>
    <dc:type rdf:resource="http://purl.org/dc/dcmitype/StillImage"/>
    <dc:date>2021-07-05T22:52:46.522082</dc:date>
    <dc:format>image/svg+xml</dc:format>
    <dc:creator>
     <cc:Agent>
      <dc:title>Matplotlib v3.3.4, https://matplotlib.org/</dc:title>
     </cc:Agent>
    </dc:creator>
   </cc:Work>
  </rdf:RDF>
 </metadata>
 <defs>
  <style type="text/css">*{stroke-linecap:butt;stroke-linejoin:round;}</style>
 </defs>
 <g id="figure_1">
  <g id="patch_1">
   <path d="M 0 277.314375 
L 601.665625 277.314375 
L 601.665625 0 
L 0 0 
z
" style="fill:none;"/>
  </g>
  <g id="axes_1">
   <g id="patch_2">
    <path d="M 36.465625 239.758125 
L 594.465625 239.758125 
L 594.465625 22.318125 
L 36.465625 22.318125 
z
" style="fill:#ffffff;"/>
   </g>
   <g id="matplotlib.axis_1">
    <g id="xtick_1">
     <g id="line2d_1">
      <defs>
       <path d="M 0 0 
L 0 3.5 
" id="m795802394f" style="stroke:#000000;stroke-width:0.8;"/>
      </defs>
      <g>
       <use style="stroke:#000000;stroke-width:0.8;" x="59.267278" xlink:href="#m795802394f" y="239.758125"/>
      </g>
     </g>
     <g id="text_1">
      <!-- 0 -->
      <g transform="translate(56.086028 254.356562)scale(0.1 -0.1)">
       <defs>
        <path d="M 31.78125 66.40625 
Q 24.171875 66.40625 20.328125 58.90625 
Q 16.5 51.421875 16.5 36.375 
Q 16.5 21.390625 20.328125 13.890625 
Q 24.171875 6.390625 31.78125 6.390625 
Q 39.453125 6.390625 43.28125 13.890625 
Q 47.125 21.390625 47.125 36.375 
Q 47.125 51.421875 43.28125 58.90625 
Q 39.453125 66.40625 31.78125 66.40625 
z
M 31.78125 74.21875 
Q 44.046875 74.21875 50.515625 64.515625 
Q 56.984375 54.828125 56.984375 36.375 
Q 56.984375 17.96875 50.515625 8.265625 
Q 44.046875 -1.421875 31.78125 -1.421875 
Q 19.53125 -1.421875 13.0625 8.265625 
Q 6.59375 17.96875 6.59375 36.375 
Q 6.59375 54.828125 13.0625 64.515625 
Q 19.53125 74.21875 31.78125 74.21875 
z
" id="DejaVuSans-48"/>
       </defs>
       <use xlink:href="#DejaVuSans-48"/>
      </g>
     </g>
    </g>
    <g id="xtick_2">
     <g id="line2d_2">
      <g>
       <use style="stroke:#000000;stroke-width:0.8;" x="140.817745" xlink:href="#m795802394f" y="239.758125"/>
      </g>
     </g>
     <g id="text_2">
      <!-- 1 -->
      <g transform="translate(137.636495 254.356562)scale(0.1 -0.1)">
       <defs>
        <path d="M 12.40625 8.296875 
L 28.515625 8.296875 
L 28.515625 63.921875 
L 10.984375 60.40625 
L 10.984375 69.390625 
L 28.421875 72.90625 
L 38.28125 72.90625 
L 38.28125 8.296875 
L 54.390625 8.296875 
L 54.390625 0 
L 12.40625 0 
z
" id="DejaVuSans-49"/>
       </defs>
       <use xlink:href="#DejaVuSans-49"/>
      </g>
     </g>
    </g>
    <g id="xtick_3">
     <g id="line2d_3">
      <g>
       <use style="stroke:#000000;stroke-width:0.8;" x="222.368211" xlink:href="#m795802394f" y="239.758125"/>
      </g>
     </g>
     <g id="text_3">
      <!-- 2 -->
      <g transform="translate(219.186961 254.356562)scale(0.1 -0.1)">
       <defs>
        <path d="M 19.1875 8.296875 
L 53.609375 8.296875 
L 53.609375 0 
L 7.328125 0 
L 7.328125 8.296875 
Q 12.9375 14.109375 22.625 23.890625 
Q 32.328125 33.6875 34.8125 36.53125 
Q 39.546875 41.84375 41.421875 45.53125 
Q 43.3125 49.21875 43.3125 52.78125 
Q 43.3125 58.59375 39.234375 62.25 
Q 35.15625 65.921875 28.609375 65.921875 
Q 23.96875 65.921875 18.8125 64.3125 
Q 13.671875 62.703125 7.8125 59.421875 
L 7.8125 69.390625 
Q 13.765625 71.78125 18.9375 73 
Q 24.125 74.21875 28.421875 74.21875 
Q 39.75 74.21875 46.484375 68.546875 
Q 53.21875 62.890625 53.21875 53.421875 
Q 53.21875 48.921875 51.53125 44.890625 
Q 49.859375 40.875 45.40625 35.40625 
Q 44.1875 33.984375 37.640625 27.21875 
Q 31.109375 20.453125 19.1875 8.296875 
z
" id="DejaVuSans-50"/>
       </defs>
       <use xlink:href="#DejaVuSans-50"/>
      </g>
     </g>
    </g>
    <g id="xtick_4">
     <g id="line2d_4">
      <g>
       <use style="stroke:#000000;stroke-width:0.8;" x="303.918678" xlink:href="#m795802394f" y="239.758125"/>
      </g>
     </g>
     <g id="text_4">
      <!-- 3 -->
      <g transform="translate(300.737428 254.356562)scale(0.1 -0.1)">
       <defs>
        <path d="M 40.578125 39.3125 
Q 47.65625 37.796875 51.625 33 
Q 55.609375 28.21875 55.609375 21.1875 
Q 55.609375 10.40625 48.1875 4.484375 
Q 40.765625 -1.421875 27.09375 -1.421875 
Q 22.515625 -1.421875 17.65625 -0.515625 
Q 12.796875 0.390625 7.625 2.203125 
L 7.625 11.71875 
Q 11.71875 9.328125 16.59375 8.109375 
Q 21.484375 6.890625 26.8125 6.890625 
Q 36.078125 6.890625 40.9375 10.546875 
Q 45.796875 14.203125 45.796875 21.1875 
Q 45.796875 27.640625 41.28125 31.265625 
Q 36.765625 34.90625 28.71875 34.90625 
L 20.21875 34.90625 
L 20.21875 43.015625 
L 29.109375 43.015625 
Q 36.375 43.015625 40.234375 45.921875 
Q 44.09375 48.828125 44.09375 54.296875 
Q 44.09375 59.90625 40.109375 62.90625 
Q 36.140625 65.921875 28.71875 65.921875 
Q 24.65625 65.921875 20.015625 65.03125 
Q 15.375 64.15625 9.8125 62.3125 
L 9.8125 71.09375 
Q 15.4375 72.65625 20.34375 73.4375 
Q 25.25 74.21875 29.59375 74.21875 
Q 40.828125 74.21875 47.359375 69.109375 
Q 53.90625 64.015625 53.90625 55.328125 
Q 53.90625 49.265625 50.4375 45.09375 
Q 46.96875 40.921875 40.578125 39.3125 
z
" id="DejaVuSans-51"/>
       </defs>
       <use xlink:href="#DejaVuSans-51"/>
      </g>
     </g>
    </g>
    <g id="xtick_5">
     <g id="line2d_5">
      <g>
       <use style="stroke:#000000;stroke-width:0.8;" x="385.469145" xlink:href="#m795802394f" y="239.758125"/>
      </g>
     </g>
     <g id="text_5">
      <!-- 4 -->
      <g transform="translate(382.287895 254.356562)scale(0.1 -0.1)">
       <defs>
        <path d="M 37.796875 64.3125 
L 12.890625 25.390625 
L 37.796875 25.390625 
z
M 35.203125 72.90625 
L 47.609375 72.90625 
L 47.609375 25.390625 
L 58.015625 25.390625 
L 58.015625 17.1875 
L 47.609375 17.1875 
L 47.609375 0 
L 37.796875 0 
L 37.796875 17.1875 
L 4.890625 17.1875 
L 4.890625 26.703125 
z
" id="DejaVuSans-52"/>
       </defs>
       <use xlink:href="#DejaVuSans-52"/>
      </g>
     </g>
    </g>
    <g id="xtick_6">
     <g id="line2d_6">
      <g>
       <use style="stroke:#000000;stroke-width:0.8;" x="467.019611" xlink:href="#m795802394f" y="239.758125"/>
      </g>
     </g>
     <g id="text_6">
      <!-- 5 -->
      <g transform="translate(463.838361 254.356562)scale(0.1 -0.1)">
       <defs>
        <path d="M 10.796875 72.90625 
L 49.515625 72.90625 
L 49.515625 64.59375 
L 19.828125 64.59375 
L 19.828125 46.734375 
Q 21.96875 47.46875 24.109375 47.828125 
Q 26.265625 48.1875 28.421875 48.1875 
Q 40.625 48.1875 47.75 41.5 
Q 54.890625 34.8125 54.890625 23.390625 
Q 54.890625 11.625 47.5625 5.09375 
Q 40.234375 -1.421875 26.90625 -1.421875 
Q 22.3125 -1.421875 17.546875 -0.640625 
Q 12.796875 0.140625 7.71875 1.703125 
L 7.71875 11.625 
Q 12.109375 9.234375 16.796875 8.0625 
Q 21.484375 6.890625 26.703125 6.890625 
Q 35.15625 6.890625 40.078125 11.328125 
Q 45.015625 15.765625 45.015625 23.390625 
Q 45.015625 31 40.078125 35.4375 
Q 35.15625 39.890625 26.703125 39.890625 
Q 22.75 39.890625 18.8125 39.015625 
Q 14.890625 38.140625 10.796875 36.28125 
z
" id="DejaVuSans-53"/>
       </defs>
       <use xlink:href="#DejaVuSans-53"/>
      </g>
     </g>
    </g>
    <g id="xtick_7">
     <g id="line2d_7">
      <g>
       <use style="stroke:#000000;stroke-width:0.8;" x="548.570078" xlink:href="#m795802394f" y="239.758125"/>
      </g>
     </g>
     <g id="text_7">
      <!-- 6 -->
      <g transform="translate(545.388828 254.356562)scale(0.1 -0.1)">
       <defs>
        <path d="M 33.015625 40.375 
Q 26.375 40.375 22.484375 35.828125 
Q 18.609375 31.296875 18.609375 23.390625 
Q 18.609375 15.53125 22.484375 10.953125 
Q 26.375 6.390625 33.015625 6.390625 
Q 39.65625 6.390625 43.53125 10.953125 
Q 47.40625 15.53125 47.40625 23.390625 
Q 47.40625 31.296875 43.53125 35.828125 
Q 39.65625 40.375 33.015625 40.375 
z
M 52.59375 71.296875 
L 52.59375 62.3125 
Q 48.875 64.0625 45.09375 64.984375 
Q 41.3125 65.921875 37.59375 65.921875 
Q 27.828125 65.921875 22.671875 59.328125 
Q 17.53125 52.734375 16.796875 39.40625 
Q 19.671875 43.65625 24.015625 45.921875 
Q 28.375 48.1875 33.59375 48.1875 
Q 44.578125 48.1875 50.953125 41.515625 
Q 57.328125 34.859375 57.328125 23.390625 
Q 57.328125 12.15625 50.6875 5.359375 
Q 44.046875 -1.421875 33.015625 -1.421875 
Q 20.359375 -1.421875 13.671875 8.265625 
Q 6.984375 17.96875 6.984375 36.375 
Q 6.984375 53.65625 15.1875 63.9375 
Q 23.390625 74.21875 37.203125 74.21875 
Q 40.921875 74.21875 44.703125 73.484375 
Q 48.484375 72.75 52.59375 71.296875 
z
" id="DejaVuSans-54"/>
       </defs>
       <use xlink:href="#DejaVuSans-54"/>
      </g>
     </g>
    </g>
    <g id="text_8">
     <!-- Angular Frequncy Omega -->
     <g transform="translate(251.972656 268.034687)scale(0.1 -0.1)">
      <defs>
       <path d="M 34.1875 63.1875 
L 20.796875 26.90625 
L 47.609375 26.90625 
z
M 28.609375 72.90625 
L 39.796875 72.90625 
L 67.578125 0 
L 57.328125 0 
L 50.6875 18.703125 
L 17.828125 18.703125 
L 11.1875 0 
L 0.78125 0 
z
" id="DejaVuSans-65"/>
       <path d="M 54.890625 33.015625 
L 54.890625 0 
L 45.90625 0 
L 45.90625 32.71875 
Q 45.90625 40.484375 42.875 44.328125 
Q 39.84375 48.1875 33.796875 48.1875 
Q 26.515625 48.1875 22.3125 43.546875 
Q 18.109375 38.921875 18.109375 30.90625 
L 18.109375 0 
L 9.078125 0 
L 9.078125 54.6875 
L 18.109375 54.6875 
L 18.109375 46.1875 
Q 21.34375 51.125 25.703125 53.5625 
Q 30.078125 56 35.796875 56 
Q 45.21875 56 50.046875 50.171875 
Q 54.890625 44.34375 54.890625 33.015625 
z
" id="DejaVuSans-110"/>
       <path d="M 45.40625 27.984375 
Q 45.40625 37.75 41.375 43.109375 
Q 37.359375 48.484375 30.078125 48.484375 
Q 22.859375 48.484375 18.828125 43.109375 
Q 14.796875 37.75 14.796875 27.984375 
Q 14.796875 18.265625 18.828125 12.890625 
Q 22.859375 7.515625 30.078125 7.515625 
Q 37.359375 7.515625 41.375 12.890625 
Q 45.40625 18.265625 45.40625 27.984375 
z
M 54.390625 6.78125 
Q 54.390625 -7.171875 48.1875 -13.984375 
Q 42 -20.796875 29.203125 -20.796875 
Q 24.46875 -20.796875 20.265625 -20.09375 
Q 16.0625 -19.390625 12.109375 -17.921875 
L 12.109375 -9.1875 
Q 16.0625 -11.328125 19.921875 -12.34375 
Q 23.78125 -13.375 27.78125 -13.375 
Q 36.625 -13.375 41.015625 -8.765625 
Q 45.40625 -4.15625 45.40625 5.171875 
L 45.40625 9.625 
Q 42.625 4.78125 38.28125 2.390625 
Q 33.9375 0 27.875 0 
Q 17.828125 0 11.671875 7.65625 
Q 5.515625 15.328125 5.515625 27.984375 
Q 5.515625 40.671875 11.671875 48.328125 
Q 17.828125 56 27.875 56 
Q 33.9375 56 38.28125 53.609375 
Q 42.625 51.21875 45.40625 46.390625 
L 45.40625 54.6875 
L 54.390625 54.6875 
z
" id="DejaVuSans-103"/>
       <path d="M 8.5 21.578125 
L 8.5 54.6875 
L 17.484375 54.6875 
L 17.484375 21.921875 
Q 17.484375 14.15625 20.5 10.265625 
Q 23.53125 6.390625 29.59375 6.390625 
Q 36.859375 6.390625 41.078125 11.03125 
Q 45.3125 15.671875 45.3125 23.6875 
L 45.3125 54.6875 
L 54.296875 54.6875 
L 54.296875 0 
L 45.3125 0 
L 45.3125 8.40625 
Q 42.046875 3.421875 37.71875 1 
Q 33.40625 -1.421875 27.6875 -1.421875 
Q 18.265625 -1.421875 13.375 4.4375 
Q 8.5 10.296875 8.5 21.578125 
z
M 31.109375 56 
z
" id="DejaVuSans-117"/>
       <path d="M 9.421875 75.984375 
L 18.40625 75.984375 
L 18.40625 0 
L 9.421875 0 
z
" id="DejaVuSans-108"/>
       <path d="M 34.28125 27.484375 
Q 23.390625 27.484375 19.1875 25 
Q 14.984375 22.515625 14.984375 16.5 
Q 14.984375 11.71875 18.140625 8.90625 
Q 21.296875 6.109375 26.703125 6.109375 
Q 34.1875 6.109375 38.703125 11.40625 
Q 43.21875 16.703125 43.21875 25.484375 
L 43.21875 27.484375 
z
M 52.203125 31.203125 
L 52.203125 0 
L 43.21875 0 
L 43.21875 8.296875 
Q 40.140625 3.328125 35.546875 0.953125 
Q 30.953125 -1.421875 24.3125 -1.421875 
Q 15.921875 -1.421875 10.953125 3.296875 
Q 6 8.015625 6 15.921875 
Q 6 25.140625 12.171875 29.828125 
Q 18.359375 34.515625 30.609375 34.515625 
L 43.21875 34.515625 
L 43.21875 35.40625 
Q 43.21875 41.609375 39.140625 45 
Q 35.0625 48.390625 27.6875 48.390625 
Q 23 48.390625 18.546875 47.265625 
Q 14.109375 46.140625 10.015625 43.890625 
L 10.015625 52.203125 
Q 14.9375 54.109375 19.578125 55.046875 
Q 24.21875 56 28.609375 56 
Q 40.484375 56 46.34375 49.84375 
Q 52.203125 43.703125 52.203125 31.203125 
z
" id="DejaVuSans-97"/>
       <path d="M 41.109375 46.296875 
Q 39.59375 47.171875 37.8125 47.578125 
Q 36.03125 48 33.890625 48 
Q 26.265625 48 22.1875 43.046875 
Q 18.109375 38.09375 18.109375 28.8125 
L 18.109375 0 
L 9.078125 0 
L 9.078125 54.6875 
L 18.109375 54.6875 
L 18.109375 46.1875 
Q 20.953125 51.171875 25.484375 53.578125 
Q 30.03125 56 36.53125 56 
Q 37.453125 56 38.578125 55.875 
Q 39.703125 55.765625 41.0625 55.515625 
z
" id="DejaVuSans-114"/>
       <path id="DejaVuSans-32"/>
       <path d="M 9.8125 72.90625 
L 51.703125 72.90625 
L 51.703125 64.59375 
L 19.671875 64.59375 
L 19.671875 43.109375 
L 48.578125 43.109375 
L 48.578125 34.8125 
L 19.671875 34.8125 
L 19.671875 0 
L 9.8125 0 
z
" id="DejaVuSans-70"/>
       <path d="M 56.203125 29.59375 
L 56.203125 25.203125 
L 14.890625 25.203125 
Q 15.484375 15.921875 20.484375 11.0625 
Q 25.484375 6.203125 34.421875 6.203125 
Q 39.59375 6.203125 44.453125 7.46875 
Q 49.3125 8.734375 54.109375 11.28125 
L 54.109375 2.78125 
Q 49.265625 0.734375 44.1875 -0.34375 
Q 39.109375 -1.421875 33.890625 -1.421875 
Q 20.796875 -1.421875 13.15625 6.1875 
Q 5.515625 13.8125 5.515625 26.8125 
Q 5.515625 40.234375 12.765625 48.109375 
Q 20.015625 56 32.328125 56 
Q 43.359375 56 49.78125 48.890625 
Q 56.203125 41.796875 56.203125 29.59375 
z
M 47.21875 32.234375 
Q 47.125 39.59375 43.09375 43.984375 
Q 39.0625 48.390625 32.421875 48.390625 
Q 24.90625 48.390625 20.390625 44.140625 
Q 15.875 39.890625 15.1875 32.171875 
z
" id="DejaVuSans-101"/>
       <path d="M 14.796875 27.296875 
Q 14.796875 17.390625 18.875 11.75 
Q 22.953125 6.109375 30.078125 6.109375 
Q 37.203125 6.109375 41.296875 11.75 
Q 45.40625 17.390625 45.40625 27.296875 
Q 45.40625 37.203125 41.296875 42.84375 
Q 37.203125 48.484375 30.078125 48.484375 
Q 22.953125 48.484375 18.875 42.84375 
Q 14.796875 37.203125 14.796875 27.296875 
z
M 45.40625 8.203125 
Q 42.578125 3.328125 38.25 0.953125 
Q 33.9375 -1.421875 27.875 -1.421875 
Q 17.96875 -1.421875 11.734375 6.484375 
Q 5.515625 14.40625 5.515625 27.296875 
Q 5.515625 40.1875 11.734375 48.09375 
Q 17.96875 56 27.875 56 
Q 33.9375 56 38.25 53.625 
Q 42.578125 51.265625 45.40625 46.390625 
L 45.40625 54.6875 
L 54.390625 54.6875 
L 54.390625 -20.796875 
L 45.40625 -20.796875 
z
" id="DejaVuSans-113"/>
       <path d="M 48.78125 52.59375 
L 48.78125 44.1875 
Q 44.96875 46.296875 41.140625 47.34375 
Q 37.3125 48.390625 33.40625 48.390625 
Q 24.65625 48.390625 19.8125 42.84375 
Q 14.984375 37.3125 14.984375 27.296875 
Q 14.984375 17.28125 19.8125 11.734375 
Q 24.65625 6.203125 33.40625 6.203125 
Q 37.3125 6.203125 41.140625 7.25 
Q 44.96875 8.296875 48.78125 10.40625 
L 48.78125 2.09375 
Q 45.015625 0.34375 40.984375 -0.53125 
Q 36.96875 -1.421875 32.421875 -1.421875 
Q 20.0625 -1.421875 12.78125 6.34375 
Q 5.515625 14.109375 5.515625 27.296875 
Q 5.515625 40.671875 12.859375 48.328125 
Q 20.21875 56 33.015625 56 
Q 37.15625 56 41.109375 55.140625 
Q 45.0625 54.296875 48.78125 52.59375 
z
" id="DejaVuSans-99"/>
       <path d="M 32.171875 -5.078125 
Q 28.375 -14.84375 24.75 -17.8125 
Q 21.140625 -20.796875 15.09375 -20.796875 
L 7.90625 -20.796875 
L 7.90625 -13.28125 
L 13.1875 -13.28125 
Q 16.890625 -13.28125 18.9375 -11.515625 
Q 21 -9.765625 23.484375 -3.21875 
L 25.09375 0.875 
L 2.984375 54.6875 
L 12.5 54.6875 
L 29.59375 11.921875 
L 46.6875 54.6875 
L 56.203125 54.6875 
z
" id="DejaVuSans-121"/>
       <path d="M 39.40625 66.21875 
Q 28.65625 66.21875 22.328125 58.203125 
Q 16.015625 50.203125 16.015625 36.375 
Q 16.015625 22.609375 22.328125 14.59375 
Q 28.65625 6.59375 39.40625 6.59375 
Q 50.140625 6.59375 56.421875 14.59375 
Q 62.703125 22.609375 62.703125 36.375 
Q 62.703125 50.203125 56.421875 58.203125 
Q 50.140625 66.21875 39.40625 66.21875 
z
M 39.40625 74.21875 
Q 54.734375 74.21875 63.90625 63.9375 
Q 73.09375 53.65625 73.09375 36.375 
Q 73.09375 19.140625 63.90625 8.859375 
Q 54.734375 -1.421875 39.40625 -1.421875 
Q 24.03125 -1.421875 14.8125 8.828125 
Q 5.609375 19.09375 5.609375 36.375 
Q 5.609375 53.65625 14.8125 63.9375 
Q 24.03125 74.21875 39.40625 74.21875 
z
" id="DejaVuSans-79"/>
       <path d="M 52 44.1875 
Q 55.375 50.25 60.0625 53.125 
Q 64.75 56 71.09375 56 
Q 79.640625 56 84.28125 50.015625 
Q 88.921875 44.046875 88.921875 33.015625 
L 88.921875 0 
L 79.890625 0 
L 79.890625 32.71875 
Q 79.890625 40.578125 77.09375 44.375 
Q 74.3125 48.1875 68.609375 48.1875 
Q 61.625 48.1875 57.5625 43.546875 
Q 53.515625 38.921875 53.515625 30.90625 
L 53.515625 0 
L 44.484375 0 
L 44.484375 32.71875 
Q 44.484375 40.625 41.703125 44.40625 
Q 38.921875 48.1875 33.109375 48.1875 
Q 26.21875 48.1875 22.15625 43.53125 
Q 18.109375 38.875 18.109375 30.90625 
L 18.109375 0 
L 9.078125 0 
L 9.078125 54.6875 
L 18.109375 54.6875 
L 18.109375 46.1875 
Q 21.1875 51.21875 25.484375 53.609375 
Q 29.78125 56 35.6875 56 
Q 41.65625 56 45.828125 52.96875 
Q 50 49.953125 52 44.1875 
z
" id="DejaVuSans-109"/>
      </defs>
      <use xlink:href="#DejaVuSans-65"/>
      <use x="68.408203" xlink:href="#DejaVuSans-110"/>
      <use x="131.787109" xlink:href="#DejaVuSans-103"/>
      <use x="195.263672" xlink:href="#DejaVuSans-117"/>
      <use x="258.642578" xlink:href="#DejaVuSans-108"/>
      <use x="286.425781" xlink:href="#DejaVuSans-97"/>
      <use x="347.705078" xlink:href="#DejaVuSans-114"/>
      <use x="388.818359" xlink:href="#DejaVuSans-32"/>
      <use x="420.605469" xlink:href="#DejaVuSans-70"/>
      <use x="470.875" xlink:href="#DejaVuSans-114"/>
      <use x="509.738281" xlink:href="#DejaVuSans-101"/>
      <use x="571.261719" xlink:href="#DejaVuSans-113"/>
      <use x="634.738281" xlink:href="#DejaVuSans-117"/>
      <use x="698.117188" xlink:href="#DejaVuSans-110"/>
      <use x="761.496094" xlink:href="#DejaVuSans-99"/>
      <use x="816.476562" xlink:href="#DejaVuSans-121"/>
      <use x="875.65625" xlink:href="#DejaVuSans-32"/>
      <use x="907.443359" xlink:href="#DejaVuSans-79"/>
      <use x="986.154297" xlink:href="#DejaVuSans-109"/>
      <use x="1083.566406" xlink:href="#DejaVuSans-101"/>
      <use x="1145.089844" xlink:href="#DejaVuSans-103"/>
      <use x="1208.566406" xlink:href="#DejaVuSans-97"/>
     </g>
    </g>
   </g>
   <g id="matplotlib.axis_2">
    <g id="ytick_1">
     <g id="line2d_8">
      <defs>
       <path d="M 0 0 
L -3.5 0 
" id="m20229886d8" style="stroke:#000000;stroke-width:0.8;"/>
      </defs>
      <g>
       <use style="stroke:#000000;stroke-width:0.8;" x="36.465625" xlink:href="#m20229886d8" y="229.877482"/>
      </g>
     </g>
     <g id="text_9">
      <!-- 0.00 -->
      <g transform="translate(7.2 233.676701)scale(0.1 -0.1)">
       <defs>
        <path d="M 10.6875 12.40625 
L 21 12.40625 
L 21 0 
L 10.6875 0 
z
" id="DejaVuSans-46"/>
       </defs>
       <use xlink:href="#DejaVuSans-48"/>
       <use x="63.623047" xlink:href="#DejaVuSans-46"/>
       <use x="95.410156" xlink:href="#DejaVuSans-48"/>
       <use x="159.033203" xlink:href="#DejaVuSans-48"/>
      </g>
     </g>
    </g>
    <g id="ytick_2">
     <g id="line2d_9">
      <g>
       <use style="stroke:#000000;stroke-width:0.8;" x="36.465625" xlink:href="#m20229886d8" y="205.34546"/>
      </g>
     </g>
     <g id="text_10">
      <!-- 0.05 -->
      <g transform="translate(7.2 209.144679)scale(0.1 -0.1)">
       <use xlink:href="#DejaVuSans-48"/>
       <use x="63.623047" xlink:href="#DejaVuSans-46"/>
       <use x="95.410156" xlink:href="#DejaVuSans-48"/>
       <use x="159.033203" xlink:href="#DejaVuSans-53"/>
      </g>
     </g>
    </g>
    <g id="ytick_3">
     <g id="line2d_10">
      <g>
       <use style="stroke:#000000;stroke-width:0.8;" x="36.465625" xlink:href="#m20229886d8" y="180.813439"/>
      </g>
     </g>
     <g id="text_11">
      <!-- 0.10 -->
      <g transform="translate(7.2 184.612658)scale(0.1 -0.1)">
       <use xlink:href="#DejaVuSans-48"/>
       <use x="63.623047" xlink:href="#DejaVuSans-46"/>
       <use x="95.410156" xlink:href="#DejaVuSans-49"/>
       <use x="159.033203" xlink:href="#DejaVuSans-48"/>
      </g>
     </g>
    </g>
    <g id="ytick_4">
     <g id="line2d_11">
      <g>
       <use style="stroke:#000000;stroke-width:0.8;" x="36.465625" xlink:href="#m20229886d8" y="156.281417"/>
      </g>
     </g>
     <g id="text_12">
      <!-- 0.15 -->
      <g transform="translate(7.2 160.080636)scale(0.1 -0.1)">
       <use xlink:href="#DejaVuSans-48"/>
       <use x="63.623047" xlink:href="#DejaVuSans-46"/>
       <use x="95.410156" xlink:href="#DejaVuSans-49"/>
       <use x="159.033203" xlink:href="#DejaVuSans-53"/>
      </g>
     </g>
    </g>
    <g id="ytick_5">
     <g id="line2d_12">
      <g>
       <use style="stroke:#000000;stroke-width:0.8;" x="36.465625" xlink:href="#m20229886d8" y="131.749396"/>
      </g>
     </g>
     <g id="text_13">
      <!-- 0.20 -->
      <g transform="translate(7.2 135.548614)scale(0.1 -0.1)">
       <use xlink:href="#DejaVuSans-48"/>
       <use x="63.623047" xlink:href="#DejaVuSans-46"/>
       <use x="95.410156" xlink:href="#DejaVuSans-50"/>
       <use x="159.033203" xlink:href="#DejaVuSans-48"/>
      </g>
     </g>
    </g>
    <g id="ytick_6">
     <g id="line2d_13">
      <g>
       <use style="stroke:#000000;stroke-width:0.8;" x="36.465625" xlink:href="#m20229886d8" y="107.217374"/>
      </g>
     </g>
     <g id="text_14">
      <!-- 0.25 -->
      <g transform="translate(7.2 111.016593)scale(0.1 -0.1)">
       <use xlink:href="#DejaVuSans-48"/>
       <use x="63.623047" xlink:href="#DejaVuSans-46"/>
       <use x="95.410156" xlink:href="#DejaVuSans-50"/>
       <use x="159.033203" xlink:href="#DejaVuSans-53"/>
      </g>
     </g>
    </g>
    <g id="ytick_7">
     <g id="line2d_14">
      <g>
       <use style="stroke:#000000;stroke-width:0.8;" x="36.465625" xlink:href="#m20229886d8" y="82.685352"/>
      </g>
     </g>
     <g id="text_15">
      <!-- 0.30 -->
      <g transform="translate(7.2 86.484571)scale(0.1 -0.1)">
       <use xlink:href="#DejaVuSans-48"/>
       <use x="63.623047" xlink:href="#DejaVuSans-46"/>
       <use x="95.410156" xlink:href="#DejaVuSans-51"/>
       <use x="159.033203" xlink:href="#DejaVuSans-48"/>
      </g>
     </g>
    </g>
    <g id="ytick_8">
     <g id="line2d_15">
      <g>
       <use style="stroke:#000000;stroke-width:0.8;" x="36.465625" xlink:href="#m20229886d8" y="58.153331"/>
      </g>
     </g>
     <g id="text_16">
      <!-- 0.35 -->
      <g transform="translate(7.2 61.952549)scale(0.1 -0.1)">
       <use xlink:href="#DejaVuSans-48"/>
       <use x="63.623047" xlink:href="#DejaVuSans-46"/>
       <use x="95.410156" xlink:href="#DejaVuSans-51"/>
       <use x="159.033203" xlink:href="#DejaVuSans-53"/>
      </g>
     </g>
    </g>
    <g id="ytick_9">
     <g id="line2d_16">
      <g>
       <use style="stroke:#000000;stroke-width:0.8;" x="36.465625" xlink:href="#m20229886d8" y="33.621309"/>
      </g>
     </g>
     <g id="text_17">
      <!-- 0.40 -->
      <g transform="translate(7.2 37.420528)scale(0.1 -0.1)">
       <use xlink:href="#DejaVuSans-48"/>
       <use x="63.623047" xlink:href="#DejaVuSans-46"/>
       <use x="95.410156" xlink:href="#DejaVuSans-52"/>
       <use x="159.033203" xlink:href="#DejaVuSans-48"/>
      </g>
     </g>
    </g>
   </g>
   <g id="line2d_17">
    <defs>
     <path d="M 0 -2.5 
L -0.561285 -0.772542 
L -2.377641 -0.772542 
L -0.908178 0.295085 
L -1.469463 2.022542 
L -0 0.954915 
L 1.469463 2.022542 
L 0.908178 0.295085 
L 2.377641 -0.772542 
L 0.561285 -0.772542 
z
" id="m3890b0bffc" style="stroke:#008000;stroke-linejoin:bevel;"/>
    </defs>
    <g clip-path="url(#p510a28c7bd)">
     <use style="fill:#008000;stroke:#008000;stroke-linejoin:bevel;" x="61.829261" xlink:href="#m3890b0bffc" y="227.060089"/>
     <use style="fill:#008000;stroke:#008000;stroke-linejoin:bevel;" x="64.391245" xlink:href="#m3890b0bffc" y="226.179132"/>
     <use style="fill:#008000;stroke:#008000;stroke-linejoin:bevel;" x="66.953228" xlink:href="#m3890b0bffc" y="228.37193"/>
     <use style="fill:#008000;stroke:#008000;stroke-linejoin:bevel;" x="69.515212" xlink:href="#m3890b0bffc" y="227.88161"/>
     <use style="fill:#008000;stroke:#008000;stroke-linejoin:bevel;" x="72.077195" xlink:href="#m3890b0bffc" y="229.386592"/>
     <use style="fill:#008000;stroke:#008000;stroke-linejoin:bevel;" x="74.639179" xlink:href="#m3890b0bffc" y="228.780249"/>
     <use style="fill:#008000;stroke:#008000;stroke-linejoin:bevel;" x="77.201162" xlink:href="#m3890b0bffc" y="229.686626"/>
     <use style="fill:#008000;stroke:#008000;stroke-linejoin:bevel;" x="79.763146" xlink:href="#m3890b0bffc" y="226.69076"/>
     <use style="fill:#008000;stroke:#008000;stroke-linejoin:bevel;" x="82.325129" xlink:href="#m3890b0bffc" y="226.661888"/>
     <use style="fill:#008000;stroke:#008000;stroke-linejoin:bevel;" x="84.887113" xlink:href="#m3890b0bffc" y="226.477702"/>
     <use style="fill:#008000;stroke:#008000;stroke-linejoin:bevel;" x="87.449096" xlink:href="#m3890b0bffc" y="228.230711"/>
     <use style="fill:#008000;stroke:#008000;stroke-linejoin:bevel;" x="90.01108" xlink:href="#m3890b0bffc" y="228.629145"/>
     <use style="fill:#008000;stroke:#008000;stroke-linejoin:bevel;" x="92.573063" xlink:href="#m3890b0bffc" y="228.723778"/>
     <use style="fill:#008000;stroke:#008000;stroke-linejoin:bevel;" x="95.135046" xlink:href="#m3890b0bffc" y="228.078847"/>
     <use style="fill:#008000;stroke:#008000;stroke-linejoin:bevel;" x="97.69703" xlink:href="#m3890b0bffc" y="227.782133"/>
     <use style="fill:#008000;stroke:#008000;stroke-linejoin:bevel;" x="100.259013" xlink:href="#m3890b0bffc" y="227.075166"/>
     <use style="fill:#008000;stroke:#008000;stroke-linejoin:bevel;" x="102.820997" xlink:href="#m3890b0bffc" y="226.337559"/>
     <use style="fill:#008000;stroke:#008000;stroke-linejoin:bevel;" x="105.38298" xlink:href="#m3890b0bffc" y="226.611545"/>
     <use style="fill:#008000;stroke:#008000;stroke-linejoin:bevel;" x="107.944964" xlink:href="#m3890b0bffc" y="225.314662"/>
     <use style="fill:#008000;stroke:#008000;stroke-linejoin:bevel;" x="110.506947" xlink:href="#m3890b0bffc" y="227.809517"/>
     <use style="fill:#008000;stroke:#008000;stroke-linejoin:bevel;" x="113.068931" xlink:href="#m3890b0bffc" y="227.003578"/>
     <use style="fill:#008000;stroke:#008000;stroke-linejoin:bevel;" x="115.630914" xlink:href="#m3890b0bffc" y="228.44956"/>
     <use style="fill:#008000;stroke:#008000;stroke-linejoin:bevel;" x="118.192898" xlink:href="#m3890b0bffc" y="227.13606"/>
     <use style="fill:#008000;stroke:#008000;stroke-linejoin:bevel;" x="120.754881" xlink:href="#m3890b0bffc" y="228.798154"/>
     <use style="fill:#008000;stroke:#008000;stroke-linejoin:bevel;" x="123.316865" xlink:href="#m3890b0bffc" y="226.776784"/>
     <use style="fill:#008000;stroke:#008000;stroke-linejoin:bevel;" x="125.878848" xlink:href="#m3890b0bffc" y="228.160308"/>
     <use style="fill:#008000;stroke:#008000;stroke-linejoin:bevel;" x="128.440832" xlink:href="#m3890b0bffc" y="226.749887"/>
     <use style="fill:#008000;stroke:#008000;stroke-linejoin:bevel;" x="131.002815" xlink:href="#m3890b0bffc" y="227.900844"/>
     <use style="fill:#008000;stroke:#008000;stroke-linejoin:bevel;" x="133.564799" xlink:href="#m3890b0bffc" y="227.420357"/>
     <use style="fill:#008000;stroke:#008000;stroke-linejoin:bevel;" x="136.126782" xlink:href="#m3890b0bffc" y="228.194596"/>
     <use style="fill:#008000;stroke:#008000;stroke-linejoin:bevel;" x="138.688765" xlink:href="#m3890b0bffc" y="229.600564"/>
     <use style="fill:#008000;stroke:#008000;stroke-linejoin:bevel;" x="141.250749" xlink:href="#m3890b0bffc" y="229.186573"/>
     <use style="fill:#008000;stroke:#008000;stroke-linejoin:bevel;" x="143.812732" xlink:href="#m3890b0bffc" y="228.114817"/>
     <use style="fill:#008000;stroke:#008000;stroke-linejoin:bevel;" x="146.374716" xlink:href="#m3890b0bffc" y="229.134513"/>
     <use style="fill:#008000;stroke:#008000;stroke-linejoin:bevel;" x="148.936699" xlink:href="#m3890b0bffc" y="226.269878"/>
     <use style="fill:#008000;stroke:#008000;stroke-linejoin:bevel;" x="151.498683" xlink:href="#m3890b0bffc" y="226.349403"/>
     <use style="fill:#008000;stroke:#008000;stroke-linejoin:bevel;" x="154.060666" xlink:href="#m3890b0bffc" y="226.008921"/>
     <use style="fill:#008000;stroke:#008000;stroke-linejoin:bevel;" x="156.62265" xlink:href="#m3890b0bffc" y="226.654712"/>
     <use style="fill:#008000;stroke:#008000;stroke-linejoin:bevel;" x="159.184633" xlink:href="#m3890b0bffc" y="227.523873"/>
     <use style="fill:#008000;stroke:#008000;stroke-linejoin:bevel;" x="161.746617" xlink:href="#m3890b0bffc" y="228.030212"/>
     <use style="fill:#008000;stroke:#008000;stroke-linejoin:bevel;" x="164.3086" xlink:href="#m3890b0bffc" y="228.427684"/>
     <use style="fill:#008000;stroke:#008000;stroke-linejoin:bevel;" x="166.870584" xlink:href="#m3890b0bffc" y="226.995195"/>
     <use style="fill:#008000;stroke:#008000;stroke-linejoin:bevel;" x="169.432567" xlink:href="#m3890b0bffc" y="226.940657"/>
     <use style="fill:#008000;stroke:#008000;stroke-linejoin:bevel;" x="171.994551" xlink:href="#m3890b0bffc" y="225.90225"/>
     <use style="fill:#008000;stroke:#008000;stroke-linejoin:bevel;" x="174.556534" xlink:href="#m3890b0bffc" y="226.584378"/>
     <use style="fill:#008000;stroke:#008000;stroke-linejoin:bevel;" x="177.118518" xlink:href="#m3890b0bffc" y="226.270811"/>
     <use style="fill:#008000;stroke:#008000;stroke-linejoin:bevel;" x="179.680501" xlink:href="#m3890b0bffc" y="228.074305"/>
     <use style="fill:#008000;stroke:#008000;stroke-linejoin:bevel;" x="182.242485" xlink:href="#m3890b0bffc" y="226.638844"/>
     <use style="fill:#008000;stroke:#008000;stroke-linejoin:bevel;" x="184.804468" xlink:href="#m3890b0bffc" y="228.178001"/>
     <use style="fill:#008000;stroke:#008000;stroke-linejoin:bevel;" x="187.366451" xlink:href="#m3890b0bffc" y="227.770965"/>
     <use style="fill:#008000;stroke:#008000;stroke-linejoin:bevel;" x="189.928435" xlink:href="#m3890b0bffc" y="228.642108"/>
     <use style="fill:#008000;stroke:#008000;stroke-linejoin:bevel;" x="192.490418" xlink:href="#m3890b0bffc" y="227.441854"/>
     <use style="fill:#008000;stroke:#008000;stroke-linejoin:bevel;" x="195.052402" xlink:href="#m3890b0bffc" y="228.554151"/>
     <use style="fill:#008000;stroke:#008000;stroke-linejoin:bevel;" x="197.614385" xlink:href="#m3890b0bffc" y="226.426755"/>
     <use style="fill:#008000;stroke:#008000;stroke-linejoin:bevel;" x="200.176369" xlink:href="#m3890b0bffc" y="227.654593"/>
     <use style="fill:#008000;stroke:#008000;stroke-linejoin:bevel;" x="202.738352" xlink:href="#m3890b0bffc" y="226.841111"/>
     <use style="fill:#008000;stroke:#008000;stroke-linejoin:bevel;" x="205.300336" xlink:href="#m3890b0bffc" y="228.925728"/>
     <use style="fill:#008000;stroke:#008000;stroke-linejoin:bevel;" x="207.862319" xlink:href="#m3890b0bffc" y="227.499724"/>
     <use style="fill:#008000;stroke:#008000;stroke-linejoin:bevel;" x="210.424303" xlink:href="#m3890b0bffc" y="228.936829"/>
     <use style="fill:#008000;stroke:#008000;stroke-linejoin:bevel;" x="212.986286" xlink:href="#m3890b0bffc" y="227.05595"/>
     <use style="fill:#008000;stroke:#008000;stroke-linejoin:bevel;" x="215.54827" xlink:href="#m3890b0bffc" y="227.023904"/>
     <use style="fill:#008000;stroke:#008000;stroke-linejoin:bevel;" x="218.110253" xlink:href="#m3890b0bffc" y="225.685006"/>
     <use style="fill:#008000;stroke:#008000;stroke-linejoin:bevel;" x="220.672237" xlink:href="#m3890b0bffc" y="227.39329"/>
     <use style="fill:#008000;stroke:#008000;stroke-linejoin:bevel;" x="223.23422" xlink:href="#m3890b0bffc" y="227.98153"/>
     <use style="fill:#008000;stroke:#008000;stroke-linejoin:bevel;" x="225.796204" xlink:href="#m3890b0bffc" y="228.008181"/>
     <use style="fill:#008000;stroke:#008000;stroke-linejoin:bevel;" x="228.358187" xlink:href="#m3890b0bffc" y="228.36493"/>
     <use style="fill:#008000;stroke:#008000;stroke-linejoin:bevel;" x="230.92017" xlink:href="#m3890b0bffc" y="228.14499"/>
     <use style="fill:#008000;stroke:#008000;stroke-linejoin:bevel;" x="233.482154" xlink:href="#m3890b0bffc" y="227.517198"/>
     <use style="fill:#008000;stroke:#008000;stroke-linejoin:bevel;" x="236.044137" xlink:href="#m3890b0bffc" y="228.209496"/>
     <use style="fill:#008000;stroke:#008000;stroke-linejoin:bevel;" x="238.606121" xlink:href="#m3890b0bffc" y="227.500109"/>
     <use style="fill:#008000;stroke:#008000;stroke-linejoin:bevel;" x="241.168104" xlink:href="#m3890b0bffc" y="227.602026"/>
     <use style="fill:#008000;stroke:#008000;stroke-linejoin:bevel;" x="243.730088" xlink:href="#m3890b0bffc" y="228.368664"/>
     <use style="fill:#008000;stroke:#008000;stroke-linejoin:bevel;" x="246.292071" xlink:href="#m3890b0bffc" y="227.794844"/>
     <use style="fill:#008000;stroke:#008000;stroke-linejoin:bevel;" x="248.854055" xlink:href="#m3890b0bffc" y="228.692841"/>
     <use style="fill:#008000;stroke:#008000;stroke-linejoin:bevel;" x="251.416038" xlink:href="#m3890b0bffc" y="227.364853"/>
     <use style="fill:#008000;stroke:#008000;stroke-linejoin:bevel;" x="253.978022" xlink:href="#m3890b0bffc" y="229.240583"/>
     <use style="fill:#008000;stroke:#008000;stroke-linejoin:bevel;" x="256.540005" xlink:href="#m3890b0bffc" y="227.910912"/>
     <use style="fill:#008000;stroke:#008000;stroke-linejoin:bevel;" x="259.101989" xlink:href="#m3890b0bffc" y="229.378826"/>
     <use style="fill:#008000;stroke:#008000;stroke-linejoin:bevel;" x="261.663972" xlink:href="#m3890b0bffc" y="227.755701"/>
     <use style="fill:#008000;stroke:#008000;stroke-linejoin:bevel;" x="264.225956" xlink:href="#m3890b0bffc" y="228.869312"/>
     <use style="fill:#008000;stroke:#008000;stroke-linejoin:bevel;" x="266.787939" xlink:href="#m3890b0bffc" y="227.781064"/>
     <use style="fill:#008000;stroke:#008000;stroke-linejoin:bevel;" x="269.349923" xlink:href="#m3890b0bffc" y="229.329774"/>
     <use style="fill:#008000;stroke:#008000;stroke-linejoin:bevel;" x="271.911906" xlink:href="#m3890b0bffc" y="228.361445"/>
     <use style="fill:#008000;stroke:#008000;stroke-linejoin:bevel;" x="274.473889" xlink:href="#m3890b0bffc" y="228.807528"/>
     <use style="fill:#008000;stroke:#008000;stroke-linejoin:bevel;" x="277.035873" xlink:href="#m3890b0bffc" y="227.045915"/>
     <use style="fill:#008000;stroke:#008000;stroke-linejoin:bevel;" x="279.597856" xlink:href="#m3890b0bffc" y="228.832187"/>
     <use style="fill:#008000;stroke:#008000;stroke-linejoin:bevel;" x="282.15984" xlink:href="#m3890b0bffc" y="228.390621"/>
     <use style="fill:#008000;stroke:#008000;stroke-linejoin:bevel;" x="284.721823" xlink:href="#m3890b0bffc" y="228.775673"/>
     <use style="fill:#008000;stroke:#008000;stroke-linejoin:bevel;" x="287.283807" xlink:href="#m3890b0bffc" y="228.772366"/>
     <use style="fill:#008000;stroke:#008000;stroke-linejoin:bevel;" x="289.84579" xlink:href="#m3890b0bffc" y="228.308451"/>
     <use style="fill:#008000;stroke:#008000;stroke-linejoin:bevel;" x="292.407774" xlink:href="#m3890b0bffc" y="204.912358"/>
     <use style="fill:#008000;stroke:#008000;stroke-linejoin:bevel;" x="294.969757" xlink:href="#m3890b0bffc" y="227.539249"/>
     <use style="fill:#008000;stroke:#008000;stroke-linejoin:bevel;" x="297.531741" xlink:href="#m3890b0bffc" y="225.302462"/>
     <use style="fill:#008000;stroke:#008000;stroke-linejoin:bevel;" x="300.093724" xlink:href="#m3890b0bffc" y="224.276204"/>
     <use style="fill:#008000;stroke:#008000;stroke-linejoin:bevel;" x="302.655708" xlink:href="#m3890b0bffc" y="223.660304"/>
     <use style="fill:#008000;stroke:#008000;stroke-linejoin:bevel;" x="305.217691" xlink:href="#m3890b0bffc" y="222.829819"/>
     <use style="fill:#008000;stroke:#008000;stroke-linejoin:bevel;" x="307.779675" xlink:href="#m3890b0bffc" y="223.608276"/>
     <use style="fill:#008000;stroke:#008000;stroke-linejoin:bevel;" x="310.341658" xlink:href="#m3890b0bffc" y="219.926243"/>
     <use style="fill:#008000;stroke:#008000;stroke-linejoin:bevel;" x="312.903642" xlink:href="#m3890b0bffc" y="209.948036"/>
     <use style="fill:#008000;stroke:#008000;stroke-linejoin:bevel;" x="315.465625" xlink:href="#m3890b0bffc" y="32.201761"/>
     <use style="fill:#008000;stroke:#008000;stroke-linejoin:bevel;" x="318.027608" xlink:href="#m3890b0bffc" y="204.228514"/>
     <use style="fill:#008000;stroke:#008000;stroke-linejoin:bevel;" x="320.589592" xlink:href="#m3890b0bffc" y="217.677651"/>
     <use style="fill:#008000;stroke:#008000;stroke-linejoin:bevel;" x="323.151575" xlink:href="#m3890b0bffc" y="222.496273"/>
     <use style="fill:#008000;stroke:#008000;stroke-linejoin:bevel;" x="325.713559" xlink:href="#m3890b0bffc" y="226.017728"/>
     <use style="fill:#008000;stroke:#008000;stroke-linejoin:bevel;" x="328.275542" xlink:href="#m3890b0bffc" y="225.539203"/>
     <use style="fill:#008000;stroke:#008000;stroke-linejoin:bevel;" x="330.837526" xlink:href="#m3890b0bffc" y="225.889993"/>
     <use style="fill:#008000;stroke:#008000;stroke-linejoin:bevel;" x="333.399509" xlink:href="#m3890b0bffc" y="225.818573"/>
     <use style="fill:#008000;stroke:#008000;stroke-linejoin:bevel;" x="335.961493" xlink:href="#m3890b0bffc" y="224.498347"/>
     <use style="fill:#008000;stroke:#008000;stroke-linejoin:bevel;" x="338.523476" xlink:href="#m3890b0bffc" y="226.642136"/>
     <use style="fill:#008000;stroke:#008000;stroke-linejoin:bevel;" x="341.08546" xlink:href="#m3890b0bffc" y="227.272362"/>
     <use style="fill:#008000;stroke:#008000;stroke-linejoin:bevel;" x="343.647443" xlink:href="#m3890b0bffc" y="227.554456"/>
     <use style="fill:#008000;stroke:#008000;stroke-linejoin:bevel;" x="346.209427" xlink:href="#m3890b0bffc" y="229.385839"/>
     <use style="fill:#008000;stroke:#008000;stroke-linejoin:bevel;" x="348.77141" xlink:href="#m3890b0bffc" y="229.179911"/>
     <use style="fill:#008000;stroke:#008000;stroke-linejoin:bevel;" x="351.333394" xlink:href="#m3890b0bffc" y="226.718331"/>
     <use style="fill:#008000;stroke:#008000;stroke-linejoin:bevel;" x="353.895377" xlink:href="#m3890b0bffc" y="227.560696"/>
     <use style="fill:#008000;stroke:#008000;stroke-linejoin:bevel;" x="356.457361" xlink:href="#m3890b0bffc" y="226.388224"/>
     <use style="fill:#008000;stroke:#008000;stroke-linejoin:bevel;" x="359.019344" xlink:href="#m3890b0bffc" y="227.49311"/>
     <use style="fill:#008000;stroke:#008000;stroke-linejoin:bevel;" x="361.581327" xlink:href="#m3890b0bffc" y="227.078557"/>
     <use style="fill:#008000;stroke:#008000;stroke-linejoin:bevel;" x="364.143311" xlink:href="#m3890b0bffc" y="226.196035"/>
     <use style="fill:#008000;stroke:#008000;stroke-linejoin:bevel;" x="366.705294" xlink:href="#m3890b0bffc" y="228.087011"/>
     <use style="fill:#008000;stroke:#008000;stroke-linejoin:bevel;" x="369.267278" xlink:href="#m3890b0bffc" y="228.510962"/>
     <use style="fill:#008000;stroke:#008000;stroke-linejoin:bevel;" x="371.829261" xlink:href="#m3890b0bffc" y="228.780376"/>
     <use style="fill:#008000;stroke:#008000;stroke-linejoin:bevel;" x="374.391245" xlink:href="#m3890b0bffc" y="228.271636"/>
     <use style="fill:#008000;stroke:#008000;stroke-linejoin:bevel;" x="376.953228" xlink:href="#m3890b0bffc" y="227.92041"/>
     <use style="fill:#008000;stroke:#008000;stroke-linejoin:bevel;" x="379.515212" xlink:href="#m3890b0bffc" y="226.471901"/>
     <use style="fill:#008000;stroke:#008000;stroke-linejoin:bevel;" x="382.077195" xlink:href="#m3890b0bffc" y="227.421724"/>
     <use style="fill:#008000;stroke:#008000;stroke-linejoin:bevel;" x="384.639179" xlink:href="#m3890b0bffc" y="227.101517"/>
     <use style="fill:#008000;stroke:#008000;stroke-linejoin:bevel;" x="387.201162" xlink:href="#m3890b0bffc" y="229.262982"/>
     <use style="fill:#008000;stroke:#008000;stroke-linejoin:bevel;" x="389.763146" xlink:href="#m3890b0bffc" y="228.137963"/>
     <use style="fill:#008000;stroke:#008000;stroke-linejoin:bevel;" x="392.325129" xlink:href="#m3890b0bffc" y="229.252398"/>
     <use style="fill:#008000;stroke:#008000;stroke-linejoin:bevel;" x="394.887113" xlink:href="#m3890b0bffc" y="228.478407"/>
     <use style="fill:#008000;stroke:#008000;stroke-linejoin:bevel;" x="397.449096" xlink:href="#m3890b0bffc" y="227.762673"/>
     <use style="fill:#008000;stroke:#008000;stroke-linejoin:bevel;" x="400.01108" xlink:href="#m3890b0bffc" y="227.069791"/>
     <use style="fill:#008000;stroke:#008000;stroke-linejoin:bevel;" x="402.573063" xlink:href="#m3890b0bffc" y="228.556915"/>
     <use style="fill:#008000;stroke:#008000;stroke-linejoin:bevel;" x="405.135046" xlink:href="#m3890b0bffc" y="227.230563"/>
     <use style="fill:#008000;stroke:#008000;stroke-linejoin:bevel;" x="407.69703" xlink:href="#m3890b0bffc" y="227.899248"/>
     <use style="fill:#008000;stroke:#008000;stroke-linejoin:bevel;" x="410.259013" xlink:href="#m3890b0bffc" y="227.57699"/>
     <use style="fill:#008000;stroke:#008000;stroke-linejoin:bevel;" x="412.820997" xlink:href="#m3890b0bffc" y="227.860786"/>
     <use style="fill:#008000;stroke:#008000;stroke-linejoin:bevel;" x="415.38298" xlink:href="#m3890b0bffc" y="228.147052"/>
     <use style="fill:#008000;stroke:#008000;stroke-linejoin:bevel;" x="417.944964" xlink:href="#m3890b0bffc" y="228.945911"/>
     <use style="fill:#008000;stroke:#008000;stroke-linejoin:bevel;" x="420.506947" xlink:href="#m3890b0bffc" y="228.675049"/>
     <use style="fill:#008000;stroke:#008000;stroke-linejoin:bevel;" x="423.068931" xlink:href="#m3890b0bffc" y="229.337541"/>
     <use style="fill:#008000;stroke:#008000;stroke-linejoin:bevel;" x="425.630914" xlink:href="#m3890b0bffc" y="228.611468"/>
     <use style="fill:#008000;stroke:#008000;stroke-linejoin:bevel;" x="428.192898" xlink:href="#m3890b0bffc" y="228.684749"/>
     <use style="fill:#008000;stroke:#008000;stroke-linejoin:bevel;" x="430.754881" xlink:href="#m3890b0bffc" y="228.749082"/>
     <use style="fill:#008000;stroke:#008000;stroke-linejoin:bevel;" x="433.316865" xlink:href="#m3890b0bffc" y="227.636422"/>
     <use style="fill:#008000;stroke:#008000;stroke-linejoin:bevel;" x="435.878848" xlink:href="#m3890b0bffc" y="228.633889"/>
     <use style="fill:#008000;stroke:#008000;stroke-linejoin:bevel;" x="438.440832" xlink:href="#m3890b0bffc" y="228.350525"/>
     <use style="fill:#008000;stroke:#008000;stroke-linejoin:bevel;" x="441.002815" xlink:href="#m3890b0bffc" y="228.74149"/>
     <use style="fill:#008000;stroke:#008000;stroke-linejoin:bevel;" x="443.564799" xlink:href="#m3890b0bffc" y="229.139415"/>
     <use style="fill:#008000;stroke:#008000;stroke-linejoin:bevel;" x="446.126782" xlink:href="#m3890b0bffc" y="228.110817"/>
     <use style="fill:#008000;stroke:#008000;stroke-linejoin:bevel;" x="448.688765" xlink:href="#m3890b0bffc" y="228.089208"/>
     <use style="fill:#008000;stroke:#008000;stroke-linejoin:bevel;" x="451.250749" xlink:href="#m3890b0bffc" y="228.719944"/>
     <use style="fill:#008000;stroke:#008000;stroke-linejoin:bevel;" x="453.812732" xlink:href="#m3890b0bffc" y="228.435231"/>
     <use style="fill:#008000;stroke:#008000;stroke-linejoin:bevel;" x="456.374716" xlink:href="#m3890b0bffc" y="228.530154"/>
     <use style="fill:#008000;stroke:#008000;stroke-linejoin:bevel;" x="458.936699" xlink:href="#m3890b0bffc" y="227.914981"/>
     <use style="fill:#008000;stroke:#008000;stroke-linejoin:bevel;" x="461.498683" xlink:href="#m3890b0bffc" y="229.41554"/>
     <use style="fill:#008000;stroke:#008000;stroke-linejoin:bevel;" x="464.060666" xlink:href="#m3890b0bffc" y="227.794006"/>
     <use style="fill:#008000;stroke:#008000;stroke-linejoin:bevel;" x="466.62265" xlink:href="#m3890b0bffc" y="228.467267"/>
     <use style="fill:#008000;stroke:#008000;stroke-linejoin:bevel;" x="469.184633" xlink:href="#m3890b0bffc" y="227.198665"/>
     <use style="fill:#008000;stroke:#008000;stroke-linejoin:bevel;" x="471.746617" xlink:href="#m3890b0bffc" y="228.721682"/>
     <use style="fill:#008000;stroke:#008000;stroke-linejoin:bevel;" x="474.3086" xlink:href="#m3890b0bffc" y="228.023465"/>
     <use style="fill:#008000;stroke:#008000;stroke-linejoin:bevel;" x="476.870584" xlink:href="#m3890b0bffc" y="228.774937"/>
     <use style="fill:#008000;stroke:#008000;stroke-linejoin:bevel;" x="479.432567" xlink:href="#m3890b0bffc" y="228.596608"/>
     <use style="fill:#008000;stroke:#008000;stroke-linejoin:bevel;" x="481.994551" xlink:href="#m3890b0bffc" y="228.388837"/>
     <use style="fill:#008000;stroke:#008000;stroke-linejoin:bevel;" x="484.556534" xlink:href="#m3890b0bffc" y="228.516547"/>
     <use style="fill:#008000;stroke:#008000;stroke-linejoin:bevel;" x="487.118518" xlink:href="#m3890b0bffc" y="229.398486"/>
     <use style="fill:#008000;stroke:#008000;stroke-linejoin:bevel;" x="489.680501" xlink:href="#m3890b0bffc" y="228.181432"/>
     <use style="fill:#008000;stroke:#008000;stroke-linejoin:bevel;" x="492.242485" xlink:href="#m3890b0bffc" y="229.3197"/>
     <use style="fill:#008000;stroke:#008000;stroke-linejoin:bevel;" x="494.804468" xlink:href="#m3890b0bffc" y="228.483251"/>
     <use style="fill:#008000;stroke:#008000;stroke-linejoin:bevel;" x="497.366451" xlink:href="#m3890b0bffc" y="228.817185"/>
     <use style="fill:#008000;stroke:#008000;stroke-linejoin:bevel;" x="499.928435" xlink:href="#m3890b0bffc" y="228.210803"/>
     <use style="fill:#008000;stroke:#008000;stroke-linejoin:bevel;" x="502.490418" xlink:href="#m3890b0bffc" y="229.116389"/>
     <use style="fill:#008000;stroke:#008000;stroke-linejoin:bevel;" x="505.052402" xlink:href="#m3890b0bffc" y="229.084975"/>
     <use style="fill:#008000;stroke:#008000;stroke-linejoin:bevel;" x="507.614385" xlink:href="#m3890b0bffc" y="228.872601"/>
     <use style="fill:#008000;stroke:#008000;stroke-linejoin:bevel;" x="510.176369" xlink:href="#m3890b0bffc" y="229.489125"/>
     <use style="fill:#008000;stroke:#008000;stroke-linejoin:bevel;" x="512.738352" xlink:href="#m3890b0bffc" y="229.206192"/>
     <use style="fill:#008000;stroke:#008000;stroke-linejoin:bevel;" x="515.300336" xlink:href="#m3890b0bffc" y="228.857959"/>
     <use style="fill:#008000;stroke:#008000;stroke-linejoin:bevel;" x="517.862319" xlink:href="#m3890b0bffc" y="229.113885"/>
     <use style="fill:#008000;stroke:#008000;stroke-linejoin:bevel;" x="520.424303" xlink:href="#m3890b0bffc" y="229.052761"/>
     <use style="fill:#008000;stroke:#008000;stroke-linejoin:bevel;" x="522.986286" xlink:href="#m3890b0bffc" y="229.184753"/>
     <use style="fill:#008000;stroke:#008000;stroke-linejoin:bevel;" x="525.54827" xlink:href="#m3890b0bffc" y="229.485245"/>
     <use style="fill:#008000;stroke:#008000;stroke-linejoin:bevel;" x="528.110253" xlink:href="#m3890b0bffc" y="227.671526"/>
     <use style="fill:#008000;stroke:#008000;stroke-linejoin:bevel;" x="530.672237" xlink:href="#m3890b0bffc" y="228.688664"/>
     <use style="fill:#008000;stroke:#008000;stroke-linejoin:bevel;" x="533.23422" xlink:href="#m3890b0bffc" y="227.98598"/>
     <use style="fill:#008000;stroke:#008000;stroke-linejoin:bevel;" x="535.796204" xlink:href="#m3890b0bffc" y="229.537136"/>
     <use style="fill:#008000;stroke:#008000;stroke-linejoin:bevel;" x="538.358187" xlink:href="#m3890b0bffc" y="229.274506"/>
     <use style="fill:#008000;stroke:#008000;stroke-linejoin:bevel;" x="540.92017" xlink:href="#m3890b0bffc" y="229.244468"/>
     <use style="fill:#008000;stroke:#008000;stroke-linejoin:bevel;" x="543.482154" xlink:href="#m3890b0bffc" y="229.268612"/>
     <use style="fill:#008000;stroke:#008000;stroke-linejoin:bevel;" x="546.044137" xlink:href="#m3890b0bffc" y="229.085202"/>
     <use style="fill:#008000;stroke:#008000;stroke-linejoin:bevel;" x="548.606121" xlink:href="#m3890b0bffc" y="228.920268"/>
     <use style="fill:#008000;stroke:#008000;stroke-linejoin:bevel;" x="551.168104" xlink:href="#m3890b0bffc" y="229.559587"/>
     <use style="fill:#008000;stroke:#008000;stroke-linejoin:bevel;" x="553.730088" xlink:href="#m3890b0bffc" y="228.603498"/>
     <use style="fill:#008000;stroke:#008000;stroke-linejoin:bevel;" x="556.292071" xlink:href="#m3890b0bffc" y="229.058706"/>
     <use style="fill:#008000;stroke:#008000;stroke-linejoin:bevel;" x="558.854055" xlink:href="#m3890b0bffc" y="228.50301"/>
     <use style="fill:#008000;stroke:#008000;stroke-linejoin:bevel;" x="561.416038" xlink:href="#m3890b0bffc" y="228.906525"/>
     <use style="fill:#008000;stroke:#008000;stroke-linejoin:bevel;" x="563.978022" xlink:href="#m3890b0bffc" y="229.463988"/>
     <use style="fill:#008000;stroke:#008000;stroke-linejoin:bevel;" x="566.540005" xlink:href="#m3890b0bffc" y="228.752445"/>
     <use style="fill:#008000;stroke:#008000;stroke-linejoin:bevel;" x="569.101989" xlink:href="#m3890b0bffc" y="229.155422"/>
    </g>
   </g>
   <g id="line2d_18">
    <path clip-path="url(#p510a28c7bd)" d="M 61.829261 227.060089 
L 64.391245 226.179132 
L 66.953228 228.37193 
L 69.515212 227.88161 
L 72.077195 229.386592 
L 74.639179 228.780249 
L 77.201162 229.686626 
L 79.763146 226.69076 
L 82.325129 226.661888 
L 84.887113 226.477702 
L 87.449096 228.230711 
L 90.01108 228.629145 
L 92.573063 228.723778 
L 95.135046 228.078847 
L 97.69703 227.782133 
L 102.820997 226.337559 
L 105.38298 226.611545 
L 107.944964 225.314662 
L 110.506947 227.809517 
L 113.068931 227.003578 
L 115.630914 228.44956 
L 118.192898 227.13606 
L 120.754881 228.798154 
L 123.316865 226.776784 
L 125.878848 228.160308 
L 128.440832 226.749887 
L 131.002815 227.900844 
L 133.564799 227.420357 
L 136.126782 228.194596 
L 138.688765 229.600564 
L 141.250749 229.186573 
L 143.812732 228.114817 
L 146.374716 229.134513 
L 148.936699 226.269878 
L 151.498683 226.349403 
L 154.060666 226.008921 
L 156.62265 226.654712 
L 159.184633 227.523873 
L 164.3086 228.427684 
L 166.870584 226.995195 
L 169.432567 226.940657 
L 171.994551 225.90225 
L 174.556534 226.584378 
L 177.118518 226.270811 
L 179.680501 228.074305 
L 182.242485 226.638844 
L 184.804468 228.178001 
L 187.366451 227.770965 
L 189.928435 228.642108 
L 192.490418 227.441854 
L 195.052402 228.554151 
L 197.614385 226.426755 
L 200.176369 227.654593 
L 202.738352 226.841111 
L 205.300336 228.925728 
L 207.862319 227.499724 
L 210.424303 228.936829 
L 212.986286 227.05595 
L 215.54827 227.023904 
L 218.110253 225.685006 
L 220.672237 227.39329 
L 223.23422 227.98153 
L 225.796204 228.008181 
L 228.358187 228.36493 
L 230.92017 228.14499 
L 233.482154 227.517198 
L 236.044137 228.209496 
L 238.606121 227.500109 
L 241.168104 227.602026 
L 243.730088 228.368664 
L 246.292071 227.794844 
L 248.854055 228.692841 
L 251.416038 227.364853 
L 253.978022 229.240583 
L 256.540005 227.910912 
L 259.101989 229.378826 
L 261.663972 227.755701 
L 264.225956 228.869312 
L 266.787939 227.781064 
L 269.349923 229.329774 
L 271.911906 228.361445 
L 274.473889 228.807528 
L 277.035873 227.045915 
L 279.597856 228.832187 
L 282.15984 228.390621 
L 284.721823 228.775673 
L 287.283807 228.772366 
L 289.84579 228.308451 
L 292.407774 204.912358 
L 294.969757 227.539249 
L 297.531741 225.302462 
L 300.093724 224.276204 
L 302.655708 223.660304 
L 305.217691 222.829819 
L 307.779675 223.608276 
L 310.341658 219.926243 
L 312.903642 209.948036 
L 315.465625 32.201761 
L 318.027608 204.228514 
L 320.589592 217.677651 
L 323.151575 222.496273 
L 325.713559 226.017728 
L 328.275542 225.539203 
L 330.837526 225.889993 
L 333.399509 225.818573 
L 335.961493 224.498347 
L 338.523476 226.642136 
L 341.08546 227.272362 
L 343.647443 227.554456 
L 346.209427 229.385839 
L 348.77141 229.179911 
L 351.333394 226.718331 
L 353.895377 227.560696 
L 356.457361 226.388224 
L 359.019344 227.49311 
L 361.581327 227.078557 
L 364.143311 226.196035 
L 366.705294 228.087011 
L 369.267278 228.510962 
L 371.829261 228.780376 
L 374.391245 228.271636 
L 376.953228 227.92041 
L 379.515212 226.471901 
L 382.077195 227.421724 
L 384.639179 227.101517 
L 387.201162 229.262982 
L 389.763146 228.137963 
L 392.325129 229.252398 
L 397.449096 227.762673 
L 400.01108 227.069791 
L 402.573063 228.556915 
L 405.135046 227.230563 
L 407.69703 227.899248 
L 410.259013 227.57699 
L 415.38298 228.147052 
L 417.944964 228.945911 
L 420.506947 228.675049 
L 423.068931 229.337541 
L 425.630914 228.611468 
L 430.754881 228.749082 
L 433.316865 227.636422 
L 435.878848 228.633889 
L 438.440832 228.350525 
L 443.564799 229.139415 
L 446.126782 228.110817 
L 448.688765 228.089208 
L 451.250749 228.719944 
L 453.812732 228.435231 
L 456.374716 228.530154 
L 458.936699 227.914981 
L 461.498683 229.41554 
L 464.060666 227.794006 
L 466.62265 228.467267 
L 469.184633 227.198665 
L 471.746617 228.721682 
L 474.3086 228.023465 
L 476.870584 228.774937 
L 481.994551 228.388837 
L 484.556534 228.516547 
L 487.118518 229.398486 
L 489.680501 228.181432 
L 492.242485 229.3197 
L 494.804468 228.483251 
L 497.366451 228.817185 
L 499.928435 228.210803 
L 502.490418 229.116389 
L 505.052402 229.084975 
L 507.614385 228.872601 
L 510.176369 229.489125 
L 515.300336 228.857959 
L 517.862319 229.113885 
L 520.424303 229.052761 
L 522.986286 229.184753 
L 525.54827 229.485245 
L 528.110253 227.671526 
L 530.672237 228.688664 
L 533.23422 227.98598 
L 535.796204 229.537136 
L 538.358187 229.274506 
L 546.044137 229.085202 
L 548.606121 228.920268 
L 551.168104 229.559587 
L 553.730088 228.603498 
L 556.292071 229.058706 
L 558.854055 228.50301 
L 561.416038 228.906525 
L 563.978022 229.463988 
L 566.540005 228.752445 
L 569.101989 229.155422 
L 569.101989 229.155422 
" style="fill:none;stroke:#008000;stroke-linecap:square;stroke-width:1.5;"/>
   </g>
   <g id="line2d_19">
    <path clip-path="url(#p510a28c7bd)" d="M 61.829261 229.874489 
L 274.473889 229.763591 
L 289.84579 229.587358 
L 297.531741 229.289007 
L 300.093724 229.079393 
L 302.655708 228.734328 
L 305.217691 228.106458 
L 307.779675 226.777762 
L 310.341658 223.151058 
L 312.903642 206.522723 
L 315.465625 32.289145 
L 318.027608 201.626509 
L 320.589592 222.40508 
L 323.151575 226.548003 
L 325.713559 228.008189 
L 328.275542 228.683693 
L 330.837526 229.049989 
L 335.961493 229.413304 
L 343.647443 229.632616 
L 359.019344 229.775247 
L 400.01108 229.850425 
L 569.101989 229.874482 
L 569.101989 229.874482 
" style="fill:none;stroke:#ff0000;stroke-linecap:square;stroke-width:1.5;"/>
   </g>
   <g id="patch_3">
    <path d="M 36.465625 239.758125 
L 36.465625 22.318125 
" style="fill:none;stroke:#000000;stroke-linecap:square;stroke-linejoin:miter;stroke-width:0.8;"/>
   </g>
   <g id="patch_4">
    <path d="M 594.465625 239.758125 
L 594.465625 22.318125 
" style="fill:none;stroke:#000000;stroke-linecap:square;stroke-linejoin:miter;stroke-width:0.8;"/>
   </g>
   <g id="patch_5">
    <path d="M 36.465625 239.758125 
L 594.465625 239.758125 
" style="fill:none;stroke:#000000;stroke-linecap:square;stroke-linejoin:miter;stroke-width:0.8;"/>
   </g>
   <g id="patch_6">
    <path d="M 36.465625 22.318125 
L 594.465625 22.318125 
" style="fill:none;stroke:#000000;stroke-linecap:square;stroke-linejoin:miter;stroke-width:0.8;"/>
   </g>
   <g id="text_18">
    <!-- Right Pendulum -->
    <g transform="translate(267.939062 16.318125)scale(0.12 -0.12)">
     <defs>
      <path d="M 44.390625 34.1875 
Q 47.5625 33.109375 50.5625 29.59375 
Q 53.5625 26.078125 56.59375 19.921875 
L 66.609375 0 
L 56 0 
L 46.6875 18.703125 
Q 43.0625 26.03125 39.671875 28.421875 
Q 36.28125 30.8125 30.421875 30.8125 
L 19.671875 30.8125 
L 19.671875 0 
L 9.8125 0 
L 9.8125 72.90625 
L 32.078125 72.90625 
Q 44.578125 72.90625 50.734375 67.671875 
Q 56.890625 62.453125 56.890625 51.90625 
Q 56.890625 45.015625 53.6875 40.46875 
Q 50.484375 35.9375 44.390625 34.1875 
z
M 19.671875 64.796875 
L 19.671875 38.921875 
L 32.078125 38.921875 
Q 39.203125 38.921875 42.84375 42.21875 
Q 46.484375 45.515625 46.484375 51.90625 
Q 46.484375 58.296875 42.84375 61.546875 
Q 39.203125 64.796875 32.078125 64.796875 
z
" id="DejaVuSans-82"/>
      <path d="M 9.421875 54.6875 
L 18.40625 54.6875 
L 18.40625 0 
L 9.421875 0 
z
M 9.421875 75.984375 
L 18.40625 75.984375 
L 18.40625 64.59375 
L 9.421875 64.59375 
z
" id="DejaVuSans-105"/>
      <path d="M 54.890625 33.015625 
L 54.890625 0 
L 45.90625 0 
L 45.90625 32.71875 
Q 45.90625 40.484375 42.875 44.328125 
Q 39.84375 48.1875 33.796875 48.1875 
Q 26.515625 48.1875 22.3125 43.546875 
Q 18.109375 38.921875 18.109375 30.90625 
L 18.109375 0 
L 9.078125 0 
L 9.078125 75.984375 
L 18.109375 75.984375 
L 18.109375 46.1875 
Q 21.34375 51.125 25.703125 53.5625 
Q 30.078125 56 35.796875 56 
Q 45.21875 56 50.046875 50.171875 
Q 54.890625 44.34375 54.890625 33.015625 
z
" id="DejaVuSans-104"/>
      <path d="M 18.3125 70.21875 
L 18.3125 54.6875 
L 36.8125 54.6875 
L 36.8125 47.703125 
L 18.3125 47.703125 
L 18.3125 18.015625 
Q 18.3125 11.328125 20.140625 9.421875 
Q 21.96875 7.515625 27.59375 7.515625 
L 36.8125 7.515625 
L 36.8125 0 
L 27.59375 0 
Q 17.1875 0 13.234375 3.875 
Q 9.28125 7.765625 9.28125 18.015625 
L 9.28125 47.703125 
L 2.6875 47.703125 
L 2.6875 54.6875 
L 9.28125 54.6875 
L 9.28125 70.21875 
z
" id="DejaVuSans-116"/>
      <path d="M 19.671875 64.796875 
L 19.671875 37.40625 
L 32.078125 37.40625 
Q 38.96875 37.40625 42.71875 40.96875 
Q 46.484375 44.53125 46.484375 51.125 
Q 46.484375 57.671875 42.71875 61.234375 
Q 38.96875 64.796875 32.078125 64.796875 
z
M 9.8125 72.90625 
L 32.078125 72.90625 
Q 44.34375 72.90625 50.609375 67.359375 
Q 56.890625 61.8125 56.890625 51.125 
Q 56.890625 40.328125 50.609375 34.8125 
Q 44.34375 29.296875 32.078125 29.296875 
L 19.671875 29.296875 
L 19.671875 0 
L 9.8125 0 
z
" id="DejaVuSans-80"/>
      <path d="M 45.40625 46.390625 
L 45.40625 75.984375 
L 54.390625 75.984375 
L 54.390625 0 
L 45.40625 0 
L 45.40625 8.203125 
Q 42.578125 3.328125 38.25 0.953125 
Q 33.9375 -1.421875 27.875 -1.421875 
Q 17.96875 -1.421875 11.734375 6.484375 
Q 5.515625 14.40625 5.515625 27.296875 
Q 5.515625 40.1875 11.734375 48.09375 
Q 17.96875 56 27.875 56 
Q 33.9375 56 38.25 53.625 
Q 42.578125 51.265625 45.40625 46.390625 
z
M 14.796875 27.296875 
Q 14.796875 17.390625 18.875 11.75 
Q 22.953125 6.109375 30.078125 6.109375 
Q 37.203125 6.109375 41.296875 11.75 
Q 45.40625 17.390625 45.40625 27.296875 
Q 45.40625 37.203125 41.296875 42.84375 
Q 37.203125 48.484375 30.078125 48.484375 
Q 22.953125 48.484375 18.875 42.84375 
Q 14.796875 37.203125 14.796875 27.296875 
z
" id="DejaVuSans-100"/>
     </defs>
     <use xlink:href="#DejaVuSans-82"/>
     <use x="69.482422" xlink:href="#DejaVuSans-105"/>
     <use x="97.265625" xlink:href="#DejaVuSans-103"/>
     <use x="160.742188" xlink:href="#DejaVuSans-104"/>
     <use x="224.121094" xlink:href="#DejaVuSans-116"/>
     <use x="263.330078" xlink:href="#DejaVuSans-32"/>
     <use x="295.117188" xlink:href="#DejaVuSans-80"/>
     <use x="351.794922" xlink:href="#DejaVuSans-101"/>
     <use x="413.318359" xlink:href="#DejaVuSans-110"/>
     <use x="476.697266" xlink:href="#DejaVuSans-100"/>
     <use x="540.173828" xlink:href="#DejaVuSans-117"/>
     <use x="603.552734" xlink:href="#DejaVuSans-108"/>
     <use x="631.335938" xlink:href="#DejaVuSans-117"/>
     <use x="694.714844" xlink:href="#DejaVuSans-109"/>
    </g>
   </g>
   <g id="legend_1">
    <g id="patch_7">
     <path d="M 472.734375 59.674375 
L 587.465625 59.674375 
Q 589.465625 59.674375 589.465625 57.674375 
L 589.465625 29.318125 
Q 589.465625 27.318125 587.465625 27.318125 
L 472.734375 27.318125 
Q 470.734375 27.318125 470.734375 29.318125 
L 470.734375 57.674375 
Q 470.734375 59.674375 472.734375 59.674375 
z
" style="fill:#ffffff;opacity:0.8;stroke:#cccccc;stroke-linejoin:miter;"/>
    </g>
    <g id="line2d_20">
     <path d="M 474.734375 35.416562 
L 494.734375 35.416562 
" style="fill:none;stroke:#008000;stroke-linecap:square;stroke-width:1.5;"/>
    </g>
    <g id="line2d_21"/>
    <g id="text_19">
     <!-- Original Data -->
     <g transform="translate(502.734375 38.916562)scale(0.1 -0.1)">
      <defs>
       <path d="M 19.671875 64.796875 
L 19.671875 8.109375 
L 31.59375 8.109375 
Q 46.6875 8.109375 53.6875 14.9375 
Q 60.6875 21.78125 60.6875 36.53125 
Q 60.6875 51.171875 53.6875 57.984375 
Q 46.6875 64.796875 31.59375 64.796875 
z
M 9.8125 72.90625 
L 30.078125 72.90625 
Q 51.265625 72.90625 61.171875 64.09375 
Q 71.09375 55.28125 71.09375 36.53125 
Q 71.09375 17.671875 61.125 8.828125 
Q 51.171875 0 30.078125 0 
L 9.8125 0 
z
" id="DejaVuSans-68"/>
      </defs>
      <use xlink:href="#DejaVuSans-79"/>
      <use x="78.710938" xlink:href="#DejaVuSans-114"/>
      <use x="119.824219" xlink:href="#DejaVuSans-105"/>
      <use x="147.607422" xlink:href="#DejaVuSans-103"/>
      <use x="211.083984" xlink:href="#DejaVuSans-105"/>
      <use x="238.867188" xlink:href="#DejaVuSans-110"/>
      <use x="302.246094" xlink:href="#DejaVuSans-97"/>
      <use x="363.525391" xlink:href="#DejaVuSans-108"/>
      <use x="391.308594" xlink:href="#DejaVuSans-32"/>
      <use x="423.095703" xlink:href="#DejaVuSans-68"/>
      <use x="500.097656" xlink:href="#DejaVuSans-97"/>
      <use x="561.376953" xlink:href="#DejaVuSans-116"/>
      <use x="600.585938" xlink:href="#DejaVuSans-97"/>
     </g>
    </g>
    <g id="line2d_22">
     <path d="M 474.734375 50.094687 
L 494.734375 50.094687 
" style="fill:none;stroke:#ff0000;stroke-linecap:square;stroke-width:1.5;"/>
    </g>
    <g id="line2d_23"/>
    <g id="text_20">
     <!-- Lorentzian Mode -->
     <g transform="translate(502.734375 53.594687)scale(0.1 -0.1)">
      <defs>
       <path d="M 9.8125 72.90625 
L 19.671875 72.90625 
L 19.671875 8.296875 
L 55.171875 8.296875 
L 55.171875 0 
L 9.8125 0 
z
" id="DejaVuSans-76"/>
       <path d="M 30.609375 48.390625 
Q 23.390625 48.390625 19.1875 42.75 
Q 14.984375 37.109375 14.984375 27.296875 
Q 14.984375 17.484375 19.15625 11.84375 
Q 23.34375 6.203125 30.609375 6.203125 
Q 37.796875 6.203125 41.984375 11.859375 
Q 46.1875 17.53125 46.1875 27.296875 
Q 46.1875 37.015625 41.984375 42.703125 
Q 37.796875 48.390625 30.609375 48.390625 
z
M 30.609375 56 
Q 42.328125 56 49.015625 48.375 
Q 55.71875 40.765625 55.71875 27.296875 
Q 55.71875 13.875 49.015625 6.21875 
Q 42.328125 -1.421875 30.609375 -1.421875 
Q 18.84375 -1.421875 12.171875 6.21875 
Q 5.515625 13.875 5.515625 27.296875 
Q 5.515625 40.765625 12.171875 48.375 
Q 18.84375 56 30.609375 56 
z
" id="DejaVuSans-111"/>
       <path d="M 5.515625 54.6875 
L 48.1875 54.6875 
L 48.1875 46.484375 
L 14.40625 7.171875 
L 48.1875 7.171875 
L 48.1875 0 
L 4.296875 0 
L 4.296875 8.203125 
L 38.09375 47.515625 
L 5.515625 47.515625 
z
" id="DejaVuSans-122"/>
       <path d="M 9.8125 72.90625 
L 24.515625 72.90625 
L 43.109375 23.296875 
L 61.8125 72.90625 
L 76.515625 72.90625 
L 76.515625 0 
L 66.890625 0 
L 66.890625 64.015625 
L 48.09375 14.015625 
L 38.1875 14.015625 
L 19.390625 64.015625 
L 19.390625 0 
L 9.8125 0 
z
" id="DejaVuSans-77"/>
      </defs>
      <use xlink:href="#DejaVuSans-76"/>
      <use x="53.962891" xlink:href="#DejaVuSans-111"/>
      <use x="115.144531" xlink:href="#DejaVuSans-114"/>
      <use x="154.007812" xlink:href="#DejaVuSans-101"/>
      <use x="215.53125" xlink:href="#DejaVuSans-110"/>
      <use x="278.910156" xlink:href="#DejaVuSans-116"/>
      <use x="318.119141" xlink:href="#DejaVuSans-122"/>
      <use x="370.609375" xlink:href="#DejaVuSans-105"/>
      <use x="398.392578" xlink:href="#DejaVuSans-97"/>
      <use x="459.671875" xlink:href="#DejaVuSans-110"/>
      <use x="523.050781" xlink:href="#DejaVuSans-32"/>
      <use x="554.837891" xlink:href="#DejaVuSans-77"/>
      <use x="641.117188" xlink:href="#DejaVuSans-111"/>
      <use x="702.298828" xlink:href="#DejaVuSans-100"/>
      <use x="765.775391" xlink:href="#DejaVuSans-101"/>
     </g>
    </g>
   </g>
  </g>
 </g>
 <defs>
  <clipPath id="p510a28c7bd">
   <rect height="217.44" width="558" x="36.465625" y="22.318125"/>
  </clipPath>
 </defs>
</svg>
